<?xml version="1.0" encoding="UTF-8" standalone="no"?>
<!-- Created with Inkscape (http://www.inkscape.org/) -->
<svg
   xmlns:svg="http://www.w3.org/2000/svg"
   xmlns="http://www.w3.org/2000/svg"
   version="1.0"
   width="259.92712"
   height="289.93655"
   viewBox="0 0 841.89 595.275"
   id="svg2"
   xml:space="preserve"
   style="overflow:visible">

<defs
   id="defs4">
	
	
		
	
		
</defs>














<g
   transform="translate(-121.9411,-370.88409)"
   id="g32">
</g>

<g
   transform="matrix(4.3519476,0,0,4.3519476,-1169.8568,-879.04661)"
   id="g2443"><path
     d="M 344.033,350.958 L 362.722,350.98 L 363.181,261.805 L 274.284,261.61 L 274.018,281.258 C 283.062,274.096 295.792,272.593 307.551,272.752 C 331.556,275.832 346.17,290.422 351.389,312.065 C 354.461,333.446 347.396,345.575 344.033,350.958 z"
     id="path2384"
     style="fill:#b40224" /><path
     d="M 314.279,350.929 L 274.261,350.435 L 274.479,305.751 C 273.575,305.493 312.139,349.497 314.279,350.929 z"
     id="path2428"
     style="fill:#b40224" /><path
     d="M 396.716,350.905 L 400.675,331.546 C 402.036,322.677 403.347,308.665 393.878,303.541 C 389.845,301.907 384.259,302.166 381.327,304.653 C 378.078,307.571 380.285,309.807 378.37,307.779 C 375.618,304.299 375.932,298.277 377.201,294.045 C 378.445,290.7 382.239,284.845 392.866,280.817 C 398.527,278.671 399.824,274.123 406.244,271.783 C 431.902,264.053 439.843,284.363 439.847,282.497 C 440.699,284.082 441.392,287.311 441.404,291.798 L 441.488,326.9 C 440.636,331.963 452.543,337.48 457.955,341.792 L 457.808,261.411 L 368.923,261.744 L 368.826,350.832 L 396.716,350.905 z"
     id="path2430"
     style="fill:#ffcd06" /><path
     d="M 410.125,279.344 C 406.518,280.513 399.665,285.309 397.986,286.144 C 384.702,292.752 382.659,297.828 384.955,297.347 C 395.414,295.154 406.066,301.2 408.316,311.954 C 410.099,323.632 407.451,337.703 404.839,350.988 C 406.491,351.128 409.464,351.483 413.973,346.807 L 433.914,329.012 L 433.89,288.757 C 433.752,287.412 433.165,286.233 432.201,285.237 C 427.334,280.219 417.919,276.548 410.125,279.344 z M 414.219,282.656 C 417.122,282.656 419.469,285.003 419.469,287.906 C 419.469,290.809 417.122,293.156 414.219,293.156 C 411.316,293.156 408.969,290.809 408.969,287.906 C 408.969,285.003 411.315,282.656 414.219,282.656 z"
     id="path2432"
     style="fill:#ffc902" /><path
     d="M 419.474,350.929 C 419.474,350.929 421.325,350.345 422.298,349.273 C 423.273,348.202 435.935,336.416 435.935,336.416 C 435.935,336.416 438.273,333.981 440.026,337.099 L 457.851,351.028 L 440.026,351.028 L 419.474,350.929 z"
     id="path2439"
     style="fill:#ffc902" /><path
     d="M 274.022,257.41 L 295.074,257.709 L 295.143,185.831 L 301.182,185.636 L 301.182,176.578 L 338,176.48 L 338,185.539 L 344.182,185.636 L 344.28,257.685 L 363.244,257.711 L 363.244,167.417 L 274.226,167.555 L 274.022,257.41 z"
     id="path2454" /><rect
     width="10.033"
     height="71.980003"
     x="304.29501"
     y="185.685"
     id="rect2462" /><rect
     width="10.033"
     height="71.980003"
     x="325.26099"
     y="185.685"
     id="rect2464" /><path
     d="M 369.448,180.71 C 366.66,178.249 416.786,180.645 440.25,195.724 C 463.09,207.935 451.133,223.069 440.044,231.47 C 429.643,238.888 416.872,244.059 405.539,248.079 C 392.696,252.634 387.726,253.831 369.31,257.573 L 369.448,180.71 z"
     id="path2468"
     style="fill:#329633" /><path
     d="M 457.944,225.775 L 457.944,256.961 L 405.607,257.058 C 405.99,258.019 446.425,243.917 457.944,225.775 z"
     id="path2470"
     style="fill:#329633" /><path
     d="M 458.107,198.705 L 458.109,167.462 L 368.897,167.409 L 368.914,171.154 C 400.377,173.079 433.916,177.239 458.107,198.705 z"
     id="path2472"
     style="fill:#329633" /><path
     d="M 285.353,285.192 C 293.137,280.017 308.915,280.806 313.834,282.588 C 332.365,287.554 341.569,303.504 343.336,320.692 C 343.307,334.008 340.634,340.463 337.283,343.184 L 285.353,285.192 z"
     id="path2476"
     style="fill:#b40224" /><path
     d="M 325.85,350.897 L 332.643,350.946 L 274.132,283.147 L 274.091,293.216 L 325.85,350.897 z"
     id="path2478"
     style="fill:#b40224" /><g
     id="g34">
	<path
   d="M 272.913,373.389 L 278.606,365.817 C 279.178,365.099 279.672,364.489 280.27,363.797 L 280.27,363.744 L 273.434,363.744 L 273.434,361.884 L 283.026,361.884 L 283.026,363.346 L 277.385,370.838 C 276.865,371.529 276.345,372.193 275.773,372.831 L 275.773,372.884 L 283.13,372.884 L 283.13,374.744 L 272.914,374.744 L 272.914,373.389 L 272.913,373.389 z"
   id="path36" />
	<path
   d="M 286.56,359.52 C 285.702,359.52 285.13,358.829 285.13,358.005 C 285.13,357.181 285.728,356.517 286.612,356.517 C 287.496,356.517 288.068,357.181 288.068,358.005 C 288.068,358.828 287.496,359.52 286.586,359.52 L 286.56,359.52 z M 285.468,374.744 L 285.468,361.884 L 287.756,361.884 L 287.756,374.744 L 285.468,374.744 z"
   id="path38" />
	<path
   d="M 291.55,365.364 C 291.55,364.01 291.498,362.946 291.446,361.884 L 293.448,361.884 L 293.552,363.956 L 293.63,363.956 C 294.332,362.734 295.502,361.592 297.608,361.592 C 299.297,361.592 300.597,362.655 301.143,364.169 L 301.195,364.169 C 301.585,363.425 302.105,362.894 302.625,362.495 C 303.379,361.91 304.185,361.592 305.381,361.592 C 307.07,361.592 309.54,362.708 309.54,367.172 L 309.54,374.744 L 307.304,374.744 L 307.304,367.464 C 307.304,364.966 306.394,363.505 304.575,363.505 C 303.249,363.505 302.262,364.488 301.846,365.604 C 301.742,365.95 301.664,366.375 301.664,366.773 L 301.664,374.745 L 299.428,374.745 L 299.428,367.04 C 299.428,364.967 298.544,363.506 296.803,363.506 C 295.399,363.506 294.334,364.675 293.97,365.844 C 293.84,366.19 293.788,366.588 293.788,366.987 L 293.788,374.746 L 291.552,374.746 L 291.552,365.364 L 291.55,365.364 z"
   id="path40" />
	<path
   d="M 313.23,355.879 L 315.518,355.879 L 315.518,363.93 L 315.57,363.93 C 316.376,362.495 317.831,361.592 319.859,361.592 C 322.978,361.592 325.162,364.249 325.162,368.128 C 325.162,372.751 322.303,375.036 319.495,375.036 C 317.676,375.036 316.246,374.319 315.284,372.618 L 315.232,372.618 L 315.102,374.744 L 313.126,374.744 C 313.204,373.867 313.23,372.565 313.23,371.423 L 313.23,355.879 z M 315.518,369.59 C 315.518,369.882 315.544,370.174 315.596,370.44 C 316.038,372.061 317.389,373.177 319.027,373.177 C 321.444,373.177 322.848,371.184 322.848,368.235 C 322.848,365.631 321.548,363.425 319.105,363.425 C 317.545,363.425 316.089,364.541 315.647,366.295 C 315.569,366.587 315.517,366.905 315.517,367.277 L 315.517,369.59 L 315.518,369.59 z"
   id="path42" />
	<path
   d="M 336.885,371.662 C 336.885,372.778 336.937,373.867 337.067,374.744 L 335.013,374.744 L 334.805,373.123 L 334.727,373.123 C 334.051,374.133 332.673,375.036 330.879,375.036 C 328.332,375.036 327.032,373.203 327.032,371.343 C 327.032,368.235 329.736,366.534 334.596,366.561 L 334.596,366.295 C 334.596,365.232 334.31,363.292 331.737,363.318 C 330.541,363.318 329.32,363.664 328.436,364.275 L 327.916,362.708 C 328.956,362.043 330.49,361.592 332.075,361.592 C 335.949,361.592 336.884,364.276 336.884,366.853 L 336.884,371.662 L 336.885,371.662 z M 334.649,368.181 C 332.153,368.128 329.32,368.58 329.32,371.077 C 329.32,372.618 330.308,373.309 331.452,373.309 C 333.116,373.309 334.181,372.246 334.545,371.157 C 334.623,370.918 334.649,370.652 334.649,370.413 L 334.649,368.181 z"
   id="path44" />
	<path
   d="M 340.55,355.879 L 342.838,355.879 L 342.838,363.93 L 342.89,363.93 C 343.696,362.495 345.151,361.592 347.179,361.592 C 350.298,361.592 352.482,364.249 352.482,368.128 C 352.482,372.751 349.623,375.036 346.815,375.036 C 344.995,375.036 343.565,374.319 342.604,372.618 L 342.552,372.618 L 342.422,374.744 L 340.446,374.744 C 340.524,373.867 340.55,372.565 340.55,371.423 L 340.55,355.879 z M 342.837,369.59 C 342.837,369.882 342.863,370.174 342.915,370.44 C 343.357,372.061 344.708,373.177 346.346,373.177 C 348.763,373.177 350.167,371.184 350.167,368.235 C 350.167,365.631 348.867,363.425 346.424,363.425 C 344.864,363.425 343.408,364.541 342.966,366.295 C 342.888,366.587 342.836,366.905 342.836,367.277 L 342.836,369.59 L 342.837,369.59 z"
   id="path46" />
	<path
   d="M 356.173,361.884 L 357.862,368.394 C 358.2,369.829 358.538,371.184 358.772,372.512 L 358.85,372.512 C 359.136,371.21 359.552,369.828 359.968,368.42 L 362.022,361.884 L 363.946,361.884 L 365.895,368.315 C 366.363,369.829 366.727,371.211 367.013,372.512 L 367.091,372.512 C 367.299,371.21 367.637,369.856 368.053,368.341 L 369.846,361.884 L 372.108,361.884 L 368.053,374.744 L 365.973,374.744 L 364.05,368.606 C 363.608,367.144 363.244,365.869 362.932,364.354 L 362.88,364.354 C 362.568,365.896 362.178,367.25 361.736,368.632 L 359.709,374.743 L 357.629,374.743 L 353.834,361.883 L 356.173,361.883 L 356.173,361.884 z"
   id="path48" />
	<path
   d="M 375.46,368.713 C 375.512,371.874 377.461,373.177 379.749,373.177 C 381.387,373.177 382.401,372.884 383.232,372.539 L 383.648,374.186 C 382.842,374.558 381.439,375.009 379.437,375.009 C 375.59,375.009 373.25,372.378 373.25,368.526 C 373.25,364.621 375.512,361.565 379.177,361.565 C 383.284,361.565 384.35,365.258 384.35,367.623 C 384.35,368.102 384.324,368.474 384.272,368.739 L 375.46,368.713 z M 382.141,367.039 C 382.167,365.577 381.543,363.239 378.995,363.239 C 376.656,363.239 375.668,365.418 375.486,367.039 L 382.141,367.039 z"
   id="path50" />
</g><g
     id="g52">
	<path
   d="M 401.357,374.542 C 400.784,374.835 399.513,375.286 397.894,375.286 C 394.257,375.286 391.891,372.656 391.891,368.697 C 391.891,364.738 394.432,361.842 398.368,361.842 C 399.663,361.842 400.809,362.187 401.407,362.532 L 400.908,364.312 C 400.385,364.02 399.563,363.701 398.367,363.701 C 395.601,363.701 394.107,365.907 394.107,368.591 C 394.107,371.567 395.901,373.4 398.292,373.4 C 399.538,373.4 400.36,373.082 400.982,372.79 L 401.357,374.542 z"
   id="path54" />
	<path
   d="M 403.947,366.146 C 403.947,364.631 403.922,363.329 403.847,362.133 L 405.765,362.133 L 405.865,364.657 L 405.94,364.657 C 406.488,362.929 407.833,361.841 409.303,361.841 C 409.528,361.841 409.702,361.867 409.901,361.92 L 409.901,364.1 C 409.652,364.073 409.427,364.046 409.129,364.046 C 407.585,364.046 406.488,365.295 406.19,367.022 C 406.14,367.368 406.115,367.74 406.115,368.138 L 406.115,374.993 L 403.923,374.993 L 403.947,366.146 z"
   id="path56" />
	<path
   d="M 413.214,359.77 C 412.392,359.77 411.844,359.079 411.844,358.255 C 411.844,357.431 412.417,356.767 413.264,356.767 C 414.111,356.767 414.659,357.431 414.659,358.255 C 414.659,359.078 414.111,359.77 413.239,359.77 L 413.214,359.77 z M 412.168,374.994 L 412.168,362.134 L 414.36,362.134 L 414.36,374.994 L 412.168,374.994 z"
   id="path58" />
	<path
   d="M 426.591,374.542 C 426.019,374.835 424.748,375.286 423.129,375.286 C 419.491,375.286 417.125,372.656 417.125,368.697 C 417.125,364.738 419.666,361.842 423.602,361.842 C 424.898,361.842 426.043,362.187 426.641,362.532 L 426.143,364.312 C 425.621,364.02 424.798,363.701 423.602,363.701 C 420.837,363.701 419.342,365.907 419.342,368.591 C 419.342,371.567 421.136,373.4 423.528,373.4 C 424.773,373.4 425.595,373.082 426.218,372.79 L 426.591,374.542 z"
   id="path60" />
	<path
   d="M 431.349,368.032 L 431.399,368.032 C 431.698,367.581 432.096,366.996 432.445,366.571 L 436.008,362.133 L 438.624,362.133 L 433.965,367.421 L 439.272,374.993 L 436.606,374.993 L 432.471,368.802 L 431.35,370.157 L 431.35,374.993 L 429.158,374.993 L 429.158,356.128 L 431.35,356.128 L 431.35,368.032 L 431.349,368.032 z"
   id="path62" />
	<path
   d="M 442.26,368.963 C 442.31,372.124 444.178,373.427 446.37,373.427 C 447.939,373.427 448.911,373.134 449.708,372.789 L 450.106,374.436 C 449.334,374.808 447.989,375.259 446.071,375.259 C 442.383,375.259 440.141,372.628 440.141,368.776 C 440.141,364.871 442.309,361.815 445.821,361.815 C 449.758,361.815 450.779,365.508 450.779,367.873 C 450.779,368.352 450.754,368.724 450.704,368.989 L 442.26,368.963 z M 448.663,367.289 C 448.687,365.827 448.09,363.489 445.648,363.489 C 443.406,363.489 442.46,365.668 442.285,367.289 L 448.663,367.289 z"
   id="path64" />
	<path
   d="M 456.135,359.052 L 456.135,362.134 L 459.274,362.134 L 459.274,363.914 L 456.135,363.914 L 456.135,370.849 C 456.135,372.444 456.559,373.347 457.78,373.347 C 458.378,373.347 458.726,373.294 459.051,373.188 L 459.151,374.968 C 458.727,375.127 458.054,375.286 457.208,375.286 C 456.187,375.286 455.364,374.914 454.842,374.304 C 454.243,373.586 453.994,372.444 453.994,370.929 L 453.994,363.914 L 452.126,363.914 L 452.126,362.134 L 453.994,362.134 L 453.994,359.77 L 456.135,359.052 z"
   id="path66" />
</g></g>
</svg>