<?xml version="1.0" encoding="utf-8"?>
<!-- Generator: Adobe Illustrator 16.0.3, SVG Export Plug-In . SVG Version: 6.00 Build 0)  -->
<!DOCTYPE svg PUBLIC "-//W3C//DTD SVG 1.1//EN" "http://www.w3.org/Graphics/SVG/1.1/DTD/svg11.dtd">
<svg version="1.1" id="Layer_1" xmlns="http://www.w3.org/2000/svg" xmlns:xlink="http://www.w3.org/1999/xlink" x="0px" y="0px"
	 width="70px" height="75px" viewBox="0 0 70 75" enable-background="new 0 0 70 75" xml:space="preserve">
<g>
	<g>
		<defs>
			<rect id="SVGID_1_" x="3.717" y="1.416" width="62.566" height="72.169"/>
		</defs>
		<clipPath id="SVGID_2_">
			<use xlink:href="#SVGID_1_"  overflow="visible"/>
		</clipPath>
		<path clip-path="url(#SVGID_2_)" d="M34.794,73.516c-0.472-0.166-3.284-1.276-3.644-1.433c-5.339-2.311-10.462-4.686-14.444-8.321
			c-4.394-4.016-6.806-9.146-7.374-15.687c-0.051-0.59-0.089-1.229-0.117-1.951c-0.232-0.447-0.372-0.857-0.456-1.172
			c0.005,0.139,0.024,0.291,0.038,0.414c0.007,0.05,0.013,0.1,0.018,0.148l0.095,0.858l-0.536-0.677
			c-0.872-1.103-1.214-2.393-0.906-3.258c-0.203-0.047-0.41-0.136-0.613-0.224c-0.197-0.085-0.42-0.182-0.54-0.182
			c-0.014,0-0.022,0.002-0.025,0.002c0,0.002-0.006,0.012-0.011,0.032l-0.011,0.036l-0.021,0.032
			c0.001,0.011,0.019,0.063,0.03,0.094c0.029,0.085,0.069,0.201,0.02,0.325l-0.082,0.207L6,42.7
			c-1.298-0.36-2.541-1.405-2.202-2.848c0.094-0.406,0.348-0.66,0.572-0.884c0.016-0.016,0.032-0.032,0.048-0.048
			c-0.005-0.013-0.01-0.026-0.015-0.04c-0.039-0.095-0.087-0.214-0.081-0.395c0.006-0.122,0.051-0.222,0.087-0.302
			c0.012-0.029,0.031-0.069,0.037-0.093c-0.015-0.033-0.048-0.091-0.07-0.129c-0.032-0.056-0.064-0.113-0.089-0.166
			c-0.247-0.559-0.281-1.221-0.099-1.888c-0.069-0.03-0.143-0.076-0.196-0.157l-0.019-0.029l-0.011-0.035
			c-0.175-0.578-0.441-1.451-0.019-2.25c0.051-0.096,0.123-0.181,0.193-0.263c0.069-0.08,0.154-0.181,0.166-0.241
			c0.017-0.087,0.007-0.222-0.003-0.365c-0.019-0.271-0.04-0.578,0.084-0.848l0.04-0.085l0.086-0.038
			c0.315-0.139,0.628-0.293,0.93-0.442c0.729-0.359,1.481-0.729,2.373-0.94c-0.009-0.036-0.02-0.072-0.032-0.11
			c-0.031-0.1-0.066-0.213-0.078-0.353L7.69,29.608l0.117-0.082c0.425-0.294,0.893-0.56,1.394-0.791V2.281L10.727,4.5
			c1.626,2.366,4.104,3.612,7.365,3.702c0.128,0.004,0.256,0.005,0.385,0.005c1.457,0,3.025-0.23,4.661-0.685
			C23.19,7.506,23.253,7.5,23.327,7.5c0.364,0,1.063,0.179,2.121,0.451c2.111,0.542,5.646,1.449,9.12,1.449
			c0.155,0,0.311-0.002,0.465-0.006h0.017c0.161,0.004,0.315,0.006,0.47,0.006c3.474-0.001,7.01-0.908,9.122-1.45
			c1.057-0.271,1.755-0.45,2.12-0.45c0.074,0,0.136,0.007,0.189,0.022c1.637,0.455,3.205,0.685,4.661,0.685
			c0.129,0,0.257-0.001,0.384-0.005c3.261-0.09,5.739-1.336,7.366-3.702l1.525-2.218v26.495c0.467,0.222,0.906,0.474,1.305,0.75
			l0.117,0.08l-0.011,0.142c-0.011,0.142-0.047,0.258-0.079,0.359c-0.012,0.037-0.023,0.072-0.032,0.106
			c0.891,0.211,1.641,0.58,2.369,0.938c0.304,0.15,0.618,0.304,0.936,0.444l0.087,0.038l0.039,0.086
			c0.122,0.269,0.101,0.574,0.083,0.844c-0.011,0.144-0.02,0.28-0.003,0.367c0.012,0.062,0.098,0.163,0.167,0.243
			c0.069,0.082,0.141,0.166,0.192,0.261c0.39,0.739,0.204,1.518-0.02,2.252l-0.01,0.033l-0.019,0.029
			c-0.053,0.082-0.127,0.128-0.197,0.159c0.182,0.664,0.149,1.326-0.097,1.885c-0.026,0.055-0.058,0.112-0.09,0.167
			c-0.022,0.039-0.056,0.099-0.071,0.132c0.006,0.019,0.025,0.061,0.038,0.09c0.036,0.081,0.081,0.181,0.086,0.3
			c0.006,0.183-0.042,0.301-0.08,0.396c-0.006,0.014-0.011,0.028-0.016,0.041c0.016,0.017,0.033,0.033,0.049,0.05
			c0.223,0.224,0.476,0.477,0.571,0.884c0.34,1.444-0.903,2.488-2.202,2.847l-0.214,0.059l-0.082-0.206
			c-0.05-0.124-0.01-0.24,0.02-0.324c0.011-0.031,0.029-0.084,0.027-0.102l-0.021-0.031l-0.008-0.03
			c-0.006-0.02-0.012-0.03-0.014-0.033h-0.002c-0.002,0-0.01-0.001-0.021-0.001c-0.12,0-0.343,0.096-0.54,0.181
			c-0.203,0.088-0.41,0.177-0.612,0.224c0.308,0.865-0.035,2.155-0.907,3.258l-0.536,0.678l0.095-0.859
			c0.006-0.048,0.012-0.097,0.018-0.147c0.015-0.123,0.033-0.274,0.039-0.413c-0.072,0.27-0.185,0.607-0.361,0.979
			c-0.027,0.799-0.068,1.5-0.124,2.142c-0.567,6.54-2.98,11.671-7.375,15.687c-3.978,3.633-9.102,6.009-14.443,8.321
			c-0.357,0.156-3.159,1.263-3.641,1.432l-0.247,0.07L34.794,73.516z"/>
		<path clip-path="url(#SVGID_2_)" fill="#ED1D24" d="M65.305,38.989c0.033-0.199,0.132-0.278,0.125-0.497
			c-0.007-0.15-0.136-0.292-0.125-0.43c0.007-0.08,0.13-0.256,0.182-0.37c0.233-0.528,0.275-1.198,0.019-1.934
			c0.09-0.055,0.239-0.058,0.294-0.144c0.193-0.632,0.396-1.385,0.039-2.064c-0.096-0.179-0.344-0.366-0.383-0.571
			c-0.06-0.3,0.097-0.805-0.063-1.157c-1.138-0.499-2.141-1.147-3.481-1.415c-0.001-0.27,0.121-0.427,0.139-0.677
			c-0.437-0.303-0.909-0.567-1.412-0.795V3.079l-1.072,1.56c-1.675,2.435-4.219,3.717-7.563,3.81
			c-1.592,0.046-3.333-0.193-5.118-0.689c-0.729-0.202-6.335,2.011-11.836,1.881h-0.006H35.04
			c-5.502,0.13-11.108-2.083-11.836-1.881c-1.785,0.496-3.526,0.735-5.119,0.689c-3.345-0.093-5.889-1.375-7.562-3.81l-1.074-1.56
			v25.816c-0.536,0.238-1.038,0.514-1.5,0.835c0.021,0.25,0.139,0.407,0.138,0.677c-1.338,0.268-2.343,0.916-3.478,1.415
			c-0.163,0.352-0.005,0.857-0.063,1.157c-0.041,0.205-0.288,0.392-0.384,0.571c-0.358,0.679-0.154,1.432,0.038,2.064
			c0.056,0.086,0.205,0.089,0.294,0.144c-0.256,0.736-0.214,1.406,0.02,1.934c0.051,0.114,0.175,0.29,0.182,0.37
			c0.011,0.138-0.119,0.28-0.126,0.43c-0.007,0.219,0.092,0.298,0.126,0.497c-0.264,0.281-0.56,0.504-0.656,0.919
			c-0.331,1.406,1.034,2.277,2.027,2.552c0.039-0.098-0.141-0.292-0.026-0.465c0.185-0.629,1.23,0.356,1.823,0.212
			c-0.5,0.693-0.271,2.1,0.705,3.334c-0.057-0.517-0.191-1.202,0.316-1.234c0.018,0.198,0.13,0.912,0.576,1.751
			c0.025,0.676,0.062,1.342,0.118,1.995c0.563,6.476,2.949,11.554,7.295,15.525c3.948,3.606,9.052,5.974,14.376,8.277
			c0.385,0.168,3.455,1.379,3.668,1.441l0.122,0.035v0.002l0.004-0.001l0.006,0.001v-0.002l0.122-0.035
			c0.213-0.062,3.284-1.273,3.668-1.441c5.322-2.303,10.426-4.671,14.375-8.277c4.346-3.971,6.733-9.049,7.295-15.525
			c0.062-0.713,0.1-1.441,0.125-2.181c0.367-0.757,0.464-1.381,0.48-1.565c0.508,0.032,0.373,0.718,0.316,1.234
			c0.976-1.234,1.207-2.64,0.705-3.334c0.594,0.144,1.638-0.841,1.823-0.211c0.115,0.173-0.064,0.367-0.026,0.464
			c0.995-0.274,2.358-1.146,2.028-2.551C65.863,39.493,65.567,39.27,65.305,38.989"/>
	</g>
	<g>
		<path fill-rule="evenodd" clip-rule="evenodd" fill="#ED1D24" d="M22.776,7.881c-0.238,0.044,3.737-3.005,2.288-3.258
			c-2.028-0.428-2.941-1.986-3.409-2.864c-0.338,2.694-1.415,3.028-4.109,2.558C18.606,5.945,20.508,7.192,22.776,7.881"/>
		<path fill-rule="evenodd" clip-rule="evenodd" d="M21.552,1.745c-0.152,1.201-0.446,1.904-0.953,2.28
			c-0.65,0.481-1.683,0.423-3.035,0.188l-0.239-0.042l0.134,0.203c1.049,1.611,2.926,2.892,5.287,3.608l0.074,0.022l0.04-0.081
			c0.028-0.043,0.239-0.231,0.442-0.413c1.134-1.016,2.331-2.146,2.172-2.702c-0.044-0.153-0.175-0.251-0.392-0.29
			c-1.836-0.386-2.747-1.704-3.332-2.809l-0.157-0.294L21.552,1.745z M20.725,4.194c0.509-0.377,0.812-1.053,0.984-2.128
			c0.613,1.086,1.552,2.284,3.333,2.659c0.199,0.035,0.222,0.115,0.23,0.14c0.004,0.02,0.007,0.041,0.007,0.064
			c0,0.527-1.472,1.847-2.117,2.424C22.924,7.566,22.8,7.679,22.73,7.754c-2.177-0.675-3.917-1.841-4.949-3.296
			C19.059,4.663,20.059,4.687,20.725,4.194"/>
		<path fill-rule="evenodd" clip-rule="evenodd" fill="#ED1D24" d="M47.254,7.881c0.237,0.044-3.739-3.005-2.287-3.258
			c2.027-0.428,2.941-1.986,3.407-2.864c0.339,2.694,1.416,3.028,4.11,2.558C51.424,5.945,49.522,7.192,47.254,7.881"/>
		<path fill-rule="evenodd" clip-rule="evenodd" d="M48.283,1.709c-0.589,1.105-1.497,2.423-3.338,2.811
			c-0.211,0.037-0.343,0.135-0.387,0.288c-0.159,0.556,1.037,1.686,2.17,2.702c0.203,0.182,0.415,0.37,0.442,0.413l0.044,0.064
			l0.071-0.005c2.36-0.716,4.239-1.998,5.288-3.608l0.132-0.203l-0.239,0.042c-1.35,0.235-2.383,0.293-3.035-0.188
			c-0.506-0.376-0.801-1.079-0.952-2.28l-0.041-0.33L48.283,1.709z M46.87,7.353c-0.645-0.577-2.118-1.897-2.118-2.424
			c0-0.023,0.003-0.044,0.008-0.064c0.007-0.025,0.03-0.105,0.225-0.138c1.786-0.377,2.725-1.575,3.338-2.661
			c0.171,1.075,0.474,1.751,0.984,2.128c0.666,0.493,1.667,0.469,2.944,0.264c-1.032,1.455-2.774,2.621-4.951,3.296
			C47.233,7.679,47.106,7.566,46.87,7.353"/>
	</g>
	<g>
		<defs>
			<path id="SVGID_3_" d="M35.05,8.923L35.05,8.923l-0.006-0.001H35.04v0.001c-2.289,0.058-4.6-0.189-6.569-1.007
				c-3.526,1.762-7.234,2.682-10.443,2.592c-2.525-0.071-4.726-0.751-6.52-1.996v29.701l-0.017,2.642
				c-0.007,0.838-0.016,1.66-0.016,2.465c0,1.591,0.031,3.113,0.157,4.555c0.523,6.02,2.63,10.524,6.632,14.181
				c3.712,3.394,8.648,5.677,13.803,7.909c0.337,0.145,2.082,0.833,2.973,1.177v0.004c0.002,0,0.003-0.001,0.004-0.001
				s0.005,0.001,0.006,0.001v-0.004c0.891-0.344,2.637-1.032,2.971-1.177c5.157-2.232,10.091-4.515,13.804-7.909
				c4.002-3.657,6.109-8.161,6.633-14.181c0.125-1.442,0.156-2.964,0.156-4.555c0-0.805-0.008-1.627-0.016-2.465l-0.018-2.642V8.513
				c-1.793,1.245-3.995,1.925-6.519,1.996c-3.208,0.09-6.917-0.83-10.442-2.592C39.65,8.734,37.338,8.981,35.05,8.923"/>
		</defs>
		<clipPath id="SVGID_4_">
			<use xlink:href="#SVGID_3_"  overflow="visible"/>
		</clipPath>
		
			<linearGradient id="SVGID_5_" gradientUnits="userSpaceOnUse" x1="-79.4512" y1="460.6475" x2="-78.4512" y2="460.6475" gradientTransform="matrix(47.1402 0 0 -47.1402 3756.8323 21754.5547)">
			<stop  offset="0" style="stop-color:#A7A9AC"/>
			<stop  offset="0.35" style="stop-color:#F2F2F3"/>
			<stop  offset="0.4622" style="stop-color:#FAFAFA"/>
			<stop  offset="0.5091" style="stop-color:#FFFFFF"/>
			<stop  offset="0.5203" style="stop-color:#FEFEFE"/>
			<stop  offset="0.65" style="stop-color:#F2F3F3"/>
			<stop  offset="1" style="stop-color:#A7A9AC"/>
		</linearGradient>
		<rect x="11.475" y="7.917" clip-path="url(#SVGID_4_)" fill="url(#SVGID_5_)" width="47.139" height="63.23"/>
	</g>
	<g>
		<path fill-rule="evenodd" clip-rule="evenodd" fill="#ED1D24" d="M39.007,10.022c-7.714,0.667-14.824-0.171-19.339-2.723
			c1.202-0.734,2.249-1.59,3.634-2.399c6.489,3.319,17.715,2.628,24.336-0.332c1.083,1.072,1.778,1.472,2.725,2.544
			C48.458,8.038,43.447,9.639,39.007,10.022"/>
		<path fill-rule="evenodd" clip-rule="evenodd" d="M47.594,4.472C41.18,7.341,29.906,8.159,23.35,4.806L23.298,4.78l-0.049,0.028
			c-0.767,0.448-1.429,0.91-2.071,1.356c-0.528,0.369-1.028,0.717-1.566,1.045l-0.153,0.093l0.158,0.089
			c4.365,2.467,11.255,3.438,19.4,2.736c4.467-0.385,9.438-1.97,11.391-2.92l0.124-0.06l-0.091-0.105
			c-0.545-0.619-1.014-1.018-1.508-1.442c-0.375-0.32-0.761-0.652-1.22-1.107L47.66,4.442L47.594,4.472z M47.614,4.691
			c0.442,0.434,0.819,0.759,1.182,1.068c0.458,0.393,0.895,0.772,1.39,1.318c-2.093,0.982-7.025,2.481-11.188,2.839
			c-8.007,0.693-14.78-0.244-19.119-2.629c0.483-0.301,0.941-0.615,1.42-0.949c0.624-0.436,1.271-0.884,2.011-1.319
			C29.905,8.357,41.16,7.549,47.614,4.691"/>
		<path d="M28.4,7.179l-0.379-0.068L27.2,7.932l-0.006-0.001l0.171-0.94L27.02,6.929l-0.391,2.157l0.343,0.062l0.127-0.699
			l0.239-0.236l0.347,1.064l0.39,0.071l-0.462-1.373L28.4,7.179z M28.419,9.395l0.345,0.051l0.06-0.401l-0.345-0.052L28.419,9.395z
			 M31.019,9.051c-0.021,0.221-0.042,0.434-0.274,0.413c-0.195-0.023-0.218-0.173-0.2-0.352l0.01-0.107l-0.331-0.033l-0.012,0.141
			c-0.022,0.287,0.056,0.566,0.502,0.613c0.348,0.036,0.602-0.108,0.648-0.589l0.152-1.58l-0.347-0.033L31.019,9.051z M31.876,9.781
			l0.349,0.024L32.252,9.4l-0.35-0.024L31.876,9.781z M34.771,8.564l-0.644-0.003l0.004-0.877l-0.35-0.002L33.77,9.874l0.35,0.001
			l0.005-1.019l0.646,0.002l-0.006,1.02l0.35,0.002l0.012-2.192l-0.352-0.003L34.771,8.564z M35.703,9.861l0.35-0.011l-0.014-0.406
			l-0.35,0.012L35.703,9.861z M38.058,7.509l-0.691,0.07l0.223,2.18l0.349-0.036l-0.092-0.9l0.305-0.031
			c0.409-0.042,0.612-0.319,0.572-0.71C38.687,7.71,38.476,7.466,38.058,7.509 M38.067,8.536L37.82,8.561l-0.078-0.754l0.224-0.024
			c0.277-0.028,0.387,0.105,0.411,0.341C38.405,8.398,38.252,8.516,38.067,8.536 M39.283,9.16l0.057,0.4l0.347-0.05l-0.059-0.402
			L39.283,9.16z M41.688,6.891l0.195,0.856L41.254,7.89L41.06,7.034l-0.34,0.077l0.487,2.138l0.34-0.079l-0.226-0.992l0.628-0.144
			l0.226,0.994l0.343-0.078l-0.487-2.137L41.688,6.891z M43.313,8.306l-0.337,0.096l0.111,0.389l0.336-0.094L43.313,8.306z"/>
	</g>
	<g>
		<defs>
			<polygon id="SVGID_6_" points="11.751,27.083 11.621,28.583 10.982,28.786 9.843,29.291 8.461,29.83 8.416,30.627 7.928,30.696 
				6.544,31.282 5.055,32.005 4.91,32.892 4.305,34.272 4.822,35.38 4.856,36.512 5.042,37.558 4.927,38.774 4.902,40.091 
				5.421,41.201 7.229,41.623 8.402,42.309 9.198,44.425 11.23,47.404 12.333,45.822 13.001,43.048 14.321,43.078 14.785,44.026 
				15.392,45.885 16.242,47.018 17.412,47.501 16.402,46.066 15.701,42.604 14.397,40.813 14.985,37.155 17.463,36.093 
				21.474,34.56 20.413,33.733 17.228,33.498 17.463,31.61 18.996,30.194 19.588,28.662 14.515,28.308 13.925,27.01 13.505,26.798 
				12.815,27.045 12.456,26.557 			"/>
		</defs>
		<clipPath id="SVGID_7_">
			<use xlink:href="#SVGID_6_"  overflow="visible"/>
		</clipPath>
		
			<linearGradient id="SVGID_8_" gradientUnits="userSpaceOnUse" x1="-79.4512" y1="460.6475" x2="-78.4512" y2="460.6475" gradientTransform="matrix(17.1688 0 0 -17.1688 1368.3899 7945.8154)">
			<stop  offset="0" style="stop-color:#A7A9AC"/>
			<stop  offset="0.124" style="stop-color:#BEBFC1"/>
			<stop  offset="0.3826" style="stop-color:#F8F8F8"/>
			<stop  offset="0.4121" style="stop-color:#FFFFFF"/>
			<stop  offset="0.7337" style="stop-color:#CDCECF"/>
			<stop  offset="1" style="stop-color:#A7A9AC"/>
		</linearGradient>
		<rect x="4.305" y="26.557" clip-path="url(#SVGID_7_)" fill="url(#SVGID_8_)" width="17.169" height="20.945"/>
	</g>
	<g>
		<defs>
			<rect id="SVGID_9_" x="3.717" y="1.416" width="62.566" height="72.169"/>
		</defs>
		<clipPath id="SVGID_10_">
			<use xlink:href="#SVGID_9_"  overflow="visible"/>
		</clipPath>
		<path clip-path="url(#SVGID_10_)" fill-rule="evenodd" clip-rule="evenodd" fill="#ED1D24" d="M24.273,26.966
			c-0.525-0.094-2.27-1.185-3.674-0.098c1.791-0.545,3.346,1.033,4.439,0.969c0.942-0.056,1.248-0.492,1.559-0.839
			C26.02,27.145,25.232,27.304,24.273,26.966 M8.757,32.889c0.474-0.325,1.123-0.451,1.651-0.713
			c-0.85,0.044-1.574,0.228-2.195,0.53C8.386,32.774,8.54,32.862,8.757,32.889 M18.011,37.518c0.392,0.229,0.693,0.499,1.143,0.65
			c0.805,0.269,1.402,0.094,2.098,0.07c0.919-0.032,1.761,0.186,2.485,0.525c-0.342-0.574-0.869-1.107-1.672-1.267
			C20.656,37.215,19.393,37.791,18.011,37.518 M11.961,31.897c0.419-0.341,1.013-0.484,1.644-0.585
			c0.039-0.004,0.006-0.042-0.022-0.051c-1.151,0.028-2.168,0.206-2.864,0.751c0.061,0.14,0.158,0.259,0.28,0.402
			c0.073,0.084,0.216,0.32,0.334,0.351c0.139,0.036,0.403-0.084,0.609-0.097c0.919-0.059,1.769,0.3,2.473,0.412
			C13.977,32.435,13.119,31.962,11.961,31.897 M15.59,27.707c0.682-1.027,2.944-1.927,5.024-1.661
			c-2.657-0.93-4.373-0.428-5.329,0.279c3.85-4.481,6.849-1.211,6.99-0.731c-0.594-1.681-3.643-2.933-6.36-1.404
			c-1.688,1.009-2.314,2.45-3.016,2.063c-0.232-0.119-0.006-0.736,0.074-0.905c-1.078,0.386-1.806,1.56-1.901,2.974
			c-1.172,0.32-2.221,0.782-3.124,1.408c0.021,0.25,0.14,0.407,0.139,0.677c-1.339,0.268-2.343,0.916-3.479,1.415
			c-0.162,0.351-0.004,0.857-0.063,1.157c-0.04,0.205-0.288,0.392-0.383,0.571c-0.358,0.678-0.155,1.432,0.037,2.064
			c0.057,0.086,0.205,0.089,0.295,0.143c-0.256,0.737-0.215,1.407,0.019,1.935c0.052,0.114,0.175,0.29,0.182,0.37
			c0.012,0.138-0.119,0.28-0.126,0.43c-0.007,0.219,0.092,0.298,0.126,0.497c-0.263,0.281-0.559,0.504-0.656,0.919
			c-0.331,1.406,1.034,2.277,2.027,2.552c0.039-0.098-0.14-0.292-0.026-0.465c0.185-0.63,1.23,0.356,1.823,0.211
			c-0.5,0.694-0.271,2.101,0.705,3.335c-0.057-0.517-0.191-1.202,0.316-1.234c0.039,0.415,0.481,3.087,3.559,4.449
			c-0.459-0.402-0.697-1.205-0.402-1.52c0.293,0.725,0.862,1.549,1.924,2.066c-0.316-0.46-0.701-2.514-0.425-2.645
			c0.833,1.791,3.308,4.739,6.449,2.699c0.101-0.067,0.519-0.37,0.75-0.712c0.186-0.278,0.432-0.711,0.748-1.402
			c-3.551,1.621-4.487-0.07-4.49-2.847c0,0,1.114,2.701,3.536,2.636c-0.848-0.368-1.686-1.04-2.021-1.944
			c0.885,0.728,2.573-0.349,2.964-1.299c-0.024-0.077-1.605,0.762-2.927-0.098c2.927,0.098,5.046-2.499,5.422-3.335
			c-2.087,2.049-6.014,1.32-7.616,0.09c1.839,0.124,4.18-0.605,5.417-1.882c-2.283,0.587-4.813-0.337-6.037-1.551
			c1.008,0.07,1.661-0.268,2.378-0.648c3.809-2.02,3.939-1.293,4.858-0.872c0.055-1.281-0.716-1.928-2.001-2.097
			c0.476-0.196,0.652-0.516,0.858-0.908c-0.683,0.307-1.554,0.397-2.491,0.411c0.087-0.159,0.274-0.197,0.417-0.287
			c0.136-0.085,0.264-0.193,0.419-0.288c0.239-0.142,0.764-0.313,0.768-0.655c0.004-0.294-0.329-0.376-0.663-0.344
			c-0.476,0.047-0.951,0.263-1.339,0.549c-0.395,0.29-0.653,0.673-0.888,1.036c-0.043-0.752,0.106-1.424,0.529-1.828
			c0.714-0.683,3.57-0.488,4.446,0.046c-0.263-0.432-2.311-1.175-2.883-1.404c1.559-1.325,4.357-0.169,5.378,0.313
			C22.561,25.827,17.416,26.839,15.59,27.707 M5.593,33.626c-0.128,0.444-0.24,0.907-0.398,1.317
			C4.854,34.581,4.854,32.802,5.593,33.626 M5.246,35.848c0.787,0.944,2.321,0.158,3.326-0.033C8.42,36.187,8.17,36.45,7.991,36.789
			c-0.153-0.015-0.158-0.165-0.267-0.218c-0.161,0.088-0.222,0.29-0.372,0.39c-0.125-0.064-0.164-0.205-0.263-0.296
			c-0.152,0.363-0.261,0.777-0.366,1.192c-0.218-0.312-0.398-0.66-0.389-1.18c-0.178,0.072-0.285,0.223-0.399,0.367
			c-0.132-0.115-0.169-0.317-0.224-0.502c-0.176,0.171-0.237,0.476-0.319,0.757C5.104,37.031,5.07,36.323,5.246,35.848
			 M5.319,38.635c0.141,0.145,0.186,0.382,0.269,0.581c0.125-0.032,0.198-0.122,0.263-0.218c0.202,0.051,0.236,0.257,0.412,0.33
			c0.073-0.271,0.212-0.469,0.316-0.705c0.151,0.21,0.265,0.457,0.442,0.641c0.074-0.091,0.117-0.214,0.194-0.298
			c0.274,0.186,0.464,0.451,0.72,0.655c-0.677,0.276-1.967,0.119-2.713-0.141C5.148,39.209,5.221,38.861,5.319,38.635
			 M20.096,48.487c-3.545,2.397-5.273-0.595-5.958-4.959C14.138,43.528,16.021,49.517,20.096,48.487 M15.749,40.937
			c1.233,1.404,3.665,1.648,3.665,1.648C15.544,43.018,15.749,40.937,15.749,40.937 M17,47.172c0,0-1.784-0.787-1.809-2.785
			c-0.091-2.576-1.714-3.016-1.437-2.949c0.766,0.187,1.508,0.891,1.981,2.148C16.209,45.052,15.636,46.115,17,47.172
			 M16.242,31.913c-0.107,0.423-0.056,0.812-0.164,1.177c-0.313,1.051-1.17,1.312-1.967,1.88c0.629,0.138,1.237-0.138,1.805-0.319
			c0.851-0.268,1.684-0.579,2.824-0.522c0.725,0.036,1.281,0.247,1.812,0.506c-1.44-0.012-2.521,0.242-3.593,0.74
			c-1.15,0.537-2.429,1.159-4.045,0.744c-0.13,0.7,0.867,1.173,1.15,1.66c0.167,0.294,0.219,1.476,0,2.494
			C13.9,41.015,12,40.689,10.958,40.558c-0.146,0.124-0.117,0.381-0.212,0.557c-0.02,0.284,0.039,0.65,0.278,1.097
			c0.913,1.709,1.537,2.679,1.107,3.125c-0.002,0-0.002,0-0.002,0.002c0.061-0.113,0.224-0.74-1.64-2.291
			c-0.241,0.784-0.31,2.044,0.657,3.687c-1.425-1.625-1.725-3.141-0.993-4.035c-0.277-0.316-0.537-0.713-0.591-1.117
			C8.4,41.744,6.451,40.971,5.52,40.5c1.323,0.06,2.695,0.177,3.447-0.413c-0.311,0.11-0.594,0.249-1.043,0.203
			c1.33-0.523,2.19-1.961,1.981-3.967c0.546,0.924,0.236,2.663-0.409,3.328c0.646-0.276,0.994-1.054,1.094-2.03
			c0.085-0.829-0.028-1.979-0.402-2.34c-0.123-0.12-0.347-0.173-0.544-0.183c-0.618-0.029-1.238,0.265-1.862,0.418
			c-0.637,0.158-1.291,0.295-1.916,0.03c-0.042-0.67,0.456-1.836,1.163-1.897c0.441-0.039,0.604,0.25,0.723,0.579
			c0.432-0.173,0.628-0.615,0.814-1.065c-0.868-0.374-2.285-0.243-2.795-0.943c0.958-0.759,2.222-1.166,3.677-1.356
			c-0.047-0.209-0.325-0.416-0.443-0.641c0.253-0.299,0.674-0.428,1.064-0.563c0.399-0.138,0.847-0.233,1.277-0.319
			c-0.137,0.299-0.35,0.51-0.521,0.771c0.855-0.074,1.903-0.447,2.964-0.31c0.778,0.101,1.31,0.51,1.816,0.867
			c0.66-0.733,1.687-1.188,3.125-0.945C17.567,29.946,16.56,30.668,16.242,31.913"/>
	</g>
	<g>
		<defs>
			<polygon id="SVGID_11_" points="57.215,27.045 56.526,26.798 56.107,27.01 55.516,28.308 50.443,28.662 51.034,30.194 
				52.566,31.61 52.804,33.498 49.618,33.733 48.557,34.56 52.566,36.093 55.044,37.155 55.634,40.813 55.715,41.259 54.33,42.604 
				54.32,42.979 53.426,46.25 52.797,47.403 54.225,46.528 55.008,45.13 55.452,42.791 57.03,43.048 58.511,47.741 60.262,45.314 
				60.461,44.377 61.743,43.562 61.799,42.026 62.934,41.688 64.609,41.201 65.129,40.091 65.103,38.774 64.988,37.558 
				65.174,36.512 65.208,35.38 65.726,34.272 65.12,32.892 64.976,32.005 63.486,31.282 62.101,30.696 61.613,30.627 61.571,29.83 
				60.187,29.291 59.048,28.786 58.409,28.583 58.28,27.083 57.573,26.557 			"/>
		</defs>
		<clipPath id="SVGID_12_">
			<use xlink:href="#SVGID_11_"  overflow="visible"/>
		</clipPath>
		
			<linearGradient id="SVGID_13_" gradientUnits="userSpaceOnUse" x1="-79.4517" y1="460.6475" x2="-78.4517" y2="460.6475" gradientTransform="matrix(17.1694 0 0 -17.1694 1412.6772 7946.1841)">
			<stop  offset="0" style="stop-color:#A7A9AC"/>
			<stop  offset="0.1222" style="stop-color:#BEBFC1"/>
			<stop  offset="0.377" style="stop-color:#F8F8F8"/>
			<stop  offset="0.4061" style="stop-color:#FFFFFF"/>
			<stop  offset="0.7309" style="stop-color:#CDCECF"/>
			<stop  offset="1" style="stop-color:#A7A9AC"/>
		</linearGradient>
		<rect x="48.557" y="26.557" clip-path="url(#SVGID_12_)" fill="url(#SVGID_13_)" width="17.169" height="21.185"/>
	</g>
	<g>
		<polygon fill="#ED1D24" points="38.104,45.547 34.624,45.547 33.144,40.806 31.752,45.547 28.655,45.547 31.21,37.165 
			29.321,30.799 32.434,30.799 33.586,35.075 34.869,30.799 37.776,30.799 35.568,37.629 		"/>
		<polygon fill="none" stroke="#000000" stroke-width="0.219" stroke-miterlimit="10" points="38.104,45.547 34.624,45.547 
			33.144,40.806 31.752,45.547 28.655,45.547 31.21,37.165 29.321,30.799 32.434,30.799 33.586,35.075 34.869,30.799 37.776,30.799 
			35.568,37.629 		"/>
		<rect x="38.472" y="30.799" fill="#ED1D24" width="3.237" height="14.748"/>
		
			<rect x="38.472" y="30.799" fill="none" stroke="#000000" stroke-width="0.219" stroke-miterlimit="10" width="3.237" height="14.748"/>
		<path d="M16.111,56.509l2.065,1.52c0,0,1.511-2.28,1.734-2.614c0.175,0.128,0.404,0.298,0.404,0.298
			c0.761,0.56,1.489,0.782,2.165,0.66c0.648-0.118,1.222-0.548,1.706-1.277c0.955-1.443,0.756-2.87-0.534-3.82l-2.736-2.017
			L16.111,56.509z M21.873,52.452c0.063,0.046,0.131,0.097,0.131,0.097c0.141,0.103,0.264,0.235,0.264,0.442
			c0,0.146-0.06,0.327-0.216,0.562c-0.167,0.254-0.331,0.396-0.493,0.425c-0.12,0.024-0.251-0.02-0.4-0.131
			c0,0-0.072-0.053-0.142-0.104C21.185,53.487,21.696,52.719,21.873,52.452"/>
		<path d="M23.504,58.702c-0.796,2.141-0.324,3.389,1.577,4.178c0.934,0.388,1.652,0.44,2.263,0.167
			c0.66-0.294,1.184-0.979,1.599-2.097l1.984-5.325l-2.346-0.972l-2.176,5.845c-0.159,0.427-0.298,0.564-0.386,0.603
			c-0.044,0.02-0.112,0.033-0.255-0.024c-0.167-0.071-0.377-0.158-0.102-0.896l2.176-5.837l-2.347-0.972L23.504,58.702z"/>
		<path d="M30.104,64.738l2.408,0.303c0,0,0.259-2.295,0.433-3.843c0.237,1.591,0.592,3.973,0.592,3.973l2.694,0.341l1.008-8.937
			l-2.408-0.305c0,0-0.252,2.236-0.427,3.782c-0.224-1.591-0.552-3.906-0.552-3.906l-2.739-0.345L30.104,64.738z"/>
		<path d="M38.34,56.081l1.431,6.278c0.178,0.774-0.029,0.828-0.139,0.853c-0.1,0.026-0.147,0.009-0.18-0.012
			c-0.068-0.042-0.196-0.186-0.308-0.676L39,61.886l-2.305,0.582l0.092,0.399c0.235,1.032,0.635,1.714,1.22,2.081
			c0.543,0.342,1.224,0.403,2.082,0.186c1.913-0.482,2.587-1.66,2.121-3.706l-1.365-5.98L38.34,56.081z"/>
		<path d="M41.565,54.957l2.081,8.839l2.379-1.311c0,0-0.368-1.124-0.459-1.402c0.227-0.125,0.883-0.487,1.117-0.617
			c0.172,0.246,0.835,1.198,0.835,1.198l2.373-1.31l-5.704-6.841L41.565,54.957z M44.33,57.158c0.535,0.743,0.988,1.374,1.146,1.595
			c-0.193,0.105-0.358,0.196-0.559,0.307C44.833,58.788,44.603,58.042,44.33,57.158"/>
		<path d="M47.492,50.575l-2.537,2.297l5.473,6.715l2.546-2.305c1.277-1.154,1.386-2.52,0.308-3.845
			c-0.487-0.595-1.249-0.985-2.021-0.765c0.047-0.16,0.079-0.326,0.079-0.494c0-0.491-0.196-1.002-0.586-1.482
			c-0.429-0.527-0.939-0.825-1.475-0.868C48.692,49.783,48.09,50.035,47.492,50.575 M48.341,52.498
			c0.081-0.073,0.169-0.104,0.265-0.097c0.151,0.011,0.313,0.115,0.449,0.28c0.109,0.134,0.185,0.302,0.185,0.459
			c0,0.115-0.04,0.224-0.137,0.312c0,0-0.105,0.093-0.207,0.188c-0.184-0.229-0.593-0.73-0.771-0.947
			C48.231,52.597,48.341,52.498,48.341,52.498 M50.375,54.867c0.083-0.075,0.191-0.11,0.312-0.102
			c0.187,0.016,0.381,0.136,0.548,0.339c0.181,0.222,0.252,0.431,0.252,0.605c0,0.155-0.058,0.282-0.148,0.362
			c0,0-0.139,0.126-0.265,0.24c-0.202-0.247-0.782-0.958-0.974-1.195C50.229,54.999,50.375,54.867,50.375,54.867"/>
		<path fill="#ED1D24" d="M20.972,49.585l2.548,1.879c1.296,0.954,1.276,2.299,0.479,3.501c-0.931,1.405-2.174,1.579-3.552,0.561
			l-0.593-0.437l-1.735,2.615l-1.699-1.251L20.972,49.585z M20.708,53.8l0.32,0.234c0.428,0.317,0.83,0.226,1.211-0.351
			c0.377-0.568,0.327-1.004-0.102-1.321l-0.319-0.237L20.708,53.8z"/>
		<path fill="#ED1D24" d="M27.549,54.474l-2.096,5.625c-0.281,0.753-0.136,1.042,0.227,1.193c0.362,0.149,0.653,0.043,0.934-0.712
			l2.096-5.626l1.928,0.801l-1.905,5.112c-0.814,2.185-1.948,2.471-3.565,1.799c-1.619-0.67-2.265-1.696-1.453-3.88l1.906-5.112
			L27.549,54.474z"/>
		<polygon fill="#ED1D24" points="31.311,56.059 33.654,56.354 34.417,61.75 34.44,61.753 35.03,56.529 36.989,56.776 
			36.033,65.253 33.734,64.963 32.928,59.55 32.905,59.546 32.313,64.785 30.354,64.537 		"/>
		<path fill="#ED1D24" d="M40.677,55.729l1.314,5.752c0.458,2.015-0.257,3-1.957,3.429c-1.733,0.438-2.631-0.35-3.029-2.096
			l-0.039-0.175l1.866-0.471l0.094,0.409c0.181,0.796,0.45,0.939,0.76,0.861c0.312-0.078,0.488-0.335,0.306-1.129L38.61,56.25
			L40.677,55.729z"/>
		<path fill="#ED1D24" d="M41.824,55.076l2.309-1.272l5.407,6.483l-1.955,1.077l-0.832-1.198l-1.46,0.804l0.458,1.404l-1.953,1.076
			L41.824,55.076z M43.743,55.953l-0.019,0.012l1.061,3.429l1.028-0.565L43.743,55.953z"/>
		<path fill="#ED1D24" d="M45.267,52.897l2.375-2.148c1.122-1.017,2.162-0.858,2.939,0.096c0.551,0.676,0.766,1.534,0.214,2.281
			l0.015,0.017c0.859-0.638,1.762-0.215,2.3,0.444c0.899,1.104,1.024,2.338-0.285,3.523l-2.374,2.148L45.267,52.897z M48.872,53.97
			l0.379-0.343c0.321-0.291,0.253-0.755-0.024-1.094c-0.29-0.357-0.715-0.499-1.035-0.207l-0.38,0.342L48.872,53.97z M51.05,56.642
			l0.44-0.397c0.286-0.261,0.339-0.772-0.082-1.289c-0.399-0.49-0.896-0.521-1.183-0.262l-0.438,0.398L51.05,56.642z"/>
		<path d="M34.174,13.287c0,0,0.002,3.547,0.002,4.031c-0.404-1.751-0.982-4.24-0.982-4.24l-0.189,0.011l-2.602,0.144l0.005,0.219
			l0.029,9.73l2.435-0.004c0,0-0.008-4.278-0.008-4.287c0.418,1.75,1.024,4.286,1.024,4.286h2.729l0.006-10.112l-2.451-0.01
			L34.174,13.287z M38.665,13.678c-0.782,0.723-1.102,2.011-1.105,4.453c-0.004,2.12,0.06,3.808,0.905,4.65
			c0.395,0.396,0.937,0.588,1.655,0.588c0.696,0,1.22-0.203,1.577-0.565c0.003,0.051,0.02,0.381,0.02,0.381l1.878,0.005l0.023-5.444
			l-3.193-0.185l0.002,0.245L40.422,19.7c0,0,0.521,0.019,0.742,0.025c-0.023,0.791-0.112,1.288-0.272,1.446
			c-0.038,0.034-0.087,0.066-0.207,0.064c-0.401-0.004-0.486-0.545-0.48-3.044c0.005-1.563,0.027-2.687,0.288-2.929
			c0.036-0.034,0.093-0.068,0.237-0.057c0.102,0.006,0.214,0.045,0.283,0.279c0.07,0.224,0.103,0.573,0.101,1.037l-0.001,0.214
			l2.505,0.191l0.004-0.248c0.01-2.912-1.73-3.504-2.77-3.597C39.899,13.004,39.185,13.2,38.665,13.678 M26.829,13.548l0.006,0.208
			l0.036,9.434l2.571-0.008l-0.032-9.911L26.829,13.548z M26.135,13.572l-2.376,0.357l-0.048,0.119c0,0-0.685,1.577-1.129,2.602
			c-0.003-0.971-0.008-2.509-0.008-2.509l-2.552,0.548l0.004,0.186v8.343l2.572-0.013c0,0-0.005-2.311-0.005-2.43
			c0.022-0.041,0.086-0.148,0.172-0.295c0.261,0.628,1.127,2.717,1.127,2.717l0.155,0.001l2.76-0.01l-0.145-0.324
			c-0.787-1.757-1.549-3.398-2.266-4.887c0.095-0.193,2.169-4.471,2.169-4.471L26.135,13.572z M45.235,14.264
			c-0.543,0.448-0.82,1.209-0.824,2.261c-0.007,2.01,1.195,2.628,2.161,3.123c0.724,0.371,1.134,0.609,1.133,1.155
			c-0.002,0.203-0.06,0.376-0.163,0.474c-0.072,0.071-0.167,0.105-0.282,0.102c-0.128-0.004-0.466-0.016-0.464-0.815
			c0-0.001,0.002-0.43,0.002-0.43l-0.219-0.01l-2.284-0.111v0.24l-0.001,0.32c-0.004,0.938,0.22,1.621,0.684,2.085
			c0.484,0.484,1.223,0.718,2.259,0.714c2.06-0.011,3.103-0.929,3.1-2.726c0.001-1.815-1.207-2.482-2.177-3.017
			c-0.773-0.426-1.249-0.719-1.249-1.294c0.002-0.175,0.054-0.325,0.139-0.396c0.062-0.053,0.144-0.069,0.253-0.053
			c0.298,0.048,0.402,0.456,0.4,0.791l-0.001,0.403l0.202,0.031l2.217,0.337l0.002-0.268c0-1.869-0.882-2.913-2.779-3.287
			C46.449,13.722,45.741,13.848,45.235,14.264"/>
	</g>
	<g>
		<defs>
			<rect id="SVGID_14_" x="3.717" y="1.416" width="62.566" height="72.169"/>
		</defs>
		<clipPath id="SVGID_15_">
			<use xlink:href="#SVGID_14_"  overflow="visible"/>
		</clipPath>
		<path clip-path="url(#SVGID_15_)" fill="#ED1D24" d="M26.166,13.801c-0.75,0.098-1.497,0.211-2.243,0.337
			c-0.514,1.217-1.03,2.409-1.548,3.566c-0.007,0.001-0.013,0.001-0.021,0.002c-0.004-1.092-0.007-2.186-0.01-3.28
			c-0.698,0.138-1.393,0.287-2.087,0.449v8.111c0.704-0.003,1.407-0.007,2.11-0.011c-0.001-0.755-0.004-1.509-0.005-2.264
			c0.145-0.247,0.294-0.496,0.439-0.749c0.413,0.976,0.83,1.978,1.245,3.006c0.801-0.005,1.603-0.007,2.405-0.01
			c-0.771-1.722-1.542-3.39-2.31-4.981C24.815,16.622,25.491,15.225,26.166,13.801 M27.065,13.754
			c0.011,3.068,0.023,6.136,0.035,9.204c0.704-0.003,1.407-0.004,2.111-0.006c-0.011-3.142-0.02-6.283-0.032-9.425
			C28.475,13.59,27.77,13.667,27.065,13.754 M34.405,13.288c0,1.984,0.002,3.969,0.004,5.952h-0.023
			c-0.456-1.981-0.914-3.957-1.373-5.919c-0.792,0.028-1.584,0.072-2.374,0.132c0.009,3.166,0.018,6.332,0.027,9.499
			c0.659-0.003,1.316-0.004,1.975-0.004c-0.004-1.978-0.006-3.959-0.01-5.937c0.007,0,0.015,0,0.022-0.001
			c0.475,1.969,0.947,3.95,1.418,5.938c0.771,0,1.542,0,2.315,0c0.002-3.219,0.005-6.436,0.005-9.652
			C35.73,13.281,35.067,13.277,34.405,13.288 M40.747,14.975c0.251,0.017,0.409,0.176,0.488,0.445
			c0.078,0.256,0.111,0.627,0.11,1.103c0.682,0.042,1.365,0.094,2.044,0.154c0.01-2.214-1.053-3.229-2.557-3.365
			c-2.508-0.203-3.037,1.608-3.042,4.82c-0.004,3.184,0.186,5.008,2.33,5.006c0.716,0,1.465-0.214,1.751-1.009
			c0.008,0,0.016,0,0.023,0c0.013,0.275,0.028,0.552,0.041,0.826c0.478,0.001,0.955,0.002,1.43,0.004
			c0.008-1.664,0.014-3.33,0.02-4.994c-0.908-0.063-1.817-0.117-2.727-0.158c-0.001,0.557-0.003,1.113-0.005,1.671
			c0.251,0.008,0.5,0.016,0.75,0.026c-0.017,1.644-0.28,1.97-0.722,1.963c-0.647-0.008-0.712-0.703-0.706-3.275
			C39.981,15.618,40.053,14.924,40.747,14.975 M46.682,16.335c0.001-0.396,0.207-0.748,0.658-0.676
			c0.405,0.064,0.597,0.517,0.594,1.019v0.203c0.655,0.092,1.308,0.191,1.96,0.299c-0.001-1.731-0.77-2.702-2.594-3.061
			c-1.772-0.337-2.651,0.568-2.659,2.407c-0.009,3.224,3.299,2.579,3.293,4.278c-0.001,0.467-0.25,0.818-0.68,0.805
			c-0.409-0.012-0.691-0.293-0.689-1.046c0-0.07,0-0.14,0.001-0.21c-0.68-0.036-1.36-0.069-2.04-0.098
			c0,0.107-0.001,0.213-0.001,0.319c-0.008,1.896,0.965,2.573,2.712,2.567c1.861-0.011,2.87-0.783,2.869-2.495
			C50.109,17.688,46.679,18.05,46.682,16.335"/>
		<path clip-path="url(#SVGID_15_)" fill-rule="evenodd" clip-rule="evenodd" fill="#ED1D24" d="M43.401,26.998
			c0.312,0.348,0.618,0.784,1.56,0.84c1.093,0.064,2.649-1.514,4.439-0.97c-1.404-1.086-3.147,0.004-3.673,0.099
			C44.767,27.304,43.981,27.146,43.401,26.998 M61.788,32.707c-0.622-0.302-1.347-0.486-2.196-0.53
			c0.529,0.262,1.178,0.388,1.651,0.713C61.46,32.862,61.612,32.774,61.788,32.707 M47.937,37.497
			c-0.804,0.16-1.332,0.693-1.673,1.267c0.723-0.34,1.567-0.557,2.486-0.525c0.696,0.024,1.292,0.199,2.097-0.07
			c0.45-0.151,0.751-0.421,1.143-0.65C50.607,37.791,49.346,37.215,47.937,37.497 M55.585,33.081
			c0.704-0.112,1.554-0.471,2.472-0.412c0.206,0.013,0.47,0.133,0.609,0.097c0.119-0.031,0.261-0.267,0.334-0.351
			c0.122-0.143,0.22-0.262,0.28-0.402c-0.697-0.545-1.713-0.724-2.864-0.752c-0.028,0.009-0.061,0.047-0.021,0.052
			c0.629,0.101,1.224,0.243,1.643,0.585C56.88,31.962,56.024,32.436,55.585,33.081 M44.479,30.036
			c1.021-0.482,3.82-1.638,5.378-0.313c-0.574,0.229-2.619,0.972-2.883,1.404c0.876-0.534,3.733-0.729,4.447-0.046
			c0.422,0.404,0.571,1.076,0.528,1.827c-0.234-0.362-0.493-0.745-0.888-1.035c-0.388-0.286-0.863-0.502-1.34-0.549
			c-0.332-0.032-0.666,0.05-0.662,0.344c0.005,0.342,0.53,0.513,0.767,0.655c0.156,0.094,0.284,0.203,0.419,0.288
			c0.145,0.089,0.332,0.127,0.418,0.286c-0.937-0.013-1.81-0.103-2.49-0.41c0.206,0.392,0.382,0.712,0.856,0.908
			c-1.284,0.169-2.054,0.816-2,2.096c0.919-0.42,1.049-1.147,4.857,0.872c0.718,0.381,1.372,0.719,2.379,0.649
			c-1.224,1.214-3.755,2.137-6.037,1.551c1.237,1.277,3.578,2.006,5.418,1.882c-1.604,1.23-5.529,1.959-7.618-0.088
			c0.377,0.834,2.497,3.431,5.424,3.333c-1.323,0.86-2.904,0.021-2.927,0.098c0.39,0.95,2.08,2.028,2.963,1.3
			c-0.334,0.903-1.173,1.575-2.022,1.944c2.424,0.064,3.537-2.637,3.537-2.637c-0.003,2.777-0.938,4.468-4.489,2.848
			c0.316,0.69,0.561,1.124,0.748,1.401c0.23,0.342,0.646,0.645,0.749,0.712c3.141,2.04,5.617-0.908,6.45-2.699
			c0.275,0.132-0.11,2.186-0.425,2.645c1.061-0.517,1.629-1.341,1.922-2.066c0.295,0.315,0.058,1.118-0.401,1.52
			c3.078-1.362,3.521-4.034,3.558-4.449c0.508,0.032,0.374,0.718,0.316,1.234c0.976-1.234,1.207-2.64,0.706-3.335
			c0.593,0.145,1.637-0.841,1.822-0.21c0.116,0.173-0.064,0.367-0.025,0.464c0.994-0.274,2.358-1.147,2.027-2.551
			c-0.098-0.417-0.393-0.639-0.656-0.92c0.033-0.2,0.132-0.278,0.125-0.497c-0.007-0.151-0.136-0.292-0.125-0.431
			c0.008-0.079,0.131-0.255,0.182-0.369c0.233-0.528,0.276-1.199,0.019-1.935c0.09-0.054,0.239-0.057,0.295-0.143
			c0.192-0.632,0.396-1.386,0.038-2.064c-0.096-0.18-0.344-0.366-0.383-0.572c-0.06-0.3,0.097-0.805-0.063-1.156
			c-1.138-0.499-2.141-1.148-3.48-1.416c-0.002-0.269,0.12-0.426,0.139-0.676c-0.904-0.626-1.952-1.088-3.124-1.408
			c-0.095-1.415-0.823-2.588-1.9-2.974c0.079,0.169,0.306,0.785,0.072,0.905c-0.7,0.387-1.327-1.054-3.015-2.063
			c-2.716-1.529-5.766-0.277-6.359,1.404c0.14-0.48,3.139-3.75,6.989,0.731c-0.955-0.708-2.673-1.209-5.329-0.279
			c2.081-0.267,4.342,0.634,5.024,1.661C52.585,26.839,47.439,25.827,44.479,30.036 M64.806,34.943
			c-0.157-0.411-0.269-0.873-0.399-1.317C65.146,32.802,65.146,34.581,64.806,34.943 M64.608,37.299
			c-0.082-0.281-0.143-0.586-0.32-0.758c-0.054,0.185-0.091,0.388-0.225,0.503c-0.112-0.144-0.219-0.296-0.397-0.367
			c0.007,0.52-0.17,0.868-0.388,1.18c-0.106-0.415-0.215-0.829-0.368-1.192c-0.098,0.09-0.137,0.231-0.261,0.296
			c-0.15-0.1-0.212-0.302-0.373-0.39c-0.109,0.053-0.112,0.203-0.266,0.218c-0.181-0.339-0.43-0.602-0.582-0.974
			c1.005,0.191,2.54,0.977,3.326,0.033C64.931,36.323,64.896,37.031,64.608,37.299 M64.776,39.48
			c-0.744,0.26-2.034,0.417-2.712,0.141c0.257-0.205,0.446-0.469,0.721-0.655c0.076,0.084,0.119,0.207,0.192,0.298
			c0.179-0.185,0.291-0.431,0.443-0.641c0.102,0.236,0.243,0.434,0.316,0.704c0.176-0.072,0.209-0.278,0.411-0.33
			c0.066,0.097,0.139,0.187,0.264,0.219c0.083-0.199,0.128-0.436,0.27-0.581C64.779,38.861,64.852,39.208,64.776,39.48
			 M55.86,43.528c-0.683,4.364-2.411,7.357-5.956,4.959C53.979,49.518,55.86,43.528,55.86,43.528 M50.586,42.587
			c0,0,2.433-0.245,3.666-1.648C54.252,40.939,54.456,43.019,50.586,42.587 M54.265,43.586c0.474-1.257,1.215-1.961,1.981-2.146
			c0.277-0.068-1.348,0.371-1.437,2.946C54.784,46.385,53,47.172,53,47.172C54.365,46.116,53.792,45.053,54.265,43.586
			 M51.271,29.725c1.438-0.244,2.465,0.212,3.125,0.945c0.506-0.357,1.039-0.766,1.816-0.867c1.06-0.138,2.11,0.236,2.964,0.309
			c-0.17-0.26-0.384-0.471-0.521-0.77c0.431,0.086,0.877,0.18,1.277,0.319c0.39,0.135,0.812,0.263,1.065,0.563
			c-0.118,0.225-0.396,0.432-0.443,0.641c1.453,0.189,2.718,0.597,3.676,1.356c-0.511,0.7-1.929,0.568-2.796,0.943
			c0.187,0.45,0.383,0.892,0.815,1.065c0.119-0.329,0.282-0.618,0.723-0.579c0.707,0.061,1.205,1.227,1.163,1.897
			c-0.625,0.265-1.28,0.127-1.917-0.03c-0.623-0.153-1.242-0.447-1.862-0.418c-0.195,0.009-0.42,0.063-0.542,0.183
			c-0.374,0.361-0.487,1.511-0.403,2.34c0.1,0.976,0.446,1.754,1.094,2.03c-0.644-0.665-0.955-2.404-0.409-3.328
			c-0.208,2.005,0.651,3.444,1.982,3.967c-0.45,0.047-0.733-0.094-1.043-0.203c0.75,0.59,2.123,0.474,3.446,0.414
			c-0.931,0.47-2.881,1.243-4.043,1.083c-0.054,0.403-0.314,0.8-0.591,1.117c0.733,0.893,0.433,2.41-0.993,4.034
			c0.967-1.642,0.898-2.903,0.658-3.687c-1.865,1.552-1.702,2.178-1.641,2.292c0-0.002,0-0.003-0.002-0.003
			c-0.43-0.445,0.194-1.417,1.108-3.125c0.239-0.447,0.296-0.812,0.276-1.096c-0.094-0.177-0.065-0.434-0.211-0.558
			C58,40.689,56.1,41.016,55.937,40.273c-0.219-1.018-0.168-2.2,0-2.494c0.285-0.487,1.279-0.96,1.15-1.661
			c-1.616,0.416-2.894-0.206-4.044-0.743c-1.073-0.498-2.155-0.752-3.594-0.74c0.531-0.259,1.088-0.47,1.812-0.506
			c1.141-0.058,1.974,0.254,2.824,0.522c0.569,0.181,1.175,0.456,1.805,0.318c-0.797-0.567-1.654-0.828-1.966-1.879
			c-0.108-0.365-0.058-0.754-0.165-1.177C53.441,30.668,52.432,29.946,51.271,29.725"/>
	</g>
</g>
</svg>
