<?xml version="1.0" encoding="utf-8"?>
<!-- Generator: Adobe Illustrator 16.0.3, SVG Export Plug-In . SVG Version: 6.00 Build 0)  -->
<!DOCTYPE svg PUBLIC "-//W3C//DTD SVG 1.1//EN" "http://www.w3.org/Graphics/SVG/1.1/DTD/svg11.dtd">
<svg version="1.1" id="Layer_1" xmlns="http://www.w3.org/2000/svg" xmlns:xlink="http://www.w3.org/1999/xlink" x="0px" y="0px"
	 width="45px" height="45px" viewBox="0 0 45 45" enable-background="new 0 0 45 45" xml:space="preserve">
<g>
	<g>
		<g>
			<g>
				<g>
					<g>
						<defs>
							<rect id="SVGID_1_" x="2.011" y="1.248" width="40.978" height="42.505"/>
						</defs>
						<clipPath id="SVGID_2_">
							<use xlink:href="#SVGID_1_"  overflow="visible"/>
						</clipPath>
						<path clip-path="url(#SVGID_2_)" fill="#FFFFFF" d="M35.346,14.53c0,7.251-5.839,13.129-13.04,13.129
							c-7.202,0-13.04-5.878-13.04-13.129c0-7.25,5.838-13.128,13.04-13.128C29.507,1.402,35.346,7.28,35.346,14.53"/>
						<path clip-path="url(#SVGID_2_)" fill="#31742D" d="M22.285,1.248c-7.386,0-13.373,5.991-13.373,13.38
							c0,7.391,5.987,13.381,13.373,13.381s13.373-5.99,13.373-13.381C35.658,7.239,29.671,1.248,22.285,1.248 M22.6,26.662
							c-6.777,0-12.272-5.531-12.272-12.354c0-6.823,5.495-12.355,12.272-12.355c6.776,0,12.271,5.532,12.271,12.355
							C34.87,21.131,29.376,26.662,22.6,26.662"/>
						<path clip-path="url(#SVGID_2_)" fill="#31742D" d="M18.609,22.548c-0.502-0.32-1.238-0.901-1.238-0.901
							c-0.097-0.076-0.243-0.067-0.326,0.018l-0.141,0.147c-0.084,0.085-0.072,0.217,0.023,0.292c0,0,0.687,0.537,1.156,0.837
							c0.117,0.075,0.164,0.104,0.164,0.104c0.105,0.063,0.24,0.032,0.302-0.071l0.091-0.152c0.061-0.103,0.068-0.212,0.016-0.243"
							/>
						<path clip-path="url(#SVGID_2_)" fill="#31742D" d="M25.226,24.606c-0.121,0-0.233,0.08-0.248,0.176
							c-0.015,0.097,0.071,0.172,0.192,0.166l1.35-0.121c0.121-0.015,0.22-0.083,0.22-0.153c0.001-0.069-0.097-0.118-0.217-0.111"/>
						<path clip-path="url(#SVGID_2_)" fill="#31742D" d="M20.588,23.829c0.038-0.113-0.021-0.247-0.134-0.297l-1.112-0.554
							c-0.107-0.057-0.246-0.021-0.307,0.082l-0.086,0.144c-0.062,0.103-0.022,0.23,0.088,0.286l1.239,0.575
							c0.112,0.047,0.235-0.006,0.273-0.12"/>
						<path clip-path="url(#SVGID_2_)" fill="#31742D" d="M22.536,24.474c0.03-0.116-0.041-0.238-0.158-0.27l-1.085-0.338
							c-0.116-0.039-0.24,0.021-0.278,0.134l-0.033,0.1c-0.038,0.113,0.026,0.234,0.143,0.27l1.131,0.304
							c0.118,0.027,0.24-0.045,0.271-0.16"/>
						<path clip-path="url(#SVGID_2_)" fill="#31742D" d="M12.89,10.111c0.077,0.018,0.167-0.062,0.2-0.176l0.287-0.885
							c0.043-0.112,0.03-0.22-0.025-0.24c-0.055-0.021-0.139,0.053-0.186,0.163l-0.348,0.902
							C12.78,9.986,12.812,10.093,12.89,10.111"/>
						<path clip-path="url(#SVGID_2_)" fill="#31742D" d="M12.798,14.828c0.118-0.025,0.197-0.143,0.176-0.262l-0.199-1.554
							c-0.01-0.12-0.112-0.22-0.229-0.223c-0.116-0.001-0.208,0.097-0.204,0.216l0.143,1.665c0.017,0.12,0.126,0.197,0.243,0.172"/>
						<path clip-path="url(#SVGID_2_)" fill="#31742D" d="M13.545,8.399c0.049,0.018,0.134-0.055,0.188-0.161l0.303-0.56
							c0.061-0.103,0.083-0.202,0.049-0.219c-0.032-0.018-0.113,0.048-0.18,0.147c0,0-0.027,0.04-0.098,0.152
							c-0.126,0.199-0.247,0.418-0.247,0.418C13.502,8.282,13.495,8.381,13.545,8.399"/>
						<path clip-path="url(#SVGID_2_)" fill="#31742D" d="M12.551,12.336c0.11,0.002,0.206-0.095,0.213-0.215l0.136-1.321
							c0.018-0.118-0.036-0.232-0.12-0.25c-0.083-0.019-0.17,0.061-0.194,0.179l-0.213,1.387
							C12.359,12.235,12.44,12.334,12.551,12.336"/>
						<path clip-path="url(#SVGID_2_)" fill="#31742D" d="M15.201,6.067c0.009,0.01,0.085-0.052,0.168-0.137l0.479-0.457
							c0.089-0.08,0.086-0.083-0.006-0.007l-0.499,0.437C15.256,5.984,15.191,6.059,15.201,6.067"/>
						<path clip-path="url(#SVGID_2_)" fill="#31742D" d="M27.065,24.625c-0.002,0.063,0.093,0.089,0.208,0.057l1.301-0.327
							c0.108-0.05,0.105-0.057-0.006-0.014l-1.287,0.124C27.163,24.49,27.066,24.562,27.065,24.625"/>
						<path clip-path="url(#SVGID_2_)" fill="#31742D" d="M24.518,24.767c0.016-0.104-0.07-0.198-0.191-0.213l-1.07-0.151
							c-0.119-0.021-0.243,0.056-0.272,0.172l-0.006,0.021c-0.03,0.116,0.043,0.224,0.163,0.239l1.129,0.108
							C24.39,24.949,24.502,24.87,24.518,24.767"/>
						<path clip-path="url(#SVGID_2_)" fill="#31742D" d="M14.342,7.087c0.027,0.015,0.106-0.052,0.177-0.147l0.348-0.449
							c0.075-0.092,0.126-0.177,0.114-0.189c-0.012-0.013-0.087,0.05-0.166,0.138l-0.387,0.454
							C14.353,6.985,14.313,7.073,14.342,7.087"/>
						<path clip-path="url(#SVGID_2_)" fill="#31742D" d="M13.648,17.29c0.11-0.046,0.162-0.175,0.114-0.288l-0.576-1.564
							c-0.036-0.116-0.163-0.19-0.28-0.166l-0.087,0.019c-0.118,0.024-0.187,0.141-0.154,0.257l0.559,1.676
							c0.044,0.114,0.171,0.169,0.282,0.124"/>
						<path clip-path="url(#SVGID_2_)" fill="#31742D" d="M16.698,21.362c0.082-0.085,0.078-0.225-0.009-0.311l-1.137-1.198
							c-0.08-0.093-0.225-0.11-0.322-0.041l-0.165,0.118c-0.097,0.07-0.11,0.203-0.03,0.296l1.209,1.286
							c0.087,0.085,0.228,0.085,0.31,0"/>
						<path clip-path="url(#SVGID_2_)" fill="#31742D" d="M14.948,19.448c0.098-0.07,0.12-0.21,0.051-0.31l-0.835-1.33
							c-0.062-0.105-0.201-0.155-0.313-0.109l-0.153,0.064c-0.11,0.046-0.152,0.171-0.094,0.278l0.885,1.463
							c0.067,0.102,0.202,0.128,0.299,0.059"/>
						<path clip-path="url(#SVGID_2_)" fill="#31742D" d="M12.75,8.07c0.062,0.021,0.159-0.04,0.218-0.137l0.449-0.676
							c0.065-0.093,0.086-0.186,0.046-0.208c-0.039-0.021-0.129,0.034-0.199,0.123l-0.506,0.69C12.694,7.955,12.69,8.049,12.75,8.07
							"/>
						<path clip-path="url(#SVGID_2_)" fill="#31742D" d="M21.817,25.659c0.028-0.102-0.039-0.206-0.149-0.231l-1.178-0.315
							c-0.109-0.033-0.229,0.027-0.266,0.135l-0.018,0.053c-0.037,0.107,0.022,0.217,0.132,0.245l1.226,0.262
							C21.676,25.828,21.791,25.761,21.817,25.659"/>
						<path clip-path="url(#SVGID_2_)" fill="#31742D" d="M23.928,25.828c0.012-0.071-0.071-0.134-0.185-0.139l-1.237-0.112
							c-0.111-0.014-0.226,0.053-0.252,0.149c-0.026,0.095,0.046,0.18,0.158,0.187l1.288,0.042
							C23.813,25.955,23.916,25.897,23.928,25.828"/>
						<path clip-path="url(#SVGID_2_)" fill="#31742D" d="M19.813,25.101c0.037-0.106-0.019-0.23-0.123-0.275l-1.448-0.682
							c-0.1-0.052-0.23-0.016-0.288,0.081l-0.084,0.137c-0.058,0.097-0.021,0.216,0.08,0.264l1.578,0.669
							c0.106,0.039,0.223-0.016,0.26-0.124"/>
						<path clip-path="url(#SVGID_2_)" fill="#31742D" d="M15.561,22.798c-0.079,0.082-0.071,0.205,0.02,0.274l1.626,1.145
							c0.095,0.061,0.222,0.031,0.279-0.066l0.089-0.148c0.059-0.098,0.029-0.228-0.064-0.291c0,0-0.965-0.646-1.499-1.101
							l-0.05-0.042c-0.054-0.046-0.161-0.019-0.239,0.063"/>
						<path clip-path="url(#SVGID_2_)" fill="#31742D" d="M11.46,15.052c0.11-0.025,0.191-0.138,0.179-0.25l-0.104-1.875
							c0-0.114-0.094-0.207-0.207-0.207h-0.062c-0.113-0.001-0.209,0.091-0.213,0.204l0.042,2.002
							c0.008,0.113,0.105,0.185,0.216,0.16"/>
						<path clip-path="url(#SVGID_2_)" fill="#31742D" d="M24.6,25.688c-0.113,0.006-0.214,0.063-0.225,0.126
							c-0.011,0.063,0.072,0.103,0.185,0.088l1.541-0.261c0.11-0.023,0.202-0.066,0.203-0.091c0-0.027-0.091-0.035-0.203-0.019"/>
						<path clip-path="url(#SVGID_2_)" fill="#31742D" d="M13.831,6.522c-0.079,0.081-0.115,0.163-0.08,0.182
							s0.087,0.004,0.115-0.031l0.027-0.032c0.252-0.295,0.648-0.685,0.648-0.685c0.081-0.08,0.136-0.157,0.121-0.173
							c-0.016-0.015-0.096,0.034-0.181,0.11"/>
						<path clip-path="url(#SVGID_2_)" fill="#31742D" d="M11.901,9.842c0.089,0.019,0.195-0.052,0.234-0.158l0.423-0.997
							c0.049-0.102,0.034-0.205-0.031-0.228c-0.066-0.022-0.162,0.041-0.215,0.14l-0.491,1.018
							C11.775,9.72,11.812,9.822,11.901,9.842"/>
						<path clip-path="url(#SVGID_2_)" fill="#31742D" d="M14.9,5.579c0.013,0.013,0.095-0.035,0.183-0.106l0.836-0.626
							c0.094-0.064,0.092-0.067-0.004-0.007l-0.87,0.594C14.953,5.501,14.889,5.566,14.9,5.579"/>
						<path clip-path="url(#SVGID_2_)" fill="#31742D" d="M15.396,22.337c0.079-0.082,0.078-0.214,0-0.296l-1.274-1.422
							c-0.071-0.088-0.205-0.105-0.296-0.039l-0.207,0.151c-0.091,0.067-0.107,0.193-0.035,0.281l1.361,1.498
							c0.079,0.08,0.209,0.079,0.288-0.003"/>
						<path clip-path="url(#SVGID_2_)" fill="#31742D" d="M13.568,20.226c0.092-0.068,0.117-0.201,0.057-0.297l-0.949-1.669
							c-0.052-0.102-0.178-0.147-0.282-0.104l-0.214,0.092c-0.105,0.045-0.149,0.165-0.099,0.267l1.005,1.809
							c0.061,0.096,0.185,0.121,0.275,0.053"/>
						<path clip-path="url(#SVGID_2_)" fill="#31742D" d="M11.355,12.28c0.113,0.001,0.219-0.092,0.233-0.204l0.294-1.578
							c0.027-0.11-0.029-0.217-0.125-0.238c-0.096-0.02-0.198,0.052-0.229,0.161l-0.384,1.657c-0.021,0.111,0.057,0.203,0.17,0.203"
							/>
						<path clip-path="url(#SVGID_2_)" fill="#31742D" d="M12.221,17.754c0.104-0.045,0.158-0.169,0.121-0.276l-0.554-1.839
							c-0.027-0.11-0.141-0.18-0.25-0.155l-0.163,0.037c-0.111,0.025-0.182,0.136-0.156,0.247l0.54,1.96
							c0.036,0.107,0.149,0.159,0.254,0.114"/>
						<path clip-path="url(#SVGID_2_)" fill="#31742D" d="M21.492,22.262c-0.516,0.061,1.262-2.571,0.854-4.479
							c-0.34-1.591-2.659-4.563-3.14-4.285c-0.354,0.207,0.611,2.255-0.385,2.967c-1.229,0.705-1.455-0.457-1.867-0.593
							c-0.311-0.103-1.736,0.693-2-0.478c-0.293-1.298,1.493-1.542,1.394-2.055c-0.093-0.48-1.807,0.093-2.092-0.824
							c-0.319-1.138,0.764-1.23,0.883-1.47c0.239-0.479-0.259-1.569,0.811-1.988c1.496-0.584,1.337,1.775,2.093,1.51
							c0.453-0.159-0.743-2.607,0.315-2.956c1.387-0.458,1.434,1.061,1.873,1.221c0.479,0.17,0.76-0.318,1.397,0.322
							c1.132,1.133-1.862,2.489-1.664,3.148c0.099,0.326,1.389,0.439,3.045-0.047c1.567-0.478,2.528-1.394,2.334-1.668
							c-0.348-0.492-2.619-0.149-3.006-1.117c-0.389-0.968,0.577-1.314,0.751-1.617c0.158-0.304,0.17-1.505,1.302-1.633
							c1.297-0.146,1.283,1.116,1.666,1.116c0.443-0.001,0.093-1.948,1.615-1.948c1.104,0,0.996,0.805,1.23,0.965
							c0.281,0.191,1.013-0.619,1.675,0.306c0.658,1.143-1.663,1.841-1.675,2.28c-0.011,0.422,1.943,0.282,2.083,1.578
							c0.041,0.651-0.316,1.048-0.913,1.433c-0.38,0.26,0.1,1.216-1.718,1.456c-1.034,0.138-1.476-0.344-1.606-1.495
							c-0.067-0.592-0.28-0.404-0.559-0.233c-0.227,0.139-0.931,0.918-3.31,1.805c2.025,1.05,2.503,1.13,4.547,2.541
							c0,0-0.723-2.306,1.503-2.247c0.686,0.019,1.053,0.865,1.558,1.077c1.045,0.254,1.559,0.111,1.811,0.754
							c0.499,1.274-1.149,1.871-1.022,2.307c0.155,0.437,1.616-0.049,1.616,0.811c0,0.995-0.981,0.959-1.245,1.563
							c-0.258,0.589-0.158,1.788-1.27,1.788c-1.629,0-1.162-1.911-1.695-1.908c-0.438,0-0.544,2.621-2.278,2.414
							c-0.915-0.212-0.535-0.681-1.021-1.17c-0.35-0.348-0.76-0.167-0.987-0.682c-0.771-1.737,2.423-2.595,2.738-2.687
							c0.397-0.114,0.082-0.381-0.175-0.708c-1.401-1.789-4.555-2.904-4.913-2.999c-0.252-0.066-0.346,0.074-0.133,0.407
							c0.516,0.808,1.855,2.518,1.694,4.361c-0.161,1.843-0.422,2.38-0.422,2.38c-0.048,0.136-0.068,0.155-0.171,0.199"/>
						<g clip-path="url(#SVGID_2_)">
							<defs>
								<path id="SVGID_3_" d="M21.439,21.639c-0.515,0.061,1.263-2.571,0.855-4.479c-0.339-1.591-2.658-4.563-3.14-4.284
									c-0.354,0.206,0.612,2.254-0.385,2.966c-1.229,0.705-1.455-0.456-1.867-0.592c-0.31-0.102-1.736,0.694-2.001-0.478
									c-0.292-1.297,1.494-1.542,1.395-2.056c-0.092-0.479-1.807,0.094-2.093-0.823c-0.318-1.139,0.766-1.23,0.885-1.47
									c0.239-0.479-0.259-1.57,0.811-1.987c1.496-0.585,1.336,1.775,2.093,1.508c0.452-0.158-0.743-2.606,0.314-2.955
									c1.387-0.458,1.434,1.061,1.872,1.221c0.48,0.17,0.76-0.317,1.398,0.322c1.13,1.133-1.863,2.49-1.663,3.148
									c0.098,0.326,1.389,0.438,3.044-0.048c1.567-0.478,2.527-1.393,2.334-1.668c-0.349-0.491-2.619-0.149-3.007-1.117
									c-0.388-0.968,0.58-1.314,0.752-1.616c0.159-0.305,0.17-1.506,1.303-1.635c1.296-0.145,1.282,1.117,1.666,1.117
									c0.443-0.001,0.093-1.949,1.616-1.949c1.102,0,0.994,0.805,1.229,0.965c0.279,0.192,1.011-0.619,1.674,0.305
									c0.658,1.144-1.663,1.842-1.674,2.281c-0.012,0.423,1.942,0.282,2.083,1.579c0.039,0.65-0.317,1.048-0.914,1.432
									c-0.379,0.261,0.101,1.216-1.718,1.458c-1.033,0.137-1.476-0.344-1.606-1.496c-0.067-0.591-0.278-0.404-0.559-0.233
									c-0.227,0.139-0.931,0.918-3.309,1.805c2.025,1.05,2.502,1.13,4.546,2.542c0,0-0.724-2.307,1.503-2.247
									c0.687,0.02,1.054,0.864,1.559,1.077c1.045,0.253,1.558,0.111,1.81,0.753c0.498,1.275-1.149,1.873-1.022,2.308
									c0.155,0.438,1.618-0.049,1.618,0.811c0,0.995-0.983,0.959-1.246,1.563c-0.259,0.59-0.159,1.788-1.271,1.788
									c-1.629,0-1.16-1.911-1.695-1.908c-0.438,0-0.544,2.621-2.278,2.413c-0.916-0.212-0.533-0.681-1.022-1.169
									c-0.348-0.349-0.758-0.167-0.986-0.682c-0.771-1.736,2.425-2.595,2.739-2.687c0.397-0.114,0.082-0.38-0.175-0.707
									c-1.402-1.789-4.556-2.904-4.913-2.999c-0.253-0.066-0.347,0.073-0.134,0.406c0.517,0.808,1.854,2.518,1.694,4.362
									c-0.159,1.843-0.421,2.379-0.421,2.379c-0.048,0.137-0.067,0.156-0.171,0.199"/>
							</defs>
							<clipPath id="SVGID_4_">
								<use xlink:href="#SVGID_3_"  overflow="visible"/>
							</clipPath>
							
								<radialGradient id="SVGID_5_" cx="-530.6367" cy="574.0723" r="0.9992" gradientTransform="matrix(8.9808 0 0 -8.9858 4789.0156 5171.8403)" gradientUnits="userSpaceOnUse">
								<stop  offset="0" style="stop-color:#AFCA0B"/>
								<stop  offset="0.1" style="stop-color:#AFCA0B"/>
								<stop  offset="0.2574" style="stop-color:#80AA18"/>
								<stop  offset="0.5" style="stop-color:#31742D"/>
								<stop  offset="1" style="stop-color:#31742D"/>
							</radialGradient>
							<rect x="13.886" y="4.764" clip-path="url(#SVGID_4_)" fill="url(#SVGID_5_)" width="18.956" height="17.402"/>
						</g>
						<path clip-path="url(#SVGID_2_)" fill="none" stroke="#FFFFFF" stroke-width="0.2145" stroke-miterlimit="3.864" d="
							M21.439,21.639c-0.515,0.061,1.263-2.571,0.855-4.479c-0.339-1.591-2.658-4.563-3.14-4.284
							c-0.354,0.206,0.612,2.254-0.385,2.966c-1.229,0.705-1.455-0.456-1.867-0.592c-0.31-0.102-1.736,0.694-2.001-0.478
							c-0.292-1.297,1.494-1.542,1.395-2.056c-0.092-0.479-1.807,0.094-2.093-0.823c-0.318-1.139,0.766-1.23,0.885-1.47
							c0.239-0.479-0.259-1.57,0.811-1.987c1.496-0.585,1.336,1.775,2.093,1.508c0.452-0.157-0.743-2.606,0.314-2.955
							c1.387-0.458,1.434,1.061,1.872,1.221c0.48,0.17,0.76-0.317,1.398,0.322c1.13,1.133-1.863,2.49-1.663,3.148
							c0.098,0.326,1.389,0.438,3.044-0.048c1.567-0.478,2.527-1.393,2.334-1.668c-0.348-0.491-2.619-0.149-3.007-1.117
							c-0.388-0.968,0.58-1.314,0.752-1.616c0.159-0.305,0.17-1.506,1.303-1.635c1.296-0.145,1.282,1.117,1.666,1.117
							c0.443-0.001,0.093-1.949,1.616-1.949c1.102,0,0.994,0.805,1.229,0.965c0.279,0.191,1.011-0.619,1.674,0.305
							c0.658,1.144-1.663,1.842-1.674,2.281c-0.012,0.423,1.942,0.282,2.083,1.579c0.039,0.65-0.317,1.048-0.914,1.432
							c-0.379,0.261,0.101,1.216-1.718,1.458c-1.033,0.137-1.476-0.344-1.606-1.496c-0.067-0.591-0.278-0.404-0.559-0.233
							c-0.227,0.139-0.931,0.918-3.309,1.805c2.025,1.05,2.502,1.13,4.546,2.542c0,0-0.724-2.307,1.503-2.247
							c0.687,0.02,1.054,0.864,1.559,1.077c1.045,0.253,1.558,0.111,1.81,0.753c0.498,1.275-1.149,1.873-1.022,2.308
							c0.155,0.438,1.618-0.049,1.618,0.811c0,0.995-0.983,0.959-1.246,1.563c-0.259,0.59-0.159,1.788-1.271,1.788
							c-1.629,0-1.16-1.911-1.695-1.908c-0.438,0-0.544,2.621-2.278,2.413c-0.916-0.212-0.533-0.681-1.022-1.169
							c-0.348-0.349-0.758-0.167-0.986-0.682c-0.771-1.736,2.425-2.595,2.739-2.687c0.397-0.114,0.082-0.38-0.175-0.707
							c-1.402-1.789-4.556-2.904-4.913-2.999c-0.253-0.066-0.347,0.073-0.134,0.406c0.517,0.808,1.854,2.518,1.694,4.361
							c-0.159,1.844-0.421,2.38-0.421,2.38c-0.048,0.137-0.067,0.155-0.171,0.199L21.439,21.639z"/>
						<path clip-path="url(#SVGID_2_)" fill="#0F265C" d="M12.65,35.31h-1.543c-0.764,0-1.13-0.106-1.476-0.439
							c-0.379-0.366-0.586-0.978-0.586-1.769c0-0.999,0.353-1.736,0.979-2.029c0.252-0.12,0.691-0.199,1.123-0.199h1.503v0.79
							h-1.389c-0.44,0-0.753,0.119-0.945,0.359c-0.146,0.179-0.227,0.532-0.227,0.991c0,0.652,0.141,1.111,0.406,1.304
							c0.173,0.133,0.438,0.2,0.798,0.2h1.356"/>
						<path clip-path="url(#SVGID_2_)" fill="#0F265C" d="M14.267,32.835v-1.171h1.322c0.16,0,0.28,0.013,0.353,0.034
							c0.206,0.073,0.326,0.259,0.326,0.524c0,0.433-0.192,0.613-0.679,0.613 M14.267,33.626h0.758c0.838,0,1.117,0.246,1.203,1.051
							c0.008,0.087,0.026,0.273,0.04,0.393c0.014,0.1,0.02,0.14,0.054,0.24h1.057c-0.06-0.167-0.072-0.26-0.106-0.672
							c-0.033-0.691-0.284-1.091-0.804-1.231c0.571-0.199,0.844-0.618,0.844-1.297c0-0.406-0.18-0.764-0.491-0.977
							c-0.267-0.186-0.659-0.259-1.33-0.259h-2.168v4.436h0.944V33.626z"/>
						<rect x="18.076" y="30.874" clip-path="url(#SVGID_2_)" fill="#0F265C" width="0.945" height="4.436"/>
						<path clip-path="url(#SVGID_2_)" fill="#0F265C" d="M23.29,35.31h-1.543c-0.765,0-1.13-0.106-1.477-0.439
							c-0.378-0.366-0.585-0.978-0.585-1.769c0-0.999,0.353-1.736,0.978-2.029c0.253-0.12,0.691-0.199,1.124-0.199h1.503v0.79H21.9
							c-0.439,0-0.751,0.119-0.944,0.359c-0.146,0.179-0.227,0.532-0.227,0.991c0,0.652,0.141,1.111,0.405,1.304
							c0.173,0.133,0.439,0.2,0.799,0.2h1.356"/>
						<path clip-path="url(#SVGID_2_)" fill="#0F265C" d="M24.876,35.31h-0.943v-4.436h0.943 M26.604,30.874h1.236l-1.848,2.187
							l1.762,2.25H26.51l-1.602-2.25L26.604,30.874z"/>
						<path clip-path="url(#SVGID_2_)" fill="#0F265C" d="M31.637,31.664h-1.229c-0.639,0-0.877,0.073-1.07,0.326
							c-0.133,0.18-0.16,0.28-0.193,0.718h2.493v0.793h-2.493c0.066,0.758,0.399,1.018,1.303,1.018h1.19v0.792h-1.229
							c-0.944,0-1.396-0.126-1.749-0.499c-0.379-0.393-0.585-1.011-0.585-1.75c0-0.784,0.259-1.41,0.751-1.828
							c0.313-0.267,0.618-0.359,1.217-0.359h1.596"/>
						<polyline clip-path="url(#SVGID_2_)" fill="#0F265C" points="31.964,31.664 31.964,30.874 35.785,30.874 35.785,31.664 
							34.324,31.664 34.324,35.31 33.38,35.31 33.38,31.664 						"/>
						<rect x="2.011" y="37.271" clip-path="url(#SVGID_2_)" fill="#0F265C" width="1.379" height="6.482"/>
						<path clip-path="url(#SVGID_2_)" fill="#0F265C" d="M6.09,40.137v-1.711h1.933c0.233,0,0.408,0.019,0.515,0.049
							c0.301,0.107,0.476,0.378,0.476,0.768c0,0.632-0.282,0.894-0.99,0.894 M6.09,41.293h1.108c1.224,0,1.63,0.36,1.756,1.537
							c0.01,0.126,0.039,0.398,0.059,0.573c0.02,0.146,0.029,0.205,0.077,0.351h1.545c-0.088-0.243-0.106-0.38-0.154-0.982
							c-0.049-1.011-0.418-1.594-1.176-1.798c0.835-0.292,1.233-0.904,1.233-1.895c0-0.594-0.263-1.118-0.72-1.43
							c-0.388-0.271-0.961-0.378-1.94-0.378H4.711v6.482H6.09V41.293z"/>
						<path clip-path="url(#SVGID_2_)" fill="#0F265C" d="M16.512,38.426h-1.797c-0.933,0-1.282,0.108-1.563,0.477
							c-0.195,0.262-0.233,0.407-0.282,1.05h3.643v1.156h-3.643c0.098,1.107,0.584,1.487,1.904,1.487h1.738v1.157h-1.797
							c-1.379,0-2.039-0.185-2.555-0.729c-0.554-0.573-0.855-1.477-0.855-2.557c0-1.147,0.38-2.061,1.098-2.673
							c0.457-0.389,0.903-0.524,1.778-0.524h2.331"/>
						<path clip-path="url(#SVGID_2_)" fill="#0F265C" d="M18.912,37.271v3.634c0.048,1.127,0.067,1.185,0.319,1.409
							c0.253,0.224,0.545,0.282,1.418,0.282h1.322v1.157h-1.468c-0.912,0-1.126-0.02-1.457-0.106
							c-0.66-0.175-1.155-0.623-1.359-1.245c-0.098-0.292-0.156-0.827-0.156-1.497v-3.634"/>
						<path clip-path="url(#SVGID_2_)" fill="#0F265C" d="M25.852,38.825l0.922,2.265H24.93 M22.376,43.753h1.622l0.621-1.507h2.466
							l0.622,1.507h1.612l-2.681-6.482h-1.583L22.376,43.753z"/>
						<polyline clip-path="url(#SVGID_2_)" fill="#0F265C" points="31.33,43.753 30.018,43.753 30.018,37.271 31.776,37.271 
							34.36,42.101 34.36,37.271 35.672,37.271 35.672,43.753 33.982,43.753 31.33,39 						"/>
						<path clip-path="url(#SVGID_2_)" fill="#0F265C" d="M38.373,38.426h1.368c0.555,0,0.876,0.087,1.138,0.302
							c0.358,0.301,0.592,1,0.592,1.789c0,0.67-0.175,1.312-0.446,1.652c-0.233,0.282-0.681,0.428-1.283,0.428h-1.368
							 M36.993,37.271v6.482h2.748c0.865,0,1.234-0.029,1.593-0.146c0.7-0.214,1.138-0.641,1.38-1.361
							c0.167-0.476,0.273-1.156,0.273-1.72c0-0.953-0.254-1.895-0.643-2.362c-0.504-0.631-1.262-0.893-2.604-0.893H36.993z"/>
					</g>
				</g>
			</g>
		</g>
	</g>
</g>
</svg>
