<?xml version="1.0" encoding="UTF-8" standalone="no"?>
<svg
   xmlns="http://www.w3.org/2000/svg"
   version="1.1"
   viewBox="2.521 9.591 391.141 554.508">
<path
     d="M 1.339,558.956 L 1.339,556.456 L 196.839,556.456 L 392.339,556.456 L 392.339,558.956 L 392.339,561.456 L 196.839,561.456 L 1.339,561.456 L 1.339,558.956 z M 193.096,543.485 C 172.976,539.833 155.023,526.715 147.205,509.956 C 142.364,499.579 140.904,492.226 140.95,478.456 C 141.022,456.767 145.642,444.882 159.227,431.431 C 168.954,421.8 177.426,416.96 190.896,413.337 C 204.544,409.667 240.142,410.667 245.909,414.884 C 247.41,415.982 247.367,416.952 245.368,427.017 C 241.999,443.978 241.517,445.456 239.361,445.456 C 237.328,445.456 237.048,444.315 235.562,429.97 C 234.564,420.335 233.71,419.952 213.338,419.972 C 199.438,419.988 197.234,420.23 191.994,422.329 C 175.526,428.927 164.573,445.317 162.496,466.474 C 157.902,513.249 188.954,540.482 235.338,530.357 C 248.225,527.544 248.777,527.535 249.15,530.152 C 249.552,532.976 242.153,537.394 230.838,541.088 C 224.332,543.209 220.502,543.758 210.338,544.022 C 203.464,544.2 195.704,543.958 193.096,543.485 z M 22.024,540.807 C 21.647,540.43 21.339,539.311 21.339,538.317 C 21.339,537.003 22.764,536.092 26.589,534.969 C 29.476,534.119 32.405,533.067 33.097,532.627 C 34.089,531.996 34.301,520.178 34.097,476.895 L 33.839,421.963 L 27.839,419.836 C 22.932,418.096 21.839,417.301 21.839,415.475 L 21.839,413.243 L 51.339,412.858 C 69.57,412.622 83.094,412.879 86.744,413.538 C 100.878,416.083 109.256,421.517 114.027,431.231 C 116.557,436.385 116.833,437.954 116.781,446.956 C 116.709,459.515 114.377,466.065 107.173,473.948 C 99.389,482.464 89.078,486.68 72.695,488.048 C 65.217,488.671 64.437,488.556 62.409,486.528 C 61.155,485.272 60.348,483.395 60.527,482.145 C 60.809,480.159 61.579,479.903 68.839,479.383 C 87.279,478.063 95.649,468.883 95.67,449.955 C 95.685,436.75 91.775,428.793 83.086,424.336 C 78.296,421.881 65.21,420.154 59.339,421.205 L 54.839,422.012 L 54.839,476.957 L 54.839,531.904 L 61.839,534.455 C 67.28,536.439 68.839,537.445 68.839,538.98 C 68.839,540.882 67.983,540.964 45.774,541.222 C 33.087,541.372 22.4,541.184 22.024,540.807 z M 273.943,539.866 C 273.033,537.493 273.85,536.776 279.601,534.901 C 282.482,533.96 285.402,532.747 286.089,532.202 C 288.057,530.643 287.894,424.153 285.92,422.181 C 285.14,421.4 282.448,420.187 279.939,419.486 C 274.699,418.017 272.421,415.974 274.126,414.271 C 274.859,413.537 285.259,413.033 305.293,412.757 C 330.45,412.413 336.369,412.605 341.553,413.933 C 353.507,416.996 360.524,422.103 364.157,430.384 C 366.291,435.245 366.158,448.675 363.927,453.775 C 361.739,458.775 354.891,466.134 350.202,468.527 C 348.152,469.572 346.228,470.828 345.927,471.316 C 345.626,471.804 347.978,473.15 351.155,474.31 C 358.791,477.093 364.584,482.216 368.029,489.232 C 370.487,494.238 370.838,496.089 370.817,503.957 C 370.797,511.539 370.38,513.848 368.169,518.605 C 364.826,525.8 359.053,531.564 351.241,535.507 C 340.973,540.691 335.061,541.419 303.197,541.439 C 277.925,541.454 274.481,541.268 273.943,539.866 z M 332.22,531.805 C 343.704,528.096 349.705,518.848 349.644,504.955 C 349.564,486.846 340.864,479.074 319.193,477.754 C 312,477.315 308.997,477.494 307.871,478.43 C 305.548,480.358 305.584,529.557 307.911,531.885 C 310.111,534.084 325.314,534.036 332.22,531.805 z M 329.212,467.901 C 335.616,465.999 341.391,460.563 343.112,454.815 C 343.787,452.565 344.339,447.61 344.339,443.801 C 344.339,432.211 339.331,425.221 328.938,422.299 C 322.96,420.617 308.373,420.793 307.254,422.559 C 306.269,424.114 305.988,465.379 306.945,467.873 C 307.771,470.024 322.007,470.04 329.212,467.901 z M 1.339,394.956 L 1.339,392.456 L 196.839,392.456 L 392.339,392.456 L 392.339,394.956 L 392.339,397.456 L 196.839,397.456 L 1.339,397.456 L 1.339,394.956 z"
     fill="#017a3d" />
<path
     d="M 307.535,369.206 C 302.862,365.843 295.889,361.06 292.039,358.577 C 288.188,356.095 271.089,343.628 254.039,330.874 C 209.17,297.311 199.238,290.321 196.407,290.321 C 193.436,290.321 189.718,292.733 172.344,305.925 C 159.698,315.527 123.425,340.937 98.538,357.628 C 92.213,361.87 84.446,367.208 81.279,369.489 C 78.111,371.77 75.252,373.37 74.925,373.042 C 74.598,372.716 76.83,364.882 79.886,355.634 C 82.942,346.388 87.921,330.497 90.952,320.321 C 93.983,310.147 101.205,287.655 107.001,270.34 C 112.796,253.025 117.538,238.342 117.538,237.713 C 117.538,237.083 112.475,232.742 106.288,228.066 C 100.101,223.39 87.641,213.848 78.6,206.862 C 69.559,199.876 57.86,191.195 52.6,187.571 C 17.449,163.355 5.295,154.221 6.787,153.141 C 6.924,153.041 38.488,152.704 76.929,152.391 C 137.607,151.897 146.933,151.624 147.672,150.322 C 149.315,147.428 170.639,85.978 175.55,69.984 C 183.914,42.748 195.74,9.223 196.853,9.594 C 198.027,9.986 205.172,31.006 228.204,101.822 C 236.791,128.222 244.326,150.379 244.95,151.06 C 245.832,152.022 262.566,152.306 319.986,152.335 C 360.632,152.355 393.471,152.742 392.963,153.194 C 392.455,153.646 382.813,160.24 371.538,167.847 C 360.263,175.454 345.187,185.624 338.038,190.448 C 307.817,210.835 272.14,235.944 271.174,237.505 C 270.381,238.788 271.346,242.708 275.237,254.005 C 281.362,271.784 306.825,343.843 313.084,361.109 C 317.667,373.755 318.075,375.322 316.784,375.322 C 316.371,375.321 312.208,372.569 307.535,369.206 z M 153.199,248.244 C 167.862,241.146 173.781,215.598 165.114,196.822 C 163.844,194.072 160.496,188.682 157.672,184.843 C 154.849,181.005 152.539,177.292 152.539,176.593 C 152.539,174.671 160.343,175.05 165.08,177.201 C 170.647,179.73 174.269,184.343 175.115,189.983 C 176.114,196.645 174.776,214.277 172.493,224.525 C 169.749,236.847 169.902,239.838 173.462,243.398 C 176.838,246.774 181.695,247.3 185.416,244.694 C 187.437,243.278 188.256,243.237 191.718,244.38 C 195.385,245.59 196.04,245.505 200.091,243.293 C 204.124,241.09 204.859,240.992 209.027,242.107 C 215.509,243.841 216.992,243.653 220.564,240.647 C 223.355,238.299 224.642,237.963 231.114,237.897 C 239.567,237.811 241.557,236.539 243.758,229.821 L 245.068,225.821 L 250.628,226.155 C 255.48,226.446 256.599,226.143 259.408,223.779 C 265.495,218.657 269.889,205.993 267.545,200.332 C 265.035,194.273 261.478,196.432 259.653,205.122 C 259.041,208.037 257.84,211.776 256.984,213.431 C 255.68,215.952 254.917,216.39 252.273,216.131 C 249.486,215.858 249.017,215.356 248.251,211.821 C 247.733,209.439 247.819,201.957 248.462,193.321 C 250.291,168.752 247.786,161.758 238.113,164.429 C 232.505,165.977 216.794,176.981 213.858,181.417 C 209.301,188.303 211.862,196.199 223.07,209.821 C 229.758,217.949 233.541,224.053 233.541,226.714 C 233.541,228.668 230.406,229.574 226.309,228.805 C 223.576,228.292 222.309,228.724 219.128,231.252 C 214.687,234.781 212.908,235.005 208.618,232.571 C 205.621,230.871 205.42,230.886 201.541,233.099 C 197.81,235.227 197.354,235.276 194.583,233.843 C 191.832,232.421 191.298,232.465 187.186,234.463 C 178.806,238.534 178.347,236.979 181.541,215.321 C 184.249,196.954 184.159,189.191 181.162,182.756 C 178.151,176.29 173.268,170.734 168.425,168.263 C 163.638,165.82 154.675,165.69 149.823,167.992 C 146.317,169.656 142.557,174.471 142.537,177.322 C 142.531,178.147 145.892,183.772 150.007,189.822 C 159.278,203.456 161.332,209.955 159.57,220.074 C 157.205,233.654 149.757,242.876 143.176,240.374 C 139.822,239.098 139.195,237.114 138.582,225.822 C 138.042,215.869 138.027,215.821 135.353,215.512 C 131.096,215.02 129.278,218.783 129.268,228.098 C 129.258,237.369 131.289,243.016 136.178,247.309 C 140.431,251.044 146.703,251.388 153.199,248.244 z M 231.649,205.879 C 223.859,196.076 220.307,189.982 220.715,187.118 C 220.945,185.5 223.477,183.318 229.481,179.563 C 234.124,176.659 238.399,174.442 238.981,174.637 C 240.233,175.056 239.807,211.324 238.534,212.677 C 238.091,213.146 234.993,210.087 231.649,205.879 z M 260.967,243.75 C 261.832,242.886 262.539,241.793 262.539,241.321 C 262.539,240.21 259.649,237.321 258.539,237.321 C 258.067,237.321 256.975,238.029 256.11,238.893 C 255.245,239.757 254.539,240.85 254.539,241.321 C 254.539,241.793 255.246,242.885 256.11,243.75 C 256.974,244.615 258.067,245.321 258.539,245.321 C 259.01,245.321 260.103,244.614 260.967,243.75 z M 252.967,236.75 C 253.832,235.886 254.539,234.793 254.539,234.321 C 254.539,233.85 253.832,232.757 252.967,231.893 C 252.103,231.029 251.01,230.321 250.539,230.321 C 250.067,230.321 248.975,231.029 248.11,231.893 C 247.245,232.757 246.539,233.85 246.539,234.321 C 246.539,234.793 247.246,235.885 248.11,236.75 C 248.974,237.615 250.067,238.321 250.539,238.321 C 251.01,238.321 252.103,237.614 252.967,236.75 z M 262.967,233.75 C 263.832,232.886 264.539,231.793 264.539,231.321 C 264.539,230.21 261.649,227.321 260.539,227.321 C 259.428,227.321 256.539,230.21 256.539,231.321 C 256.539,232.432 259.428,235.321 260.539,235.321 C 261.01,235.321 262.103,234.614 262.967,233.75 z M 190.967,221.75 C 191.832,220.886 192.539,219.793 192.539,219.321 C 192.539,218.85 191.832,217.757 190.967,216.893 C 190.103,216.029 189.01,215.321 188.539,215.321 C 187.254,215.321 184.539,218.289 184.539,219.693 C 184.539,220.369 185.079,221.462 185.738,222.122 C 187.368,223.751 189.088,223.629 190.967,221.75 z M 200.967,221.75 C 201.832,220.886 202.539,219.793 202.539,219.321 C 202.539,218.85 201.832,217.757 200.967,216.893 C 200.103,216.029 199.01,215.321 198.539,215.321 C 198.067,215.321 196.975,216.029 196.11,216.893 C 195.245,217.757 194.539,218.85 194.539,219.321 C 194.539,219.793 195.246,220.885 196.11,221.75 C 196.974,222.615 198.067,223.321 198.539,223.321 C 199.01,223.321 200.103,222.614 200.967,221.75 z M 144.967,210.75 C 145.832,209.886 146.539,208.793 146.539,208.321 C 146.539,207.85 145.832,206.757 144.967,205.893 C 144.103,205.029 143.01,204.321 142.539,204.321 C 142.067,204.321 140.975,205.029 140.11,205.893 C 139.245,206.757 138.539,207.85 138.539,208.321 C 138.539,208.793 139.246,209.885 140.11,210.75 C 140.974,211.615 142.067,212.321 142.539,212.321 C 143.01,212.321 144.103,211.614 144.967,210.75 z"
     fill="#a38056" />
</svg>