<?xml version="1.0" encoding="utf-8"?>
<!-- Generator: Adobe Illustrator 16.0.0, SVG Export Plug-In . SVG Version: 6.00 Build 0)  -->
<!DOCTYPE svg PUBLIC "-//W3C//DTD SVG 1.1//EN" "http://www.w3.org/Graphics/SVG/1.1/DTD/svg11.dtd">
<svg version="1.1" id="Layer_1" xmlns="http://www.w3.org/2000/svg" xmlns:xlink="http://www.w3.org/1999/xlink" x="0px" y="0px"
	 width="32px" height="32px" viewBox="-0.5 -0.5 32 32" enable-background="new -0.5 -0.5 32 32" xml:space="preserve">
<g>
	<circle fill="#006859" cx="15.5" cy="15.5" r="16"/>
	<g>
		<path fill="#006859" d="M11,16.3c0,3,0,5.9,0,8.9c0,0.2,0,0.3,0.3,0.3c0.6,0,1.2,0,1.7,0c0.2,0,0.3-0.1,0.3-0.3
			c0-2,0-4.101,0-6.101c0-0.199,0.1-0.302,0.2-0.399c2.5-1.2,4.9-2.4,7.4-3.7c0.199-0.1,0.199-0.1,0.1-0.3c-0.3-0.5-0.6-1.1-0.8-1.6
			C20.1,12.9,20,12.9,19.9,13c-2.104,1.1-4.2,2.1-6.3,3.1c-0.3,0.103-0.3,0.103-0.3-0.2c0-1,0-2,0-3c0-0.2,0.1-0.3,0.2-0.4
			c2.5-1.2,4.9-2.4,7.4-3.7C21.1,8.7,21.1,8.6,21,8.5c-0.3-0.5-0.5-1-0.8-1.6C20.1,6.7,20,6.7,19.8,6.8c-2.1,1.1-4.2,2.1-6.3,3.1
			c-0.3,0.1-0.3,0.1-0.3-0.2c0-0.8,0-1.7,0-2.5C13.2,7,13.2,7,13,7c-0.6,0-1.2,0-1.8,0c-0.2,0-0.3,0.1-0.3,0.3
			C11,10.4,11,13.3,11,16.3z"/>
		<path fill="#FBFCFC" d="M11,16.3c0-2.9,0-5.9,0-8.8c0-0.2,0-0.3,0.3-0.3c0.6,0,1.2,0,1.8,0c0.2,0,0.2,0.1,0.2,0.2
			c0,0.8,0,1.7,0,2.5c0,0.3,0,0.3,0.3,0.2c2.1-1,4.2-2.1,6.3-3.1C20.1,6.9,20.2,6.9,20.3,7.1c0.2,0.5,0.5,1,0.8,1.6
			C21.2,8.9,21.2,9,21,9c-2.5,1.2-4.9,2.4-7.4,3.7c-0.2,0.1-0.2,0.2-0.2,0.4c0,1,0,2,0,3c0,0.301,0,0.301,0.3,0.2
			c2.1-1,4.2-2.1,6.3-3.1c0.2-0.1,0.2-0.1,0.3,0.1c0.3,0.5,0.5,1.1,0.8,1.6c0.104,0.2,0,0.2-0.1,0.3c-2.5,1.2-4.9,2.5-7.4,3.7
			c-0.2,0.1-0.2,0.199-0.2,0.397c0,2,0,4.103,0,6.103c0,0.199-0.1,0.301-0.3,0.301c-0.6,0-1.2,0-1.7,0c-0.2,0-0.3-0.102-0.3-0.301
			C11,22.2,11,19.2,11,16.3z"/>
	</g>
</g>
</svg>
