<?xml version="1.0" encoding="utf-8"?>
<!-- Generator: Adobe Illustrator 16.0.0, SVG Export Plug-In . SVG Version: 6.00 Build 0)  -->
<!DOCTYPE svg PUBLIC "-//W3C//DTD SVG 1.1//EN" "http://www.w3.org/Graphics/SVG/1.1/DTD/svg11.dtd">
<svg version="1.1"
	 id="Layer_1" xmlns:rdf="http://www.w3.org/1999/02/22-rdf-syntax-ns#" xmlns:inkscape="http://www.inkscape.org/namespaces/inkscape" xmlns:cc="http://creativecommons.org/ns#" xmlns:dc="http://purl.org/dc/elements/1.1/" xmlns:sodipodi="http://sodipodi.sourceforge.net/DTD/sodipodi-0.dtd" xmlns:svg="http://www.w3.org/2000/svg" inkscape:version="0.91 r13725" sodipodi:docname="BANX.svg"
	 xmlns="http://www.w3.org/2000/svg" xmlns:xlink="http://www.w3.org/1999/xlink" x="0px" y="0px" width="32px" height="32px"
	 viewBox="-0.5 -0.5 32 32" enable-background="new -0.5 -0.5 32 32" xml:space="preserve">
<g>
	<g>
		<circle id="circle3" fill="#FFFFFF" cx="15.5" cy="15.5" r="15.6"/>
		<g id="BANX_1_">
			<path id="path6" fill="#135291" d="M6.9,15.9H5.7v1.6h1.4c0.4,0,0.8-0.2,0.8-0.8C7.9,16.3,7.5,15.9,6.9,15.9z"/>
			<polygon id="polygon8" fill="#135291" points="12.7,14.1 11.9,16.3 13.5,16.3 12.9,14.1 			"/>
			<path id="path10" fill="#135291" d="M7.7,14.3c0-0.4-0.4-0.6-0.6-0.6H5.7v1.2h1.4C7.3,14.9,7.7,14.7,7.7,14.3z"/>
			<path id="path12" fill="#135291" d="M15.5-0.5c-8.8,0-16,7.2-16,16s7.2,16,16,16s16-7.2,16-16S24.3-0.5,15.5-0.5z M7.1,9.3
				L7.1,9.3h1.6c0.2,0,0.2,0,0.2,0v2.2c0,0,0,0-0.2,0H7.1c-0.2,0-0.2,0-0.2,0C7.1,11.5,7.1,9.3,7.1,9.3z M3.9,9.3L3.9,9.3h1.6
				c0.2,0,0.2,0,0.2,0v2.2c0,0,0,0-0.2,0H4.1c-0.2,0-0.2,0-0.2,0V9.3z M5.5,21.9C5.5,21.9,5.5,22.1,5.5,21.9L3.9,22.1
				c-0.2,0-0.2,0-0.2-0.199v-2.199c0-0.2,0-0.2,0.2-0.2h1.4C5.5,19.5,5.5,19.5,5.5,19.7V21.9z M8.5,21.9C8.5,21.9,8.5,22.1,8.5,21.9
				L6.9,22.1c-0.2,0-0.2,0-0.2-0.199v-2.199c0-0.2,0-0.2,0.2-0.2h1.4C8.5,19.5,8.5,19.5,8.5,19.7V21.9z M7.1,18.7H3.9v-6.2h3
				c1.2,0,2.4,0.2,2.4,1.6c0,0.6-0.4,1-0.8,1.4c0.6,0,1.2,0.8,1.2,1.4C9.5,18.3,8.5,18.7,7.1,18.7z M14.3,18.7l-0.4-1h-2.2l-0.4,1
				H9.5l2.4-6.4h1.6l2.4,6.4H14.3z M21.9,18.7H20.3L17.9,14.9l0,0v3.8h-1.4v-6.2h1.6l2.2,3.8l0,0v-3.8H21.9V18.7L21.9,18.7z
				 M26.7,18.7l-1.2-2l-1.4,2.2h-1.8l2.2-3.4l-2.2-3h1.8l1.2,2l1.2-2h1.8l-2,3l2.2,3.4h-1.8V18.7z"/>
		</g>
	</g>
</g>
</svg>
