<?xml version="1.0" encoding="utf-8"?>
<!-- Generator: Adobe Illustrator 16.0.0, SVG Export Plug-In . SVG Version: 6.00 Build 0)  -->
<!DOCTYPE svg PUBLIC "-//W3C//DTD SVG 1.1//EN" "http://www.w3.org/Graphics/SVG/1.1/DTD/svg11.dtd">
<svg version="1.1"
	 id="Layer_1" xmlns:rdf="http://www.w3.org/1999/02/22-rdf-syntax-ns#" xmlns:inkscape="http://www.inkscape.org/namespaces/inkscape" xmlns:cc="http://creativecommons.org/ns#" xmlns:dc="http://purl.org/dc/elements/1.1/" xmlns:sodipodi="http://sodipodi.sourceforge.net/DTD/sodipodi-0.dtd" xmlns:svg="http://www.w3.org/2000/svg" inkscape:version="0.91 r13725" sodipodi:docname="BCN.svg"
	 xmlns="http://www.w3.org/2000/svg" xmlns:xlink="http://www.w3.org/1999/xlink" x="0px" y="0px" width="32px" height="32px"
	 viewBox="-0.5 -0.5 32 32" enable-background="new -0.5 -0.5 32 32" xml:space="preserve">
<g>
	<circle id="path4142" fill="#FFFFFF" cx="15.508" cy="15.502" r="15.506"/>
	<g id="BCN_1_" transform="matrix(0.14128721,0,0,0.14128721,-0.04069072,-0.04068072)">
		<path id="path4" inkscape:connector-curvature="0" fill="#333333" d="M126.797,113.298c-11.806,0-21.8,0-27.502,0v34.11
			c8.495,0,20.3,0,27.606,0c12.4,0,25.609-4.396,25.609-15.503C152.613,120.901,145.106,113.298,126.797,113.298z"/>
		<path id="path6" inkscape:connector-curvature="0" fill="#333333" d="M143.503,84.382c0-10.703-10.002-15.407-19.803-15.407
			c-6.905,0-18.31,0-24.316,0v31.515c6.304,0,17.114,0,23.722,0C132.907,100.49,143.503,95.092,143.503,84.382z"/>
		<path id="path8" inkscape:connector-curvature="0" fill="#333333" d="M110.091-3.251c-62.615,0-113.341,50.72-113.341,113.245
			s50.726,113.245,113.245,113.245s113.245-50.72,113.245-113.245C223.335,47.469,172.623-3.251,110.091-3.251z M128.207,166.015
			c-12.006,0-49.026,0-49.026,0v-29.009H49.069v-14.709H79.18v-19.606H49.069V87.99H79.18V53.472c0,0,41.513,0,52.931,0
			c18.807,0,30.799,15.808,30.799,28.111c0,12.407-11.398,19.412-11.398,19.412s19.602,6.501,19.602,29.403
			C171.219,153.407,151.403,166.015,128.207,166.015z"/>
	</g>
</g>
</svg>
