<?xml version="1.0" encoding="utf-8"?>
<!-- Generator: Adobe Illustrator 16.0.0, SVG Export Plug-In . SVG Version: 6.00 Build 0)  -->
<!DOCTYPE svg PUBLIC "-//W3C//DTD SVG 1.1//EN" "http://www.w3.org/Graphics/SVG/1.1/DTD/svg11.dtd">
<svg version="1.1"
	 id="Layer_1" xmlns:rdf="http://www.w3.org/1999/02/22-rdf-syntax-ns#" xmlns:inkscape="http://www.inkscape.org/namespaces/inkscape" xmlns:cc="http://creativecommons.org/ns#" xmlns:dc="http://purl.org/dc/elements/1.1/" xmlns:sodipodi="http://sodipodi.sourceforge.net/DTD/sodipodi-0.dtd" xmlns:svg="http://www.w3.org/2000/svg" inkscape:version="0.91 r13725" sodipodi:docname="BC.svg"
	 xmlns="http://www.w3.org/2000/svg" xmlns:xlink="http://www.w3.org/1999/xlink" x="0px" y="0px" width="32px" height="32px"
	 viewBox="-0.5 -0.5 32 32" enable-background="new -0.5 -0.5 32 32" xml:space="preserve">
<sodipodi:namedview  pagecolor="#ffffff" guidetolerance="10" showgrid="false" inkscape:cx="-2.9467421" objecttolerance="10" borderopacity="1" inkscape:cy="20.838284" id="namedview10" gridtolerance="10" bordercolor="#666666" inkscape:zoom="10.246389" inkscape:pageshadow="2" inkscape:pageopacity="0" inkscape:window-y="36" inkscape:current-layer="Layer_1" inkscape:window-width="736" inkscape:window-maximized="0" inkscape:window-x="818" inkscape:window-height="818">
	</sodipodi:namedview>
<circle id="path3342" fill="#FFFFFF" cx="15.5" cy="15.5" r="15.5"/>
<g id="BC_1_" transform="matrix(0.14118374,0,0,0.14118374,-0.01722442,-0.0172128)">
	<path id="path4" inkscape:connector-curvature="0" fill="#2B3031" d="M124.053,96.88c7.297-9.483,5.001-27.329-3.832-33.426
		c-8.829-6.097-18.133-3.047-19.928-1.332c-1.798,1.722-1.722,41.737-1.722,41.737S116.756,106.363,124.053,96.88z"/>
	<path id="path6" inkscape:connector-curvature="0" fill="#2B3031" d="M125.402,113.92c-6.82-2.971-26.831-2.189-26.831-2.189
		s-0.311,10.102,0.415,29.02c0.733,18.918,7.194,18.807,13.913,19.07c6.727,0.263,19.544-0.208,23.763-16.518
		C140.882,126.993,132.236,116.887,125.402,113.92z"/>
	<path id="path8" inkscape:connector-curvature="0" fill="#2B3031" d="M109.908-3.42C47.32-3.42-3.419,47.32-3.419,109.908
		c0,62.585,50.739,113.327,113.327,113.327c62.585,0,113.327-50.743,113.327-113.327C223.235,47.32,172.492-3.42,109.908-3.42z
		 M155.94,78.145c0.311,18.914-16.179,24.23-16.179,24.23s6.723-6.495,6.405-23.134c-0.311-16.639-12.81-24.856-12.81-24.856
		S155.629,59.234,155.94,78.145z M81.794,167.014l-22.822,1.093v-2.089c0,0,13.965-1.404,13.965-25.89c0-24.493,0-41.844,0-62.581
		S58.971,53.213,58.971,53.213v-1.874l22.822,1.093V167.014z M118.263,168.183c-9.922,0.076-28.342-1.28-28.342-1.28V52.59
		c12.143-0.159,16.386-1.798,26.392-0.394c10.002,1.408,18.607,11.178,20.945,20.948c2.352,9.77-0.152,19.07-3.362,24.151
		c-3.203,5.081-10.237,8.598-10.237,8.598s10.631,3.597,14.387,6.72c3.749,3.126,11.012,11.648,8.203,30.172
		C143.434,161.308,128.196,168.107,118.263,168.183z M144.645,163.964c0,0,10.825-9.22,10.348-27.924
		c-0.477-18.703-10.348-27.491-10.348-27.491s20.363,5.004,20.599,27.277C165.479,158.105,144.645,163.964,144.645,163.964z"/>
</g>
</svg>
