<?xml version="1.0" encoding="utf-8"?>
<!-- Generator: Adobe Illustrator 16.0.0, SVG Export Plug-In . SVG Version: 6.00 Build 0)  -->
<!DOCTYPE svg PUBLIC "-//W3C//DTD SVG 1.1//EN" "http://www.w3.org/Graphics/SVG/1.1/DTD/svg11.dtd">
<svg version="1.1"
	 id="Layer_1" xmlns:rdf="http://www.w3.org/1999/02/22-rdf-syntax-ns#" xmlns:inkscape="http://www.inkscape.org/namespaces/inkscape" xmlns:cc="http://creativecommons.org/ns#" xmlns:dc="http://purl.org/dc/elements/1.1/" xmlns:sodipodi="http://sodipodi.sourceforge.net/DTD/sodipodi-0.dtd" xmlns:svg="http://www.w3.org/2000/svg" inkscape:version="0.91 r13725" sodipodi:docname="BTC.svg"
	 xmlns="http://www.w3.org/2000/svg" xmlns:xlink="http://www.w3.org/1999/xlink" x="0px" y="0px" width="32px" height="32px"
	 viewBox="-0.5 -0.5 32 32" enable-background="new -0.5 -0.5 32 32" xml:space="preserve">
<sodipodi:namedview  pagecolor="#ffffff" guidetolerance="10" showgrid="false" inkscape:cx="-11.143357" objecttolerance="10" borderopacity="1" inkscape:cy="2.9367315" id="namedview10" gridtolerance="10" bordercolor="#666666" inkscape:zoom="3.6214903" inkscape:pageshadow="2" inkscape:pageopacity="0" inkscape:window-y="36" inkscape:current-layer="Layer_1" inkscape:window-width="736" inkscape:window-maximized="0" inkscape:window-x="818" inkscape:window-height="818">
	</sodipodi:namedview>
<circle id="path4142" fill="#FFFFFF" cx="15.5" cy="15.5" r="15.5"/>
<g id="BTC_2_" transform="matrix(0.14107855,0,0,0.14107855,0,-2.831823e-4)">
	<path id="path4" inkscape:connector-curvature="0" fill="#F3AE50" d="M132.171,118.702c-2.617-1.315-8.438-3.073-15.367-3.537
		c-6.936-0.457-15.827,0-15.827,0v30.021c0,0,9.286,0.194,15.502-0.263c6.209-0.457,12.619-2.021,15.824-3.793
		c3.205-1.765,7.067-4.513,7.067-11.38C139.37,122.883,134.787,120.003,132.171,118.702z"/>
	<path id="path6" inkscape:connector-curvature="0" fill="#F3AE50" d="M112.616,101.238c5.102-0.201,10.529-1.377,14.453-3.53
		c3.925-2.16,6.147-5.558,6.015-10.66c-0.132-5.109-3.53-9.421-9.283-11.186c-5.752-1.772-9.615-1.897-13.996-1.966
		c-4.385-0.062-8.833,0.332-8.833,0.332v27.01C100.976,101.238,107.514,101.431,112.616,101.238z"/>
	<path id="path8" inkscape:connector-curvature="0" fill="#F3AE50" d="M109.868-3.542C47.233-3.542-3.544,47.231-3.544,109.87
		c0,62.631,50.777,113.412,113.412,113.412c62.638,0,113.412-50.781,113.412-113.412C223.279,47.231,172.506-3.542,109.868-3.542z
		 M156.045,153.23c-8.438,5.891-17.464,6.936-21.452,7.462c-1.966,0.256-5.344,0.526-8.957,0.741v22.739h-14v-22.372
		c-2.617,0-6.361,0-10.66,0v22.372h-14v-22.372c-13.851,0-27.533,0-27.533,0l2.876-16.807c0,0,5.558,0,8.372,0
		s3.987-0.263,5.164-1.378s1.44-2.81,1.44-4.188c0-1.371,0-54.283,0-57.91c0-3.627-0.294-4.61-1.962-6.472
		c-1.668-1.869-5.593-2.118-7.801-2.118c-2.208,0-8.092,0-8.092,0V58.397c0,0,13.249,0,27.536,0V35.962h13.996v22.435
		c3.89,0,7.538,0,10.66,0V35.962h13.996v22.704c10.432,0.644,18.205,2.63,24.982,7.642c8.763,6.479,8.307,17.727,8.113,20.406
		c-0.194,2.679-1.371,7.85-3.731,11.186c-2.347,3.336-8.106,6.673-8.106,6.673s6.798,1.433,11.574,5.032
		c4.776,3.599,8.307,9.94,8.113,19.23C166.38,138.126,164.483,147.346,156.045,153.23z"/>
</g>
</svg>
