<?xml version="1.0" encoding="utf-8"?>
<!-- Generator: Adobe Illustrator 16.0.0, SVG Export Plug-In . SVG Version: 6.00 Build 0)  -->
<!DOCTYPE svg PUBLIC "-//W3C//DTD SVG 1.1//EN" "http://www.w3.org/Graphics/SVG/1.1/DTD/svg11.dtd">
<svg version="1.1"
	 id="Layer_1" xmlns:rdf="http://www.w3.org/1999/02/22-rdf-syntax-ns#" xmlns:inkscape="http://www.inkscape.org/namespaces/inkscape" xmlns:cc="http://creativecommons.org/ns#" xmlns:dc="http://purl.org/dc/elements/1.1/" xmlns:sodipodi="http://sodipodi.sourceforge.net/DTD/sodipodi-0.dtd" xmlns:svg="http://www.w3.org/2000/svg" inkscape:version="0.91 r13725" sodipodi:docname="BTCD.svg"
	 xmlns="http://www.w3.org/2000/svg" xmlns:xlink="http://www.w3.org/1999/xlink" x="0px" y="0px" width="32px" height="32px"
	 viewBox="-0.5 -0.5 32 32" enable-background="new -0.5 -0.5 32 32" xml:space="preserve">
<sodipodi:namedview  pagecolor="#ffffff" guidetolerance="10" showgrid="false" inkscape:cx="36.402395" objecttolerance="10" borderopacity="1" inkscape:cy="11.887888" id="namedview4" gridtolerance="10" bordercolor="#666666" inkscape:zoom="6.3053809" inkscape:pageshadow="2" inkscape:pageopacity="0" inkscape:window-y="36" inkscape:current-layer="Layer_1" inkscape:window-width="736" inkscape:window-maximized="0" inkscape:window-x="818" inkscape:window-height="818">
	</sodipodi:namedview>
<circle id="path9823" fill="#FFFFFF" cx="15.488" cy="15.5" r="15.5"/>
<path id="BTCD_alt" inkscape:connector-curvature="0" fill="#0072F4" d="M15.5-0.5c-8.836,0-16,7.163-16,16c0,8.836,7.164,16,16,16
	c8.836,0,16-7.164,16-16C31.5,6.664,24.336-0.5,15.5-0.5z M16.146,26.436c-5.199,0-10.642-3.753-10.642-9.767
	c0-6.015,5.292-8.509,8.334-8.438c3.146,0.072,6.258,2.622,6.621,5.501c0.315,2.517-1.104,4.437-1.741,5.027
	c-0.637,0.591-2.424,1.398-4.009,0.979c-1.585-0.42-2.332-1.663-2.471-2.316c-0.14-0.652-0.232-2.169,1.038-2.898
	c1.27-0.729,2.132,0.179,2.311,0.63s-0.078,1.119-0.575,1.235c-0.497,0.117-0.94-0.062-1.205-0.287c0,0-0.039,1.086,1.022,1.271
	c1.061,0.188,1.719-0.419,2.029-0.896c0.309-0.478,0.885-2.04-0.49-3.491c-1.375-1.451-3.771-1.346-5.128-0.344
	c-1.357,1.002-2.731,2.854-2.156,5.558c0.575,2.705,3.038,5.223,6.702,5.253c3.664,0.031,7.767-2.89,8.108-7.723
	c0.342-4.833-2.969-8.252-5.346-9.247c-2.378-0.995-4.428-1.402-6.993-0.902s-3.917,1.585-4.686,2.09c0,0,2.728-3.1,8.205-3.1
	s11.073,5.198,11.073,11.235S21.344,26.436,16.146,26.436z"/>
</svg>
