<?xml version="1.0" encoding="utf-8"?>
<!-- Generator: Adobe Illustrator 16.0.0, SVG Export Plug-In . SVG Version: 6.00 Build 0)  -->
<!DOCTYPE svg PUBLIC "-//W3C//DTD SVG 1.1//EN" "http://www.w3.org/Graphics/SVG/1.1/DTD/svg11.dtd">
<svg version="1.1"
	 id="Layer_1" xmlns:rdf="http://www.w3.org/1999/02/22-rdf-syntax-ns#" xmlns:inkscape="http://www.inkscape.org/namespaces/inkscape" xmlns:cc="http://creativecommons.org/ns#" xmlns:dc="http://purl.org/dc/elements/1.1/" xmlns:sodipodi="http://sodipodi.sourceforge.net/DTD/sodipodi-0.dtd" xmlns:svg="http://www.w3.org/2000/svg" inkscape:version="0.91 r13725" sodipodi:docname="BTS.svg"
	 xmlns="http://www.w3.org/2000/svg" xmlns:xlink="http://www.w3.org/1999/xlink" x="0px" y="0px" width="32px" height="32px"
	 viewBox="-0.5 -0.5 32 32" enable-background="new -0.5 -0.5 32 32" xml:space="preserve">
<g>
	<ellipse id="path4740" fill="#FFFFFF" cx="15.5" cy="15.493" rx="15.5" ry="15.507"/>
	<path id="BTS" inkscape:connector-curvature="0" fill="#094E79" d="M15.5-0.5c-8.833,0-16,7.157-16,15.993S6.667,31.5,15.5,31.5
		c8.832,0,16-7.171,16-16.007S24.332-0.5,15.5-0.5z M22.182,18.535h-3.933c-0.049-0.309-0.162-0.6-0.34-0.842l2.782-2.785
		C21.518,15.896,22.084,17.143,22.182,18.535z M16.453,12.821c1.391,0.064,2.637,0.631,3.624,1.489l-2.783,2.786
		c-0.243-0.162-0.534-0.291-0.841-0.34V12.821z M9.932,5.229l5.696,5.099c0,0,0,5.326,0,6.443c-0.259,0.049-0.534,0.162-0.761,0.309
		c-0.55-0.551-3.867-3.886-4.919-4.955C9.932,11.93,9.932,5.229,9.932,5.229z M9.932,13.403l4.272,4.274
		c-0.162,0.259-0.292,0.55-0.34,0.857H9.932C9.932,17.096,9.932,15.589,9.932,13.403z M9.932,19.378h3.932
		c0.049,0.291,0.162,0.582,0.34,0.81l-2.784,2.815C10.579,22.032,10.029,20.77,9.932,19.378z M15.643,25.075
		c-1.391-0.064-2.637-0.632-3.624-1.488l2.783-2.785c0.243,0.162,0.534,0.292,0.841,0.341V25.075z M16.453,25.075v-3.933
		c0.307-0.05,0.598-0.164,0.857-0.342l2.767,2.77C19.105,24.43,17.844,24.979,16.453,25.075z M20.74,22.938l-2.799-2.783
		c0.146-0.243,0.242-0.502,0.291-0.793h3.965C22.1,20.721,21.566,21.951,20.74,22.938z"/>
</g>
</svg>
