<?xml version="1.0" encoding="utf-8"?>
<!-- Generator: Adobe Illustrator 16.0.0, SVG Export Plug-In . SVG Version: 6.00 Build 0)  -->
<!DOCTYPE svg PUBLIC "-//W3C//DTD SVG 1.1//EN" "http://www.w3.org/Graphics/SVG/1.1/DTD/svg11.dtd">
<svg version="1.1" id="Layer_1" xmlns="http://www.w3.org/2000/svg" xmlns:xlink="http://www.w3.org/1999/xlink" x="0px" y="0px"
	 width="32px" height="32px" viewBox="-0.5 -0.5 32 32" enable-background="new -0.5 -0.5 32 32" xml:space="preserve">
<g>
	<g>
		<circle fill="#0166CC" cx="15.5" cy="15.5" r="16"/>
	</g>
	<path fill="#FFFFFF" d="M6.5,11.2c-0.1,0-0.3,0.1-0.3-0.1c-0.1-0.1,0-0.2,0.1-0.3c0.4-0.7,0.9-1.4,1.3-2.1C7.8,8.5,8,8.4,8.2,8.4
		c1.5,0,3.1,0,4.6,0c0.5,0,0.5,0,0.5-0.5c0-1.1,0-2.4,0-3.5c0-0.3,0.1-0.4,0.4-0.4c0.3,0,0.7-0.1,1,0.1c0.2,0.2,0.1,0.6,0.1,1
		c0,0.9,0,2,0,2.9c0,0.3,0.1,0.5,0.5,0.4c0.2,0,0.5,0,0.7,0c0.4,0,0.5-0.1,0.5-0.4c0-1.2,0-2.4,0-3.6c0-0.3,0.1-0.5,0.4-0.5
		c1,0,1,0,1,1s0,2,0,3c0,0.3,0.1,0.4,0.398,0.4c1.4,0,2.801,0.2,4,0.9c2.201,1.1,2.801,3.1,2.401,5.3c-0.4,1.9-1.3,3.4-2.7,4.9
		c-1.1,1.1-2.4,2-3.8,2.699c-0.2,0.101-0.3,0.199-0.3,0.5c0,1.301,0,2.699,0,4c0,0.301-0.102,0.5-0.4,0.399c-0.2,0-0.4,0-0.6,0
		C16.6,27,16.5,26.9,16.5,26.5c0-1.1,0-2.3,0-3.4c0-0.5,0-0.5-0.4-0.3C15.9,22.9,15.6,23,15.4,23c-0.3,0-0.4,0.2-0.4,0.5
		c0,1,0,2,0,3c0,0.3-0.1,0.5-0.4,0.4c-0.2,0-0.4,0-0.6,0c-0.4,0.1-0.5,0-0.5-0.4c0-0.9,0-1.9,0-2.8c0-0.3-0.1-0.4-0.4-0.4
		c-1.5,0.101-3.1,0-4.6,0.101c-0.3,0-0.4-0.102-0.3-0.4c0.1-1.1,0.5-2.4,0.9-3.7c0.3-1.1,0.7-2.3,1-3.4c0.3-1,0.7-2.1,1-3.2
		c0.2-0.2,0.3-0.3,0.5-0.3c1.1,0,2.3,0,3.4,0c0.3,0,0.4,0.1,0.3,0.4c-0.5,1.7-1,3.3-1.5,4.9c-0.4,1.2-0.7,2.399-1.1,3.6
		c-0.1,0.4,0.1,0.4,0.3,0.4c0.9-0.101,1.8-0.3,2.6-0.7c1.5-0.7,2.9-1.8,3.8-3.3c0.5-0.9,0.898-1.9,1-2.9
		c0.199-2-0.601-3.3-2.801-3.6c-1.399-0.1-4.2-0.1-4.2-0.1S8.3,11.2,6.5,11.2z"/>
</g>
</svg>
