<?xml version="1.0" encoding="utf-8"?>
<!-- Generator: Adobe Illustrator 16.0.0, SVG Export Plug-In . SVG Version: 6.00 Build 0)  -->
<!DOCTYPE svg PUBLIC "-//W3C//DTD SVG 1.1//EN" "http://www.w3.org/Graphics/SVG/1.1/DTD/svg11.dtd">
<svg version="1.1"
	 id="Layer_1" xmlns:rdf="http://www.w3.org/1999/02/22-rdf-syntax-ns#" xmlns:inkscape="http://www.inkscape.org/namespaces/inkscape" xmlns:cc="http://creativecommons.org/ns#" xmlns:dc="http://purl.org/dc/elements/1.1/" xmlns:sodipodi="http://sodipodi.sourceforge.net/DTD/sodipodi-0.dtd" xmlns:svg="http://www.w3.org/2000/svg" inkscape:version="0.91 r13725" sodipodi:docname="DOGE.svg"
	 xmlns="http://www.w3.org/2000/svg" xmlns:xlink="http://www.w3.org/1999/xlink" x="0px" y="0px" width="32px" height="32px"
	 viewBox="-0.5 -0.5 32 32" enable-background="new -0.5 -0.5 32 32" xml:space="preserve">
<sodipodi:namedview  pagecolor="#ffffff" guidetolerance="10" showgrid="false" inkscape:cx="38.404996" objecttolerance="10" borderopacity="1" inkscape:cy="11.856947" id="namedview8" gridtolerance="10" bordercolor="#666666" inkscape:zoom="5.1215608" inkscape:pageshadow="2" inkscape:pageopacity="0" inkscape:window-y="0" inkscape:current-layer="Layer_1" inkscape:window-width="1600" inkscape:window-maximized="0" inkscape:window-x="0" inkscape:window-height="900">
	</sodipodi:namedview>
<circle id="path4746" fill="#FFFFFF" cx="15.5" cy="15.5" r="15.5"/>
<g id="DOGE_1_" transform="matrix(0.14083453,0,0,0.14083453,0,-2.7978516e-6)">
	<path id="path4" inkscape:connector-curvature="0" fill="#F3AE50" d="M112.786,71.321c-6.067,0-16.236,0-16.236,0v31.997h25.538
		v13.397H96.55v32.008c0,0,12.651,0,17.023,0c4.375,0,35.919,0.485,35.87-37.236C149.395,73.761,118.85,71.321,112.786,71.321z"/>
	<path id="path6" inkscape:connector-curvature="0" fill="#F3AE50" d="M110.058-3.55C47.315-3.55-3.55,47.315-3.55,110.058
		c0,62.74,50.865,113.608,113.608,113.608c62.74,0,113.608-50.868,113.608-113.608C223.666,47.315,172.798-3.55,110.058-3.55z
		 M114.523,171.418H73.377v-54.703H58.874v-13.393h14.503V48.618c0,0,26.956,0,35.312,0c8.352,0,63.679-1.734,63.679,62.428
		C172.368,176.265,114.523,171.418,114.523,171.418z"/>
</g>
</svg>
