<?xml version="1.0" encoding="utf-8"?>
<!-- Generator: Adobe Illustrator 16.0.0, SVG Export Plug-In . SVG Version: 6.00 Build 0)  -->
<!DOCTYPE svg PUBLIC "-//W3C//DTD SVG 1.1//EN" "http://www.w3.org/Graphics/SVG/1.1/DTD/svg11.dtd">
<svg version="1.1"
	 id="Layer_1" xmlns:rdf="http://www.w3.org/1999/02/22-rdf-syntax-ns#" xmlns:inkscape="http://www.inkscape.org/namespaces/inkscape" xmlns:cc="http://creativecommons.org/ns#" xmlns:dc="http://purl.org/dc/elements/1.1/" xmlns:sodipodi="http://sodipodi.sourceforge.net/DTD/sodipodi-0.dtd" xmlns:svg="http://www.w3.org/2000/svg" inkscape:version="0.91 r13725" sodipodi:docname="DASH.svg"
	 xmlns="http://www.w3.org/2000/svg" xmlns:xlink="http://www.w3.org/1999/xlink" x="0px" y="0px" width="32px" height="32px"
	 viewBox="-0.5 -0.5 32 32" enable-background="new -0.5 -0.5 32 32" xml:space="preserve">
<sodipodi:namedview  pagecolor="#ffffff" guidetolerance="10" showgrid="false" inkscape:cx="11.148599" objecttolerance="10" borderopacity="1" inkscape:cy="0.42964415" id="namedview4" showguides="true" gridtolerance="10" bordercolor="#666666" inkscape:zoom="8.9138992" inkscape:pageshadow="2" inkscape:pageopacity="0" inkscape:window-y="0" inkscape:current-layer="Layer_1" inkscape:guide-bbox="true" inkscape:window-width="1600" inkscape:window-maximized="0" inkscape:window-x="0" inkscape:window-height="900">
	</sodipodi:namedview>
<circle id="path4776" fill="#FFFFFF" cx="15.5" cy="15.5" r="15.5"/>
<path id="path4765" inkscape:connector-curvature="0" sodipodi:nodetypes="ssssscssccccccccccccccccc" fill="#1C75BC" d="M15.5-0.5
	c-8.836,0-16,7.165-16,16c0,8.835,7.164,16,16,16s16-7.164,16-16C31.5,6.665,24.336-0.5,15.5-0.5z M9.279,9.052h7.843
	c7.456,0,8.178,0.043,8.812,1.125c0.253,0.431,0.455,0.954,0.295,1.662l-2.349,8.566c-0.375,1.144-1.376,1.664-2.528,1.646
	l-8.369,0.002l-2.433,0.001l-5.54,0.001l1.04-3.171h13.68l2.118-6.915H8.349L9.279,9.052L9.279,9.052z M13.492,14.115l-1.071,2.977
	H4.444l1.027-2.977H13.492z"/>
</svg>
