<?xml version="1.0" encoding="utf-8"?>
<!-- Generator: Adobe Illustrator 16.0.0, SVG Export Plug-In . SVG Version: 6.00 Build 0)  -->
<!DOCTYPE svg PUBLIC "-//W3C//DTD SVG 1.1//EN" "http://www.w3.org/Graphics/SVG/1.1/DTD/svg11.dtd">
<svg version="1.1"
	 id="Layer_1" xmlns:rdf="http://www.w3.org/1999/02/22-rdf-syntax-ns#" xmlns:inkscape="http://www.inkscape.org/namespaces/inkscape" xmlns:cc="http://creativecommons.org/ns#" xmlns:dc="http://purl.org/dc/elements/1.1/" xmlns:sodipodi="http://sodipodi.sourceforge.net/DTD/sodipodi-0.dtd" xmlns:svg="http://www.w3.org/2000/svg" inkscape:version="0.91 r13725" sodipodi:docname="FC2.svg"
	 xmlns="http://www.w3.org/2000/svg" xmlns:xlink="http://www.w3.org/1999/xlink" x="0px" y="0px" width="32px" height="32px"
	 viewBox="-0.5 -0.5 32 32" enable-background="new -0.5 -0.5 32 32" xml:space="preserve">
<g>
	<circle id="path4761" fill="#FFFFFF" cx="15.507" cy="15.501" r="15.506"/>
	<g id="FC2_alt" transform="matrix(0.14128784,0,0,0.14128784,-0.04083219,-0.04082219)">
		<polygon id="polygon4" fill="#DE5833" points="66.878,158.709 76.174,158.709 91.795,50.165 82.588,50.165 		"/>
		<path id="path6" inkscape:connector-curvature="0" fill="#DE5833" d="M141.595,140.302h-17.197c-0.705,0-1.299,0.601-1.299,1.306
			v13.001c0,0.698,0.594,1.299,1.299,1.299h17.197c0.705,0,1.313-0.601,1.313-1.299v-13.001
			C142.798,140.904,142.3,140.302,141.595,140.302z"/>
		<path id="path8" inkscape:connector-curvature="0" fill="#DE5833" d="M110.087-3.25C47.476-3.25-3.25,47.469-3.25,109.994
			s50.726,113.244,113.24,113.244s113.247-50.719,113.247-113.244C223.335,47.469,172.615-3.25,110.087-3.25z M106.4,119.097
			l-6.905,46.814H59.669L76.879,45.465h74.931l-4.106,30.018h-34.818l-1.804,12.4h29.614l-4.396,31.214H106.4z M155.308,172.214
			c-1.493,0-2.903-0.498-3.912-1.493c-0.788-0.802-1.783-2.205-1.783-4.507v-18.31c0-0.698-0.401-2.502-2.502-2.502v37.013h1.507
			c0.677,0,1.286,0.608,1.286,1.299v2.198c0,0.705-0.608,1.313-1.286,1.313h-31.325c-0.691,0-1.299-0.608-1.299-1.313v-2.198
			c0-0.691,0.608-1.299,1.299-1.299h1.507v-44.416c0-0.995,0.788-1.797,1.797-1.797h24.509c1.009,0,1.797,0.802,1.797,1.797v3.705
			c3.898,0,6.207,3.2,6.207,6.2v18.31c0,0.795,0.194,1.396,0.594,1.797c0.304,0.304,0.802,0.505,1.396,0.505
			c0.816,0,2.309-0.505,2.309-2.302c0-1.804-0.401-2.903-0.802-4.306c-0.608-1.804-1.299-3.898-1.299-7.596v-9.912
			c-0.899-1.493-6.096-7.002-10.7-11.501c-0.705-0.698-0.705-1.901,0-2.599c0.691-0.705,1.908-0.705,2.599,0
			c11.805,11.501,11.805,13.001,11.805,13.803v10.209c0,3.097,0.594,4.797,1.106,6.4c0.484,1.493,0.995,3.097,0.995,5.502
			C161.308,170.113,158.211,172.214,155.308,172.214z"/>
	</g>
</g>
</svg>
