<?xml version="1.0" encoding="utf-8"?>
<!-- Generator: Adobe Illustrator 16.0.0, SVG Export Plug-In . SVG Version: 6.00 Build 0)  -->
<!DOCTYPE svg PUBLIC "-//W3C//DTD SVG 1.1//EN" "http://www.w3.org/Graphics/SVG/1.1/DTD/svg11.dtd">
<svg version="1.1"
	 id="Layer_1" xmlns:rdf="http://www.w3.org/1999/02/22-rdf-syntax-ns#" xmlns:inkscape="http://www.inkscape.org/namespaces/inkscape" xmlns:cc="http://creativecommons.org/ns#" xmlns:dc="http://purl.org/dc/elements/1.1/" xmlns:sodipodi="http://sodipodi.sourceforge.net/DTD/sodipodi-0.dtd" xmlns:svg="http://www.w3.org/2000/svg" inkscape:version="0.91 r13725" sodipodi:docname="FTC.svg"
	 xmlns="http://www.w3.org/2000/svg" xmlns:xlink="http://www.w3.org/1999/xlink" x="0px" y="0px" width="32px" height="32px"
	 viewBox="-0.5 -0.5 32 32" enable-background="new -0.5 -0.5 32 32" xml:space="preserve">
<sodipodi:namedview  pagecolor="#ffffff" guidetolerance="10" showgrid="false" inkscape:cx="9.5828816" objecttolerance="10" borderopacity="1" inkscape:cy="2.9367315" id="namedview8" gridtolerance="10" bordercolor="#666666" inkscape:zoom="5.8807073" inkscape:pageshadow="2" inkscape:pageopacity="0" inkscape:window-y="0" inkscape:current-layer="Layer_1" inkscape:window-width="1600" inkscape:window-maximized="0" inkscape:window-x="0" inkscape:window-height="900">
	</sodipodi:namedview>
<circle id="path4205" fill="#FFFFFF" cx="15.5" cy="15.5" r="15.5"/>
<g id="FTC_alt" transform="matrix(0.14139084,0,0,0.14139084,-0.06419144,-0.06418144)">
	<path id="path4" inkscape:connector-curvature="0" fill="#3E4B52" d="M110.079-3.082C47.583-3.082-3.082,47.583-3.082,110.079
		c0,62.493,50.665,113.161,113.161,113.161c62.493,0,113.161-50.668,113.161-113.161C223.24,47.583,172.572-3.082,110.079-3.082z
		 M180.342,54.134c-0.891,12.45-18.255,31.72-24.609,39.175c-6.354,7.452-11.769,15.413-13.51,15.585
		c-1.734,0.166-13.344-0.977-15.416,4.106c-0.926,2.286,12.494,1.734,12.494,1.734s-21.722,30.666-23.076,30.873
		c-1.361,0.214-16.49-0.822-25.935,1.084c-9.442,1.899-12.992,7.176-12.992,7.176s13.427,1.188,22.786,1.609
		s23.759,0.594,23.759,0.594s-10.333,5.588-26.767,4.704c-16.431-0.898-22.996-2.203-22.996-2.203s2.286,5.967,6.82,8.848
		c4.531,2.887,12.194,5.166,12.028,5.595c-0.173,0.421-9.953-0.256-16.348-3.35c-6.396-3.087-7.539-8.005-8.43-7.197
		c-0.888,0.808,1.651,6.941,3.854,9.02s7.794,5.933,7.076,6.182c-0.722,0.256-13.344-4.655-15.713-7.535
		c-1.126,2.397-13.068,14.953-13.544,13.627c-0.477-1.326,8.896-11.148,9.531-14.007c0.635-2.859-0.159-7.211-2.29-7.086
		c-2.124,0.124-5.843,7.819-5.843,7.819s-1.399-3.025-0.825-6.23c0.573-3.205,2.828-5.56,2.828-5.56s-4.479-4.8-6.575-6.886
		c-2.096-2.1-6.924-5.76-6.354-6.99c0.573-1.243,7.591,2.728,10.005,4.448c2.417,1.713,7.722,6.893,7.722,6.893
		s-2.034-6.451-3.557-10.802c-1.526-4.351-4.037-9.241-3.464-9.69c0.573-0.449,5.146,5.588,7.114,8.613
		c1.968,3.011,5.083,8.792,5.083,8.792s-0.508-8.102,0.159-13.434c0.667-5.339,2.922-10.706,4.003-10.326
		c1.077,0.38,1.236,4.731,3.554,10.229c2.321,5.498,3.909,8.005,4.956,7.335c1.05-0.663,2.024-7.708,1.388-17.958
		c-0.635-10.243-1.482-18.079-1.482-18.079s6.258-6.589,6.734-6.268c0.477,0.314,0.159,10.699,0.601,15.085
		c0.445,4.386,1.751,8.71,2.352,8.64c0.604-0.062,3.398-4.669,5.222-15.678c1.82-11.013,2.666-16.559,2.666-16.559
		s11.9-11.089,12.346-10.961s0.922,6.164,1.651,8.323c0.732,2.162,2.065,3.177,2.065,3.177s2.763-2.891,3.557-9.528
		c0.798-6.641,0.853-9.276,1.523-10.737c0.67-1.461,18.331-15.468,27.8-22.647c9.462-7.18,29.782-19.629,31.184-19.218
		C174.879,34.884,181.233,41.681,180.342,54.134z"/>
	<path id="path6" inkscape:connector-curvature="0" fill="#3E4B52" d="M90.937,139.302c0,0,24.481-24.395,35.152-37.017
		c10.671-12.619,30.155-40.826,30.155-40.826s-24.561,26.937-36.758,41.251C107.285,117.027,90.937,139.302,90.937,139.302z"/>
</g>
</svg>
