<?xml version="1.0" encoding="utf-8"?>
<!-- Generator: Adobe Illustrator 16.0.0, SVG Export Plug-In . SVG Version: 6.00 Build 0)  -->
<!DOCTYPE svg PUBLIC "-//W3C//DTD SVG 1.1//EN" "http://www.w3.org/Graphics/SVG/1.1/DTD/svg11.dtd">
<svg version="1.1" id="Layer_1" xmlns="http://www.w3.org/2000/svg" xmlns:xlink="http://www.w3.org/1999/xlink" x="0px" y="0px"
	 width="32px" height="32px" viewBox="-0.5 -0.5 32 32" enable-background="new -0.5 -0.5 32 32" xml:space="preserve">
<g>
	<g>
		<circle fill="#AAAAAA" cx="15.5" cy="15.5" r="16"/>
	</g>
	<g>
		<rect x="12.5" y="4.5" fill="#FFFFFF" width="2" height="4"/>
		<path fill="#FFFFFF" d="M22.4,16.5c-0.5,3.4-3.4,6-6.9,6c-3.9,0-7-3.1-7-7c0-3.9,3.1-7,7-7c3.5,0,6.4,2.6,6.9,6h2
			c-0.5-4.5-4.301-8-8.9-8c-5,0-9,4-9,9s4,9,9,9c4.6,0,8.4-3.5,8.9-8H22.4z"/>
		<path fill="#FFFFFF" d="M18.3,16.5c-0.399,1.2-1.5,2-2.8,2c-1.7,0-3-1.3-3-3s1.3-3,3-3c1.3,0,2.4,0.8,2.8,2H20.4
			c-0.5-2.3-2.5-4-4.9-4c-2.8,0-5,2.2-5,5s2.2,5,5,5c2.4,0,4.4-1.7,4.9-4H18.3z"/>
		<rect x="12.5" y="22.5" fill="#FFFFFF" width="2" height="4"/>
		<rect x="16.5" y="4.5" fill="#FFFFFF" width="2" height="4"/>
		<rect x="16.5" y="22.5" fill="#FFFFFF" width="2" height="4"/>
	</g>
</g>
</svg>
