<?xml version="1.0" encoding="utf-8"?>
<!-- Generator: Adobe Illustrator 16.0.0, SVG Export Plug-In . SVG Version: 6.00 Build 0)  -->
<!DOCTYPE svg PUBLIC "-//W3C//DTD SVG 1.1//EN" "http://www.w3.org/Graphics/SVG/1.1/DTD/svg11.dtd">
<svg version="1.1"
	 id="Layer_1" xmlns:rdf="http://www.w3.org/1999/02/22-rdf-syntax-ns#" xmlns:inkscape="http://www.inkscape.org/namespaces/inkscape" xmlns:cc="http://creativecommons.org/ns#" xmlns:dc="http://purl.org/dc/elements/1.1/" xmlns:sodipodi="http://sodipodi.sourceforge.net/DTD/sodipodi-0.dtd" xmlns:svg="http://www.w3.org/2000/svg" inkscape:version="0.91 r13725" sodipodi:docname="GRC.svg"
	 xmlns="http://www.w3.org/2000/svg" xmlns:xlink="http://www.w3.org/1999/xlink" x="0px" y="0px" width="32px" height="32px"
	 viewBox="-0.5 -0.5 32 32" enable-background="new -0.5 -0.5 32 32" xml:space="preserve">
<sodipodi:namedview  pagecolor="#ffffff" guidetolerance="10" showgrid="false" inkscape:cx="-3.377139" objecttolerance="10" borderopacity="1" inkscape:cy="15.486113" id="namedview18" gridtolerance="10" bordercolor="#666666" inkscape:zoom="7.7628345" inkscape:pageshadow="2" inkscape:pageopacity="0" inkscape:window-y="0" inkscape:current-layer="Layer_1" inkscape:window-width="1600" inkscape:window-maximized="0" inkscape:window-x="0" inkscape:window-height="900">
	</sodipodi:namedview>
<circle id="path4150" fill="#FFFFFF" cx="15.5" cy="15.5" r="15.5"/>
<g id="GRC" transform="matrix(0.14118436,0,0,0.14118436,0,-0.00451783)">
	<circle id="circle4" fill="#282828" cx="108.351" cy="129.303" r="1.916"/>
	<circle id="circle6" fill="#282828" cx="107.97" cy="105.007" r="1.913"/>
	<path id="path8" inkscape:connector-curvature="0" fill="#282828" d="M119.719,149.839l-1.383,0.346l6.308,34.343l1.549-0.339
		c34.529-7.705,59.583-38.998,59.583-74.423c0-4.365-0.374-8.733-1.1-13l-0.221-1.269h-71.262v3.061h68.675
		c0.249,1.629,0.422,3.272,0.56,4.918h-69.235v3.061h69.401c0.055,1.079,0.124,2.155,0.124,3.23c0,0.501-0.055,0.986-0.062,1.487
		h-50.459c-0.636-1.823-2.352-3.14-4.385-3.14c-2.573,0-4.669,2.092-4.669,4.669c0,2.57,2.096,4.665,4.669,4.665
		c2.034,0,3.749-1.321,4.385-3.14h50.328c-0.125,1.847-0.318,3.673-0.567,5.485h-58.275c-0.636-1.826-2.352-3.14-4.385-3.14
		c-2.573,0-4.669,2.089-4.669,4.669c0,2.566,2.096,4.669,4.669,4.669c2.034,0,3.749-1.314,4.385-3.14h57.812
		c-5.153,27.861-26.374,51.075-54.416,57.978l-5.229-28.401c11.731-3.382,21.588-11.496,27.197-22.425l1.148-2.227h-36.999v3.057
		h31.901C139.501,140.266,130.378,147.135,119.719,149.839z M127.811,114.701c-1.058,0-1.909-0.865-1.909-1.919
		c0-1.058,0.851-1.916,1.909-1.916c1.051,0,1.909,0.858,1.909,1.916C129.72,113.837,128.863,114.701,127.811,114.701z
		 M119.297,123.237c-1.058,0-1.916-0.858-1.916-1.916c0-1.058,0.858-1.916,1.916-1.916c1.058,0,1.916,0.858,1.916,1.916
		C121.213,122.379,120.348,123.237,119.297,123.237z"/>
	<path id="path10" inkscape:connector-curvature="0" fill="#282828" d="M98.902,95.112c-1.058,0-1.913,0.858-1.913,1.913
		c0,1.058,0.854,1.916,1.913,1.916c1.051,0,1.909-0.858,1.909-1.916C100.811,95.97,99.953,95.112,98.902,95.112z"/>
	<path id="path12" inkscape:connector-curvature="0" fill="#282828" d="M123.613,143.13c0.685,0.636,1.598,1.044,2.608,1.044
		c2.144,0,3.873-1.729,3.873-3.867c0-2.137-1.729-3.873-3.873-3.873c-1.757,0-3.175,1.19-3.652,2.801
		c-4.088,1.805-8.529,2.801-13.035,2.801c-17.794,0-32.271-14.477-32.271-32.271s14.477-32.271,32.271-32.271
		c3.946,0,7.764,0.744,11.403,2.117c0.602,1.352,1.944,2.3,3.521,2.3c2.137,0,3.867-1.733,3.867-3.873
		c0-2.134-1.729-3.87-3.867-3.87c-1.19,0-2.22,0.567-2.926,1.415c-3.839-1.349-7.858-2.065-11.997-2.065
		c-3.704,0-7.277,0.564-10.645,1.605l-8.553-39.178l-1.563,0.436c-32.665,9.22-55.484,39.399-55.484,73.382
		c0,3.68,0.27,7.387,0.795,11.026l0.249,1.75L68.27,112.36l-0.045-1.186c-0.017-0.467-0.021-0.937-0.021-1.411
		c0-13.761,6.896-26.585,18.192-34.232c0.467,0.197,0.986,0.311,1.525,0.311c2.155,0,3.894-1.747,3.894-3.894
		c0-2.151-1.74-3.894-3.894-3.894c-2.151,0-3.894,1.743-3.894,3.894c0,0.47,0.118,0.906,0.266,1.325
		c-11.894,8.245-19.15,21.868-19.15,36.49c0,0.114,0,0.228,0,0.342l-28.27,8.484c-0.346-2.919-0.526-5.883-0.526-8.826
		c0-32.077,21.173-60.62,51.697-69.975L95.99,76.17c-13.291,5.378-22.701,18.399-22.701,33.592c0,2.857,0.367,5.623,0.996,8.293
		l-38.372,11.655l0.425,1.453c9.424,32.288,39.523,54.844,73.199,54.844c2.213,0,4.434-0.097,6.599-0.284l1.632-0.138l-6.146-39.703
		C115.755,145.641,119.815,144.721,123.613,143.13z M114.24,182.799c-1.556,0.104-3.13,0.145-4.707,0.152
		c-31.814,0-60.309-20.979-69.823-51.199l27.588-8.376c4.472,13.889,15.539,24.728,29.501,28.899
		c0.512,1.556,1.926,2.698,3.652,2.698c2.151,0,3.894-1.743,3.894-3.901c0-2.151-1.743-3.887-3.894-3.887
		c-1.453,0-2.67,0.823-3.337,2.006c-12.72-3.998-22.778-13.972-26.89-26.699l4.873-1.48c4.641,14.187,17.818,24.528,33.443,24.956
		L114.24,182.799z"/>
	<path id="path14" inkscape:connector-curvature="0" fill="#282828" d="M109.786-3.509C47.198-3.509-3.541,47.23-3.541,109.818
		c0,62.585,50.739,113.327,113.327,113.327c62.585,0,113.327-50.743,113.327-113.327C223.113,47.23,172.37-3.509,109.786-3.509z
		 M109.786,189.999c-44.282,0-80.185-35.899-80.185-80.181c0-44.293,35.902-80.185,80.185-80.185
		c35.878,0,66.251,23.559,76.488,56.065h-59.776c-4.738-3.289-10.5-5.219-16.711-5.219c-16.203,0-29.338,13.135-29.338,29.338
		c0,16.206,13.135,29.342,29.338,29.342c5.008,0,9.718-1.259,13.848-3.472h-10.441v-4.856h-0.453c-0.64,1.826-2.352,3.14-4.389,3.14
		c-2.57,0-4.665-2.089-4.665-4.662s2.096-4.676,4.665-4.676c2.037,0,3.749,1.321,4.389,3.14h0.453v-21.235h-0.837
		c-0.636,1.819-2.352,3.137-4.385,3.137c-2.57,0-4.665-2.092-4.665-4.665c0-2.577,2.092-4.669,4.665-4.669
		c2.03,0,3.749,1.318,4.385,3.137h0.837V98.56h-9.909c-0.636,1.823-2.355,3.137-4.382,3.137c-2.577,0-4.665-2.092-4.665-4.669
		c0-2.573,2.089-4.665,4.665-4.665c2.03,0,3.746,1.318,4.382,3.137h9.909v-3.929h74.672v-0.073
		c1.376,5.879,2.103,12.022,2.103,18.323C189.967,154.1,154.068,189.999,109.786,189.999z"/>
	<path id="path16" inkscape:connector-curvature="0" fill="#282828" d="M106.677,68.537c0.944-0.069,1.899-0.1,2.857-0.1
		c11.894,0,23.217,5.129,31.074,14.069l0.45,0.522h39.932l-0.858-2.11c-11.773-28.792-39.489-47.395-70.598-47.395
		c-3.206,0-6.433,0.201-9.597,0.598l-1.639,0.208l7.041,34.298L106.677,68.537z M109.533,36.581
		c29.096,0,55.097,16.953,66.863,43.39h-33.955c-8.418-9.283-20.37-14.591-32.907-14.591c-0.581,0-1.155,0.01-1.729,0.031
		l-5.841-28.439C104.467,36.713,107.009,36.581,109.533,36.581z"/>
</g>
</svg>
