<?xml version="1.0" encoding="utf-8"?>
<!-- Generator: Adobe Illustrator 16.0.0, SVG Export Plug-In . SVG Version: 6.00 Build 0)  -->
<!DOCTYPE svg PUBLIC "-//W3C//DTD SVG 1.1//EN" "http://www.w3.org/Graphics/SVG/1.1/DTD/svg11.dtd">
<svg version="1.1" id="Layer_1" xmlns="http://www.w3.org/2000/svg" xmlns:xlink="http://www.w3.org/1999/xlink" x="0px" y="0px"
	 width="32px" height="32px" viewBox="-0.5 -0.5 32 32" enable-background="new -0.5 -0.5 32 32" xml:space="preserve">
<g>
	<circle fill="#FFFFFF" cx="15.5" cy="15.5" r="15.9"/>
	<g>
		<g>
			<path fill="#F3AE50" d="M10.7,12.9c-0.8-0.5-1.5-0.7-2.3-0.7c-0.9,0-1.7,0.3-2.4,1c-0.6,0.7-0.9,1.6-0.9,2.8s0.3,2.1,1,2.8
				c0.7,0.7,1.4,1,2.4,1c1.6,0,3.4-1.2,5.3-3.7C12.5,14.4,11.5,13.3,10.7,12.9z"/>
		</g>
		<g>
			<path fill="#F3AE50" d="M22.6,12.2c-0.699,0-1.5,0.2-2.3,0.7s-1.8,1.5-3.1,3.1c1.899,2.5,3.7,3.7,5.3,3.7c0.9,0,1.7-0.3,2.4-1
				c0.699-0.7,1-1.601,1-2.8c0-1.199-0.301-2.1-0.9-2.8C24.3,12.5,23.5,12.2,22.6,12.2z"/>
		</g>
		<g>
			<path fill="#F3AE50" d="M15.5-0.5c-8.8,0-16,7.2-16,16s7.2,16,16,16s16-7.2,16-16S24.3-0.5,15.5-0.5z M22.6,22.5
				c-2.5,0-4.898-1.4-7.1-4.2c-2.2,2.8-4.6,4.2-7.1,4.2c-1.6,0-3.1-0.6-4.2-1.9C3,19.4,2.4,17.8,2.4,15.9c0-1.8,0.6-3.4,1.8-4.7
				c1.2-1.1,2.6-1.7,4.2-1.7c2.5,0,4.9,1.4,7.1,4.2c2.2-2.8,4.6-4.2,7.1-4.2c1.601,0,3.101,0.6,4.2,1.9c1.2,1.3,1.8,2.8,1.8,4.7
				c0,1.9-0.6,3.4-1.8,4.7C25.6,21.9,24.2,22.5,22.6,22.5z"/>
		</g>
	</g>
</g>
</svg>
