<?xml version="1.0" encoding="utf-8"?>
<!-- Generator: Adobe Illustrator 16.0.0, SVG Export Plug-In . SVG Version: 6.00 Build 0)  -->
<!DOCTYPE svg PUBLIC "-//W3C//DTD SVG 1.1//EN" "http://www.w3.org/Graphics/SVG/1.1/DTD/svg11.dtd">
<svg version="1.1"
	 id="Layer_1" xmlns:rdf="http://www.w3.org/1999/02/22-rdf-syntax-ns#" xmlns:inkscape="http://www.inkscape.org/namespaces/inkscape" xmlns:cc="http://creativecommons.org/ns#" xmlns:dc="http://purl.org/dc/elements/1.1/" xmlns:sodipodi="http://sodipodi.sourceforge.net/DTD/sodipodi-0.dtd" xmlns:svg="http://www.w3.org/2000/svg" inkscape:version="0.91 r13725" sodipodi:docname="MAID.svg"
	 xmlns="http://www.w3.org/2000/svg" xmlns:xlink="http://www.w3.org/1999/xlink" x="0px" y="0px" width="32px" height="32px"
	 viewBox="-0.5 -0.5 32 32" enable-background="new -0.5 -0.5 32 32" xml:space="preserve">
<sodipodi:namedview  pagecolor="#ffffff" guidetolerance="10" showgrid="false" inkscape:cx="-60.057466" objecttolerance="10" borderopacity="1" inkscape:cy="113.3885" id="namedview4" gridtolerance="10" bordercolor="#666666" inkscape:zoom="1.0406699" inkscape:pageshadow="2" inkscape:pageopacity="0" inkscape:window-y="0" inkscape:current-layer="Layer_1" inkscape:window-width="1600" inkscape:window-maximized="0" inkscape:window-x="0" inkscape:window-height="900">
	</sodipodi:namedview>
<circle id="path9934" fill="#FFFFFF" cx="15.5" cy="15.5" r="15.5"/>
<path id="MAID_1_" inkscape:connector-curvature="0" fill="#5593D7" d="M15.62-0.5c-8.836,0-16,7.164-16,16c0,8.836,7.164,16,16,16
	c8.837,0,16-7.164,16-16C31.62,6.664,24.457-0.5,15.62-0.5L15.62-0.5z M18.617,24.498c-2.318-1.367-10.213-6.035-11.464-6.99
	c-1.371-1.044-1.256-3.809-1.234-4.181l10.71,6.353l-0.005-5.183l1.993-1.184V24.498L18.617,24.498z M22.567,20.484
	c0,2.636-3.097,4.283-3.288,4.382V12.15l-4.258,2.508l-2.042-1.174l9.588-5.394C22.567,10.538,22.567,18.21,22.567,20.484z
	 M22.567,7.331l-10.926,6.146l4.323,2.498l0.002,2.542L6.529,12.92c1.737-1.037,6.804-4.061,9.828-5.866
	c3.693-2.205,6.21,0.275,6.21,0.275V7.331L22.567,7.331z"/>
</svg>
