<?xml version="1.0" encoding="utf-8"?>
<!-- Generator: Adobe Illustrator 16.0.0, SVG Export Plug-In . SVG Version: 6.00 Build 0)  -->
<!DOCTYPE svg PUBLIC "-//W3C//DTD SVG 1.1//EN" "http://www.w3.org/Graphics/SVG/1.1/DTD/svg11.dtd">
<svg version="1.1"
	 id="Layer_1" xmlns:rdf="http://www.w3.org/1999/02/22-rdf-syntax-ns#" xmlns:inkscape="http://www.inkscape.org/namespaces/inkscape" xmlns:cc="http://creativecommons.org/ns#" xmlns:dc="http://purl.org/dc/elements/1.1/" xmlns:sodipodi="http://sodipodi.sourceforge.net/DTD/sodipodi-0.dtd" xmlns:svg="http://www.w3.org/2000/svg" inkscape:version="0.91 r13725" sodipodi:docname="MSC.svg"
	 xmlns="http://www.w3.org/2000/svg" xmlns:xlink="http://www.w3.org/1999/xlink" x="0px" y="0px" width="32px" height="32px"
	 viewBox="-0.5 -0.5 32 32" enable-background="new -0.5 -0.5 32 32" xml:space="preserve">
<sodipodi:namedview  pagecolor="#ffffff" guidetolerance="10" showgrid="false" inkscape:cx="-60.057466" objecttolerance="10" borderopacity="1" inkscape:cy="113.3885" id="namedview4" gridtolerance="10" bordercolor="#666666" inkscape:zoom="1.0406699" inkscape:pageshadow="2" inkscape:pageopacity="0" inkscape:window-y="36" inkscape:current-layer="Layer_1" inkscape:window-width="1518" inkscape:window-maximized="0" inkscape:window-x="36" inkscape:window-height="818">
	</sodipodi:namedview>
<circle id="path4136" fill="#FFFFFF" cx="15.5" cy="15.5" r="15.5"/>
<path id="MSC_alt" inkscape:connector-curvature="0" fill="#336699" d="M15.5-0.5c-8.836,0-16,7.164-16,16c0,8.836,7.164,16,16,16
	c8.836,0,16-7.164,16-16C31.5,6.664,24.336-0.5,15.5-0.5z M10.472,19.811l-5.105,1.113l7.022-13.553l2.034,4.527
	c-2.566,0.514-4.499,2.778-4.499,5.495C9.925,18.259,10.121,19.078,10.472,19.811z M15.529,21.307c-2.162,0-3.915-1.752-3.915-3.914
	c0-2.162,1.753-3.915,3.915-3.915c2.162,0,3.914,1.753,3.914,3.915C19.443,19.555,17.691,21.307,15.529,21.307z M20.582,19.822
	c0.354-0.734,0.552-1.559,0.552-2.43c0-2.698-1.907-4.951-4.446-5.484L18.82,7.37l6.812,13.554L20.582,19.822z"/>
</svg>
