<?xml version="1.0" encoding="utf-8"?>
<!-- Generator: Adobe Illustrator 16.0.0, SVG Export Plug-In . SVG Version: 6.00 Build 0)  -->
<!DOCTYPE svg PUBLIC "-//W3C//DTD SVG 1.1//EN" "http://www.w3.org/Graphics/SVG/1.1/DTD/svg11.dtd">
<svg version="1.1" id="Layer_1" xmlns="http://www.w3.org/2000/svg" xmlns:xlink="http://www.w3.org/1999/xlink" x="0px" y="0px"
	 width="32px" height="32px" viewBox="-0.5 -0.5 32 32" enable-background="new -0.5 -0.5 32 32" xml:space="preserve">
<g>
	<g>
		<circle fill="#F3AE50" cx="15.5" cy="15.5" r="16"/>
	</g>
	<g>
		<g>
			<g>
				<defs>
					<circle id="SVGID_1_" cx="15.5" cy="15.5" r="16"/>
				</defs>
				<clipPath id="SVGID_2_">
					<use xlink:href="#SVGID_1_"  overflow="visible"/>
				</clipPath>
				<g clip-path="url(#SVGID_2_)">
					<path fill="#FAF9F8" d="M15.5-1.3C6.2-1.3-1.3,6.2-1.3,15.5s7.5,16.8,16.7,16.8c9.3,0,16.8-7.5,16.8-16.8
						C32.3,6.3,24.7-1.3,15.5-1.3z M29.6,23.1C27.9,26.3,25.3,28.7,22,30.2C21.1,30.6,20.2,31,19.2,31.1
						c-0.5,0.199-1,0.301-1.601,0.399C16.999,31.6,16.299,31.6,15.7,31.6c-0.5,0-1.1,0-1.6-0.101c-2.7-0.2-5.1-1-7.3-2.399
						C6.7,29,6.6,29,6.5,28.9c-0.3-0.2-0.6-0.4-0.9-0.601c-0.7-0.5-1.3-1.1-2-1.8c0.1,0,0-0.1-0.1-0.2C3.3,26.1,3.2,25.9,3,25.7
						c-1.3-1.5-2.2-3.101-2.8-4.8V20.8v-0.1c-0.1-0.2-0.1-0.3-0.2-0.5c-0.3-0.9-0.4-1.8-0.5-2.7c-0.1-0.6-0.2-1.2-0.2-1.8l0,0
						c0-0.2,0-0.4,0-0.6c0-0.2,0-0.3,0-0.5c0-0.5,0-0.9,0-1.1c0.1-0.5,0.3-0.6,0.9-0.6c0.2,0,0.5,0,0.8,0c1.9,0,3.9,0,5.8,0
						c0.5,0,0.6,0.1,0.4,0.6c-0.2,0.5-1.3,4.6-1.6,6c-0.1,0.6-0.1,1.4,0.4,1.8c1.3,0.7,2.4,0.2,2.9-1.1C9,20,9,19.9,9.1,19.7
						c0.2-0.5,1.1-4.3,1.5-5.3c0.5-1.4,1.5-2.1,2.8-1.9c0.3,0,0.6,0.1,0.8,0.4c0.4,0.4,0.5,1,0.3,1.6c-0.4,1.6-0.8,3.2-1.2,4.8
						c-0.1,0.5-0.2,1.101-0.1,1.601c0.1,0.199,0.2,0.3,0.4,0.5c0.2,0.199,0.5,0.399,0.8,0.399c0.9,0.101,1.5-0.5,1.9-1.2
						c0.101-0.199,0.2-0.5,0.3-0.8c0.4-1.6,0.801-3.1,1.301-4.7c0.199-0.6,0.3-1.2,0.699-1.7c0.101-0.1,0.2-0.2,0.301-0.3L19,13
						l0.1-0.1l0.101-0.1l0,0c0,0,0,0,0.1,0c0.3-0.2,0.601-0.2,1-0.2c1-0.1,1.601,0.4,1.7,1.1c0,0.2,0,0.4,0,0.6
						c-0.3,1.6-0.8,3.2-1.2,4.7c0,0.2-0.1,0.3-0.1,0.5C20.6,19.8,20.6,20.1,20.6,20.4C20.5,21.5,21.4,21.8,22.1,21.8
						c0.102,0,5.301,0,7.9,0c0.2,0,0.5-0.1,0.5,0.3C30.1,22.4,29.9,22.7,29.6,23.1z M31.6,16.1c0,0.5,0,0.9-0.1,1.4
						c0,0.2-0.1,0.5-0.2,0.7c-1.3,0-5.1,0-6.7,0c-0.398,0-0.398-0.101-0.3-0.5c0.4-1.5,0.9-2.9,1.101-4.4c0.301-2.9-1.601-4.6-4.5-4
						C20.6,9.4,20.3,9.5,20,9.6c-0.9,0.4-1.6,1-2.2,1.7c-0.899-2.7-4.2-3-6.3-0.7c-0.4-1.1-1.2-1.3-1.8-1.3c-2.8,0-5.7,0-8.5,0
						C0.6,9.4,0.5,9.4,0.7,8.9C1,8.2,1.4,7.6,1.7,7c1.6-2.6,3.9-4.7,6.8-6c2-1,4.1-1.5,6.3-1.6c0.7,0,1.5,0,2.2,0.1
						c1.4,0.1,2.8,0.4,4.2,1c0.1,0,0.3,0,0.399,0.1C21.9,0.7,22.2,0.8,22.4,1C23,1.2,23.5,1.5,24.1,1.9C24.3,2,24.5,2.2,24.7,2.3
						l0.1,0.1c0.3,0.1,0.5,0.3,0.7,0.4c2.4,1.8,4.1,4.2,5.2,7.2c0.1,0.2,0.2,0.4,0.2,0.7c0.199,0.5,0.3,1,0.398,1.5
						c0.2,0.9,0.301,1.8,0.301,2.7c0,0.2,0,0.4,0,0.6S31.6,15.9,31.6,16.1z"/>
				</g>
			</g>
		</g>
	</g>
</g>
</svg>
