<?xml version="1.0" encoding="utf-8"?>
<!-- Generator: Adobe Illustrator 16.0.0, SVG Export Plug-In . SVG Version: 6.00 Build 0)  -->
<!DOCTYPE svg PUBLIC "-//W3C//DTD SVG 1.1//EN" "http://www.w3.org/Graphics/SVG/1.1/DTD/svg11.dtd">
<svg version="1.1"
	 id="Layer_1" xmlns:rdf="http://www.w3.org/1999/02/22-rdf-syntax-ns#" xmlns:inkscape="http://www.inkscape.org/namespaces/inkscape" xmlns:cc="http://creativecommons.org/ns#" xmlns:dc="http://purl.org/dc/elements/1.1/" xmlns:sodipodi="http://sodipodi.sourceforge.net/DTD/sodipodi-0.dtd" xmlns:svg="http://www.w3.org/2000/svg" inkscape:version="0.91 r13725" sodipodi:docname="NBT.svg"
	 xmlns="http://www.w3.org/2000/svg" xmlns:xlink="http://www.w3.org/1999/xlink" x="0px" y="0px" width="32px" height="32px"
	 viewBox="-0.5 -0.5 32 32" enable-background="new -0.5 -0.5 32 32" xml:space="preserve">
<sodipodi:namedview  pagecolor="#ffffff" guidetolerance="10" showgrid="false" inkscape:cx="54.003373" objecttolerance="10" borderopacity="1" inkscape:cy="-29.887539" id="namedview4" gridtolerance="10" bordercolor="#666666" inkscape:zoom="4.16" inkscape:pageshadow="2" inkscape:pageopacity="0" inkscape:window-y="0" inkscape:current-layer="Layer_1" inkscape:window-width="1600" inkscape:window-maximized="0" inkscape:window-x="0" inkscape:window-height="900">
	</sodipodi:namedview>
<circle id="path4136" fill="#FFFFFF" cx="15.5" cy="15.5" r="15.95"/>
<path id="NBT" inkscape:connector-curvature="0" fill="#F3AE50" d="M28.661,6.401l-5.886,19.058l-1.602-5.172L26.305,3.7
	c-0.221-0.202-0.447-0.398-0.68-0.588l-4.894,15.748l-1.603-5.175l3.848-12.333C20.744,0.17,18.201-0.5,15.5-0.5
	c-8.836,0-16,7.164-16,16c0,3.451,1.093,6.647,2.951,9.262L8.136,5.98l1.611,5.203l-4.916,16.24
	c0.217,0.194,0.439,0.382,0.666,0.565L10.17,12.55l1.611,5.203L8.159,29.72c2.199,1.138,4.694,1.78,7.341,1.78
	c8.836,0,16-7.164,16-16C31.5,12.12,30.451,8.984,28.661,6.401z M15.979,25.643c-0.764,0-1.333-0.516-1.504-1.072
	c-0.17-0.558-5.856-19.055-5.856-19.055s1.533,0,2.143,0c0.611,0,1.153,0.362,1.315,0.872c0.161,0.51,5.918,19.255,5.918,19.255
	S16.743,25.643,15.979,25.643z M20.045,25.639c-0.726,0-1.373-0.555-1.582-1.26c-0.209-0.706-5.71-18.863-5.71-18.863
	s1.385,0,2.074,0s1.232,0.398,1.41,0.98c0.177,0.582,5.794,19.143,5.794,19.143S20.77,25.639,20.045,25.639L20.045,25.639z"/>
</svg>
