<?xml version="1.0" encoding="utf-8"?>
<!-- Generator: Adobe Illustrator 16.0.0, SVG Export Plug-In . SVG Version: 6.00 Build 0)  -->
<!DOCTYPE svg PUBLIC "-//W3C//DTD SVG 1.1//EN" "http://www.w3.org/Graphics/SVG/1.1/DTD/svg11.dtd">
<svg version="1.1"
	 id="Layer_1" xmlns:rdf="http://www.w3.org/1999/02/22-rdf-syntax-ns#" xmlns:inkscape="http://www.inkscape.org/namespaces/inkscape" xmlns:cc="http://creativecommons.org/ns#" xmlns:dc="http://purl.org/dc/elements/1.1/" xmlns:sodipodi="http://sodipodi.sourceforge.net/DTD/sodipodi-0.dtd" xmlns:svg="http://www.w3.org/2000/svg" inkscape:version="0.91 r13725" sodipodi:docname="NMC.svg"
	 xmlns="http://www.w3.org/2000/svg" xmlns:xlink="http://www.w3.org/1999/xlink" x="0px" y="0px" width="32px" height="32px"
	 viewBox="-0.5 -0.5 32 32" enable-background="new -0.5 -0.5 32 32" xml:space="preserve">
<sodipodi:namedview  pagecolor="#ffffff" guidetolerance="10" showgrid="false" inkscape:cx="-60.057466" objecttolerance="10" borderopacity="1" inkscape:cy="-26.17484" id="namedview8" gridtolerance="10" bordercolor="#666666" inkscape:zoom="3.1526905" inkscape:pageshadow="2" inkscape:pageopacity="0" inkscape:window-y="0" inkscape:current-layer="Layer_1" inkscape:window-width="1600" inkscape:window-maximized="0" inkscape:window-x="0" inkscape:window-height="900">
	</sodipodi:namedview>
<circle id="path4205" fill="#FFFFFF" cx="15.5" cy="15.5" r="15.5"/>
<g id="NMC_2_" transform="matrix(0.14086553,0,0,0.14086553,0,-1.4071904e-4)">
	<polygon id="polygon4" fill="#6787B7" points="83.042,83.466 132.246,151.082 136.599,137.307 86.699,68.564 	"/>
	<path id="path6" inkscape:connector-curvature="0" fill="#6787B7" d="M110.034-3.548C47.301-3.548-3.549,47.305-3.549,110.035
		c0,62.733,50.85,113.583,113.583,113.583c62.726,0,113.583-50.857,113.583-113.583C223.617,47.305,172.759-3.548,110.034-3.548z
		 M154.388,154.881c-1.581,6.011-5.699,11.279-10.496,13.442c-4.007,1.802-15.973,1.456-15.973,1.456L78.158,101.32
		c0,0-12.784,47.752-14.444,53.561c-2.423,8.479-6.43,10.905-10.437,13.123c-4.007,2.211-16.763,1.775-16.763,1.775
		S62.802,73.767,65.048,65.191c2.25-8.576,7.626-12.479,11.633-13.952c4.007-1.477,15.078-0.842,15.078-0.842l49.658,67.998
		l14.6-53.714c0,0,1.948-6.853,7.647-11.175c5.692-4.322,18.974-3.244,18.974-3.244S155.969,148.871,154.388,154.881z"/>
</g>
</svg>
