<?xml version="1.0" encoding="utf-8"?>
<!-- Generator: Adobe Illustrator 16.0.0, SVG Export Plug-In . SVG Version: 6.00 Build 0)  -->
<!DOCTYPE svg PUBLIC "-//W3C//DTD SVG 1.1//EN" "http://www.w3.org/Graphics/SVG/1.1/DTD/svg11.dtd">
<svg version="1.1"
	 id="Layer_1" xmlns:rdf="http://www.w3.org/1999/02/22-rdf-syntax-ns#" xmlns:inkscape="http://www.inkscape.org/namespaces/inkscape" xmlns:cc="http://creativecommons.org/ns#" xmlns:dc="http://purl.org/dc/elements/1.1/" xmlns:sodipodi="http://sodipodi.sourceforge.net/DTD/sodipodi-0.dtd" xmlns:svg="http://www.w3.org/2000/svg" inkscape:version="0.91 r13725" sodipodi:docname="NXT.svg"
	 xmlns="http://www.w3.org/2000/svg" xmlns:xlink="http://www.w3.org/1999/xlink" x="0px" y="0px" width="32px" height="32px"
	 viewBox="-0.5 -0.5 32 32" enable-background="new -0.5 -0.5 32 32" xml:space="preserve">
<sodipodi:namedview  pagecolor="#ffffff" guidetolerance="10" showgrid="false" inkscape:cx="11.093301" objecttolerance="10" borderopacity="1" inkscape:cy="8.7550152" id="namedview4" gridtolerance="10" bordercolor="#666666" inkscape:zoom="9.5571703" inkscape:pageshadow="2" inkscape:pageopacity="0" inkscape:window-y="0" inkscape:current-layer="Layer_1" inkscape:window-width="1600" inkscape:window-maximized="0" inkscape:window-x="0" inkscape:window-height="900">
	</sodipodi:namedview>
<circle id="path4136" fill="#FFFFFF" cx="15.5" cy="15.5" r="15.95"/>
<path id="NXT_alt" inkscape:connector-curvature="0" fill="#002E43" d="M24.875,21.58l-12.186-8.075H9.438
	c-1.128,0-2.043-0.915-2.043-2.043c0-1.128,0.915-2.042,2.043-2.042h4.483l12.185,8.075h5.242c0.01,0,0.02,0.002,0.029,0.002
	c0.08-0.654,0.123-1.32,0.123-1.996s-0.043-1.341-0.123-1.995h-6.081c-1.128,0-2.043-0.915-2.043-2.043
	c0-1.128,0.915-2.042,2.043-2.042h5.007C27.909,3.599,22.184-0.5,15.5-0.5C8.273-0.5,2.167,4.291,0.181,10.87l9.997,6.624h3.154
	c1.128,0,2.043,0.915,2.043,2.043c0,1.129-0.915,2.043-2.043,2.043H8.947l-9.445-6.259C-0.499,15.381-0.5,15.44-0.5,15.5
	c0,8.836,7.164,16,16,16c6.684,0,12.409-4.099,14.803-9.92H24.875L24.875,21.58z"/>
</svg>
