<?xml version="1.0" encoding="utf-8"?>
<!-- Generator: Adobe Illustrator 16.0.0, SVG Export Plug-In . SVG Version: 6.00 Build 0)  -->
<!DOCTYPE svg PUBLIC "-//W3C//DTD SVG 1.1//EN" "http://www.w3.org/Graphics/SVG/1.1/DTD/svg11.dtd">
<svg version="1.1"
	 id="Layer_1" xmlns:rdf="http://www.w3.org/1999/02/22-rdf-syntax-ns#" xmlns:inkscape="http://www.inkscape.org/namespaces/inkscape" xmlns:cc="http://creativecommons.org/ns#" xmlns:dc="http://purl.org/dc/elements/1.1/" xmlns:sodipodi="http://sodipodi.sourceforge.net/DTD/sodipodi-0.dtd" xmlns:svg="http://www.w3.org/2000/svg" inkscape:version="0.91 r13725" sodipodi:docname="OPAL.svg"
	 xmlns="http://www.w3.org/2000/svg" xmlns:xlink="http://www.w3.org/1999/xlink" x="0px" y="0px" width="32px" height="32px"
	 viewBox="-0.5 -0.5 32 32" enable-background="new -0.5 -0.5 32 32" xml:space="preserve">
<sodipodi:namedview  pagecolor="#ffffff" guidetolerance="10" showgrid="false" inkscape:cx="-60.057466" objecttolerance="10" borderopacity="1" inkscape:cy="113.3885" id="namedview4" gridtolerance="10" bordercolor="#666666" inkscape:zoom="1.0406699" inkscape:pageshadow="2" inkscape:pageopacity="0" inkscape:window-y="0" inkscape:current-layer="Layer_1" inkscape:window-width="1600" inkscape:window-maximized="0" inkscape:window-x="0" inkscape:window-height="900">
	</sodipodi:namedview>
<circle id="path4755" fill="#FFFFFF" cx="15.5" cy="15.5" r="15.5"/>
<path id="OPAL_alt" inkscape:connector-curvature="0" fill="#7193AA" d="M15.5-0.5c-8.836,0-16,7.164-16,16c0,8.836,7.164,16,16,16
	c8.836,0,16-7.164,16-16C31.5,6.664,24.336-0.5,15.5-0.5z M11.322,8.25l3.901,2.252l-3.901,2.252V8.25z M6.993,10.755l3.901,2.253
	l-3.901,2.252V10.755z M6.993,15.769l3.901,2.253l-3.901,2.252V15.769z M11.024,22.78l-3.901-2.253l3.901-2.252V22.78z
	 M11.024,17.768l-3.901-2.253l3.901-2.252V17.768z M11.024,12.754l-3.901-2.252l3.901-2.252V12.754L11.024,12.754z M11.322,18.245
	l3.901,2.253l-3.901,2.252V18.245z M15.344,25.246l-3.901-2.252l3.901-2.253V25.246z M15.344,10.259l-3.901-2.253l3.901-2.252
	V10.259z M19.976,8.25l3.901,2.252l-3.901,2.252V8.25z M19.976,13.262l3.901,2.252l-3.901,2.253V13.262z M15.656,5.754l3.901,2.252
	l-3.901,2.253V5.754z M15.656,25.246V20.74l3.901,2.254L15.656,25.246z M19.678,22.75l-3.901-2.252l3.901-2.253V22.75z
	 M19.678,12.754l-3.901-2.252l3.901-2.252V12.754z M19.976,22.78v-4.505l3.901,2.252L19.976,22.78z M24.007,20.273l-3.901-2.252
	l3.901-2.253V20.273z M24.007,15.261l-3.901-2.252l3.901-2.253V15.261z"/>
</svg>
