<?xml version="1.0" encoding="utf-8"?>
<!-- Generator: Adobe Illustrator 16.0.0, SVG Export Plug-In . SVG Version: 6.00 Build 0)  -->
<!DOCTYPE svg PUBLIC "-//W3C//DTD SVG 1.1//EN" "http://www.w3.org/Graphics/SVG/1.1/DTD/svg11.dtd">
<svg version="1.1"
	 id="Layer_1" xmlns:rdf="http://www.w3.org/1999/02/22-rdf-syntax-ns#" xmlns:inkscape="http://www.inkscape.org/namespaces/inkscape" xmlns:cc="http://creativecommons.org/ns#" xmlns:dc="http://purl.org/dc/elements/1.1/" xmlns:sodipodi="http://sodipodi.sourceforge.net/DTD/sodipodi-0.dtd" xmlns:svg="http://www.w3.org/2000/svg" inkscape:version="0.91 r13725" sodipodi:docname="POT.svg"
	 xmlns="http://www.w3.org/2000/svg" xmlns:xlink="http://www.w3.org/1999/xlink" x="0px" y="0px" width="32px" height="32px"
	 viewBox="-0.5 -0.5 32 32" enable-background="new -0.5 -0.5 32 32" xml:space="preserve">
<sodipodi:namedview  pagecolor="#ffffff" guidetolerance="10" showgrid="false" inkscape:cx="-60.057466" objecttolerance="10" borderopacity="1" inkscape:cy="113.3885" id="namedview8" gridtolerance="10" bordercolor="#666666" inkscape:zoom="1.0406699" inkscape:pageshadow="2" inkscape:pageopacity="0" inkscape:window-y="0" inkscape:current-layer="Layer_1" inkscape:window-width="1600" inkscape:window-maximized="0" inkscape:window-x="0" inkscape:window-height="900">
	</sodipodi:namedview>
<circle id="path4744" fill="#FFFFFF" cx="15.5" cy="15.5" r="15.5"/>
<g id="POT_alt" transform="matrix(0.14139147,0,0,0.14139147,-0.06433312,-0.06432312)">
	<path id="path4" inkscape:connector-curvature="0" fill="#105B2F" d="M126.698,70.949c-9.324,0-34.023,0-34.023,0l-1.82,9.431h30
		l-2.694,14.256H88.103l-2.21,11.455c7.915,0,26.695,0,36.199,0c12.239,0,23.58-8.084,25.037-20.883
		C148.593,72.407,136.015,70.949,126.698,70.949z"/>
	<path id="path6" inkscape:connector-curvature="0" fill="#105B2F" d="M110.08-3.081C47.584-3.081-3.081,47.584-3.081,110.08
		c0,62.493,50.665,113.161,113.161,113.161c62.493,0,113.161-50.668,113.161-113.161C223.241,47.584,172.573-3.081,110.08-3.081z
		 M168.719,86.942c-4.407,36.247-39.776,39.245-55.047,39.245c-11.158,0-25.006,0-31.661,0l-8.309,43.064H52.477L66.999,94.64
		H54.611l2.694-14.259h12.47l5.833-29.979c0,0,35.594,0,43.119,0C147.557,50.402,172.822,53.088,168.719,86.942z"/>
</g>
</svg>
