<?xml version="1.0" encoding="utf-8"?>
<!-- Generator: Adobe Illustrator 16.0.0, SVG Export Plug-In . SVG Version: 6.00 Build 0)  -->
<!DOCTYPE svg PUBLIC "-//W3C//DTD SVG 1.1//EN" "http://www.w3.org/Graphics/SVG/1.1/DTD/svg11.dtd">
<svg version="1.1" id="Layer_1" xmlns="http://www.w3.org/2000/svg" xmlns:xlink="http://www.w3.org/1999/xlink" x="0px" y="0px"
	 width="32px" height="32px" viewBox="-0.5 -0.5 32 32" enable-background="new -0.5 -0.5 32 32" xml:space="preserve">
<g>
	<circle fill="#41BDCC" cx="15.5" cy="15.5" r="16"/>
	<g>
		<g>
			<g>
				<g>
					<defs>
						<circle id="SVGID_1_" cx="15.5" cy="15.5" r="16"/>
					</defs>
					<clipPath id="SVGID_2_">
						<use xlink:href="#SVGID_1_"  overflow="visible"/>
					</clipPath>
					<g clip-path="url(#SVGID_2_)">
						<path fill="#FFFFFF" d="M20.5,22.7c0.8,0,1.5-0.601,1.5-1.4V-1.1c-1.1-0.5-2.3-0.9-3.5-1.1v9.5h-8C9.7,7.3,9,8,9,8.8V32
							c1.1,0.5,2.3,0.9,3.5,1.1V22.7H20.5L20.5,22.7z M12.4,13.4c0-1.7,1.4-3.2,3.2-3.2c1.7,0,3.2,1.4,3.2,3.2v3.3
							c0,1.7-1.399,3.2-3.2,3.2c-1.7,0-3.2-1.4-3.2-3.2V13.4z"/>
					</g>
				</g>
			</g>
		</g>
	</g>
</g>
</svg>
