<?xml version="1.0" encoding="utf-8"?>
<!-- Generator: Adobe Illustrator 16.0.0, SVG Export Plug-In . SVG Version: 6.00 Build 0)  -->
<!DOCTYPE svg PUBLIC "-//W3C//DTD SVG 1.1//EN" "http://www.w3.org/Graphics/SVG/1.1/DTD/svg11.dtd">
<svg version="1.1"
	 id="Layer_1" xmlns:rdf="http://www.w3.org/1999/02/22-rdf-syntax-ns#" xmlns:inkscape="http://www.inkscape.org/namespaces/inkscape" xmlns:cc="http://creativecommons.org/ns#" xmlns:dc="http://purl.org/dc/elements/1.1/" xmlns:sodipodi="http://sodipodi.sourceforge.net/DTD/sodipodi-0.dtd" xmlns:svg="http://www.w3.org/2000/svg" inkscape:version="0.91 r13725" sodipodi:docname="QRK.svg"
	 xmlns="http://www.w3.org/2000/svg" xmlns:xlink="http://www.w3.org/1999/xlink" x="0px" y="0px" width="32px" height="32px"
	 viewBox="-0.5 -0.5 32 32" enable-background="new -0.5 -0.5 32 32" xml:space="preserve">
<sodipodi:namedview  pagecolor="#ffffff" guidetolerance="10" showgrid="false" inkscape:cx="-60.057466" objecttolerance="10" borderopacity="1" inkscape:cy="113.3885" id="namedview8" gridtolerance="10" bordercolor="#666666" inkscape:zoom="1.0406699" inkscape:pageshadow="2" inkscape:pageopacity="0" inkscape:window-y="0" inkscape:current-layer="Layer_1" inkscape:window-width="1600" inkscape:window-maximized="0" inkscape:window-x="0" inkscape:window-height="900">
	</sodipodi:namedview>
<circle id="path4759" fill="#FFFFFF" cx="15.5" cy="15.5" r="15.5"/>
<g id="QRK" transform="matrix(0.1411221,0,0,0.1411221,0,-0.00323581)">
	<path id="path4" inkscape:connector-curvature="0" fill="#4D4D4D" d="M109.834-3.52C47.219-3.52-3.543,47.241-3.543,109.857
		c0,62.612,50.762,113.377,113.377,113.377c62.612,0,113.377-50.765,113.377-113.377C223.211,47.241,172.446-3.52,109.834-3.52z
		 M169.069,109.539c-3.197,1.841-6.588,2.983-10.02,3.533c-0.007,0.038-0.014,0.073-0.014,0.111
		c-8.359,0.716-16.248,5.339-20.774,13.151c-4.629,7.979-4.636,17.362-0.851,25.071c1.114,3.1,1.765,6.429,1.765,9.909
		c0,16.207-13.134,29.348-29.337,29.348c-16.21,0-29.348-13.141-29.348-29.348c0-3.668,0.706-7.169,1.938-10.408
		c-0.031-0.014-0.059-0.042-0.087-0.062c3.578-7.605,3.515-16.767-0.986-24.607c-4.598-7.993-12.726-12.698-21.293-13.273
		c-3.242-0.581-6.446-1.682-9.463-3.418c-14.034-8.103-18.847-26.054-10.743-40.084c8.103-14.037,26.05-18.843,40.087-10.743
		c3.187,1.841,5.868,4.211,8.062,6.906c0.007-0.003,0.017-0.007,0.028-0.014c4.806,6.882,12.771,11.394,21.805,11.394
		c9.02,0,16.992-4.512,21.801-11.394c0.007,0.007,0.007,0.007,0.014,0.01c2.194-2.699,4.879-5.065,8.062-6.91
		c14.048-8.103,31.998-3.294,40.094,10.743C187.905,83.485,183.103,101.432,169.069,109.539z"/>
	<path id="path6" inkscape:connector-curvature="0" fill="#4D4D4D" d="M109.838,88.038c-12.055,0-21.822,9.764-21.822,21.815
		s9.768,21.822,21.822,21.822c12.044,0,21.822-9.771,21.822-21.822S121.889,88.038,109.838,88.038z"/>
</g>
</svg>
