<?xml version="1.0" encoding="utf-8"?>
<!-- Generator: Adobe Illustrator 16.0.0, SVG Export Plug-In . SVG Version: 6.00 Build 0)  -->
<!DOCTYPE svg PUBLIC "-//W3C//DTD SVG 1.1//EN" "http://www.w3.org/Graphics/SVG/1.1/DTD/svg11.dtd">
<svg version="1.1"
	 id="Layer_1" xmlns:rdf="http://www.w3.org/1999/02/22-rdf-syntax-ns#" xmlns:inkscape="http://www.inkscape.org/namespaces/inkscape" xmlns:cc="http://creativecommons.org/ns#" xmlns:dc="http://purl.org/dc/elements/1.1/" xmlns:sodipodi="http://sodipodi.sourceforge.net/DTD/sodipodi-0.dtd" xmlns:svg="http://www.w3.org/2000/svg" inkscape:version="0.91 r13725" sodipodi:docname="SDC.svg"
	 xmlns="http://www.w3.org/2000/svg" xmlns:xlink="http://www.w3.org/1999/xlink" x="0px" y="0px" width="32px" height="32px"
	 viewBox="-0.5 -0.5 32 32" enable-background="new -0.5 -0.5 32 32" xml:space="preserve">
<sodipodi:namedview  pagecolor="#ffffff" guidetolerance="10" showgrid="false" inkscape:cx="-60.057466" objecttolerance="10" borderopacity="1" inkscape:cy="113.3885" id="namedview8" gridtolerance="10" bordercolor="#666666" inkscape:zoom="1.0406699" inkscape:pageshadow="2" inkscape:pageopacity="0" inkscape:window-y="0" inkscape:current-layer="Layer_1" inkscape:window-width="1600" inkscape:window-maximized="0" inkscape:window-x="0" inkscape:window-height="900">
	</sodipodi:namedview>
<circle id="path9949" fill="#FFFFFF" cx="15.5" cy="15.5" r="15.5"/>
<g id="SDC_alt" transform="matrix(0.14097662,0,0,0.14097662,0.02974607,0.02975607)">
	<path id="path4" inkscape:connector-curvature="0" fill="#E41D38" d="M58.42,78.91v59.261l51.316,29.627l51.316-29.627V78.91
		l-51.316-29.627L58.42,78.91z M149.802,117.564l-13.757-7.793V93.35l-26.309-15.188L91.189,88.868l58.614,33.157v9.649
		l-40.066,23.13l-40.07-23.13V98.348l13.761,7.793v17.588l26.309,15.191l19.534-11.284L69.666,93.89v-8.482l40.07-23.137
		l40.066,23.137V117.564z"/>
	<path id="path6" inkscape:connector-curvature="0" fill="#E41D38" d="M109.736-3.758c-62.68,0-113.494,50.814-113.494,113.494
		c0,62.676,50.814,113.494,113.494,113.494c62.676,0,113.494-50.817,113.494-113.494C223.23,47.056,172.412-3.758,109.736-3.758z
		 M174.158,146.935l-64.422,37.192l-64.422-37.192V72.541l64.422-37.195l64.422,37.195V146.935z"/>
</g>
</svg>
