<?xml version="1.0" encoding="utf-8"?>
<!-- Generator: Adobe Illustrator 16.0.0, SVG Export Plug-In . SVG Version: 6.00 Build 0)  -->
<!DOCTYPE svg PUBLIC "-//W3C//DTD SVG 1.1//EN" "http://www.w3.org/Graphics/SVG/1.1/DTD/svg11.dtd">
<svg version="1.1"
	 id="Layer_1" xmlns:rdf="http://www.w3.org/1999/02/22-rdf-syntax-ns#" xmlns:inkscape="http://www.inkscape.org/namespaces/inkscape" xmlns:cc="http://creativecommons.org/ns#" xmlns:dc="http://purl.org/dc/elements/1.1/" xmlns:sodipodi="http://sodipodi.sourceforge.net/DTD/sodipodi-0.dtd" xmlns:svg="http://www.w3.org/2000/svg" inkscape:version="0.91 r13725" sodipodi:docname="SYNC.svg"
	 xmlns="http://www.w3.org/2000/svg" xmlns:xlink="http://www.w3.org/1999/xlink" x="0px" y="0px" width="32px" height="32px"
	 viewBox="-0.5 -0.5 32 32" enable-background="new -0.5 -0.5 32 32" xml:space="preserve">
<sodipodi:namedview  pagecolor="#ffffff" guidetolerance="10" showgrid="false" inkscape:cx="28.303946" objecttolerance="10" borderopacity="1" inkscape:cy="19.684981" id="namedview8" gridtolerance="10" bordercolor="#666666" inkscape:zoom="9.5532373" inkscape:pageshadow="2" inkscape:pageopacity="0" inkscape:window-y="36" inkscape:current-layer="Layer_1" inkscape:window-width="1518" inkscape:window-maximized="0" inkscape:window-x="36" inkscape:window-height="818">
	</sodipodi:namedview>
<circle id="path4744" fill="#FFFFFF" cx="15.5" cy="15.5" r="15.5"/>
<g id="SYNC_alt" transform="matrix(0.14128784,0,0,0.14128784,-0.04083219,-0.04082219)">
	<polygon id="polygon4" fill="#008DD1" points="90.928,99.474 129.14,130.273 129.14,120.714 90.928,89.918 	"/>
	<path id="path6" inkscape:connector-curvature="0" fill="#008DD1" d="M109.994-3.25C47.452-3.25-3.25,47.452-3.25,109.994
		c0,62.538,50.702,113.244,113.244,113.244c62.538,0,113.244-50.705,113.244-113.244C223.238,47.452,172.532-3.25,109.994-3.25z
		 M110.63,181.186c-40.11,0-56.981-32.112-56.981-56.097c0-16.568,0-29.783,0-29.783l36.996,29.783H67.369
		c0,18.22,15.009,42.377,41.568,42.377c31.166,0,43.192-25.65,43.192-42.377l12.911,10.561
		C165.04,144.906,150.269,181.186,110.63,181.186z M143.268,117.77c0,0,2.032,24.088-13.92,33.944
		c-15.959,9.856-27.444,6.504-36.895,1.32c-9.452-5.184-14.228-16.595-14.228-18.8h15.448c0,0,3.456,8.84,14.228,9.856
		c10.776,1.016,14.632-4.928,14.632-4.928l-45.528-36.74c0,0-1.628-21.852,11.28-32.116c12.908-10.268,26.521-10.468,37.808-4.372
		c11.28,6.1,15.959,19.512,15.959,19.512H126.7c0,0-3.56-7.928-13.412-9.552c-9.86-1.624-15.555,4.876-15.555,4.876L143.268,117.77z
		 M166.339,124.682l-36.992-29.78h23.272c0-18.227-15.006-42.38-41.568-42.38c-31.169,0-43.196,25.643-43.196,42.38L54.948,84.33
		c0-9.248,14.771-45.532,54.41-45.532c40.11,0,56.981,32.116,56.981,56.104C166.339,111.466,166.339,124.682,166.339,124.682z"/>
</g>
</svg>
