<?xml version="1.0" encoding="utf-8"?>
<!-- Generator: Adobe Illustrator 16.0.0, SVG Export Plug-In . SVG Version: 6.00 Build 0)  -->
<!DOCTYPE svg PUBLIC "-//W3C//DTD SVG 1.1//EN" "http://www.w3.org/Graphics/SVG/1.1/DTD/svg11.dtd">
<svg version="1.1"
	 id="Layer_1" xmlns:rdf="http://www.w3.org/1999/02/22-rdf-syntax-ns#" xmlns:inkscape="http://www.inkscape.org/namespaces/inkscape" xmlns:cc="http://creativecommons.org/ns#" xmlns:dc="http://purl.org/dc/elements/1.1/" xmlns:sodipodi="http://sodipodi.sourceforge.net/DTD/sodipodi-0.dtd" xmlns:svg="http://www.w3.org/2000/svg" inkscape:version="0.91 r13725" sodipodi:docname="UNITY.svg"
	 xmlns="http://www.w3.org/2000/svg" xmlns:xlink="http://www.w3.org/1999/xlink" x="0px" y="0px" width="32px" height="32px"
	 viewBox="-0.5 -0.5 32 32" enable-background="new -0.5 -0.5 32 32" xml:space="preserve">
<sodipodi:namedview  pagecolor="#ffffff" guidetolerance="10" showgrid="false" inkscape:cx="-60.057466" objecttolerance="10" borderopacity="1" inkscape:cy="113.3885" id="namedview4" gridtolerance="10" bordercolor="#666666" inkscape:zoom="1.0406699" inkscape:pageshadow="2" inkscape:pageopacity="0" inkscape:window-y="0" inkscape:current-layer="Layer_1" inkscape:window-width="1600" inkscape:window-maximized="0" inkscape:window-x="0" inkscape:window-height="900">
	</sodipodi:namedview>
<circle id="path4756" fill="#FFFFFF" cx="15.5" cy="15.5" r="15.5"/>
<path id="UNITY" inkscape:connector-curvature="0" fill="#F58634" d="M15.5-0.5c-8.836,0-16,7.164-16,16c0,8.837,7.164,16,16,16
	c8.837,0,16-7.164,16-16C31.5,6.664,24.337-0.5,15.5-0.5z M5.493,19.33c-0.936-1.118-1.476-2.404-1.476-3.776
	c0-1.083,0.334-2.111,0.933-3.045c0.048,0.592,0.226,1.345,0.884,2.008c0.993,1.001,2.783,1.487,5.467,1.487
	c1.91,0,3.288,0.386,3.984,1.113c0.577,0.607,0.544,1.314,0.53,1.626c-0.002,0.028-0.239,2.795-4.393,2.795
	C8.83,21.538,6.828,20.594,5.493,19.33z M15.5,23.268c-0.904,0-1.779-0.078-2.623-0.211c3.749-0.6,4.575-3.462,4.575-4.316
	c0.052-1.088-0.28-2.014-0.983-2.751c-1.027-1.076-2.766-1.622-5.168-1.622c-2.734,0-3.852-0.546-4.308-1.003
	c-0.433-0.438-0.429-0.973-0.424-1.562c0-0.593,0.806-1.714,3.855-1.714c2.4,0,4.718,1.089,7.083,3.331
	c0.957,0.907,4.195,4.932,6.225,7.506C21.646,22.367,18.731,23.268,15.5,23.268z M24.191,18.869
	c-1.758-2.211-4.588-5.72-5.558-6.639c-2.524-2.393-5.052-3.613-7.704-3.752c1.401-0.409,2.944-0.64,4.571-0.64
	c3.476,0,6.585,1.043,8.691,2.684V18.869z M25.828,18.907v-6.706c0.732,1.014,1.154,2.15,1.154,3.353
	C26.982,16.757,26.561,17.892,25.828,18.907z"/>
</svg>
