<?xml version="1.0" encoding="utf-8"?>
<!-- Generator: Adobe Illustrator 16.0.0, SVG Export Plug-In . SVG Version: 6.00 Build 0)  -->
<!DOCTYPE svg PUBLIC "-//W3C//DTD SVG 1.1//EN" "http://www.w3.org/Graphics/SVG/1.1/DTD/svg11.dtd">
<svg version="1.1" id="Layer_1" xmlns="http://www.w3.org/2000/svg" xmlns:xlink="http://www.w3.org/1999/xlink" x="0px" y="0px"
	 width="32px" height="32px" viewBox="-0.5 -0.5 32 32" enable-background="new -0.5 -0.5 32 32" xml:space="preserve">
<g>
	<path fill="#4E9B74" d="M15.5-0.5c-8.8,0-16,7.2-16,16s7.2,16,16,16s16-7.2,16-16S24.3-0.5,15.5-0.5z"/>
	<circle fill="none" cx="15.5" cy="15.5" r="16"/>
	<g>
		<path fill="#FFFFFF" d="M10.3,12.8c-0.4,1.9-0.9,3.9-1.3,5.8c-0.2,1.102-0.2,2.2,0,3.2c0.4,1.8,1.5,3,3.2,3.5
			C14.6,26,17,25.9,19.3,24.9c1.9-0.801,3-2.301,3.7-4.199c0.6-1.602,1-3.301,1.3-4.9c0.8-3.2,1.8-7.5,2.7-11.5
			c-1.1-1.1-2.3-2-3.6-2.8C22.1,6.9,20.6,13.4,19.4,18.2c-0.2,0.8-0.602,1.6-1,2.399C18,21.4,17.2,21.9,16.3,21.9
			c-0.5,0-1.1,0.1-1.6,0C13.4,21.6,12.9,20.8,13,19.3c0.1-1,0.3-1.899,0.5-2.8c0.8-3.2,1.6-6.4,2.3-9.7c0-0.1,0-0.2,0.1-0.4
			C12.4,6.5,6.4,6.5,2.3,6.5c-0.9,1.3-1.5,2.6-2,4.1h10.5C10.6,11.4,10.4,12.1,10.3,12.8z"/>
	</g>
</g>
</svg>
