<?xml version="1.0" encoding="utf-8"?>
<!-- Generator: Adobe Illustrator 16.0.0, SVG Export Plug-In . SVG Version: 6.00 Build 0)  -->
<!DOCTYPE svg PUBLIC "-//W3C//DTD SVG 1.1//EN" "http://www.w3.org/Graphics/SVG/1.1/DTD/svg11.dtd">
<svg version="1.1"
	 id="Layer_1" xmlns:rdf="http://www.w3.org/1999/02/22-rdf-syntax-ns#" xmlns:inkscape="http://www.inkscape.org/namespaces/inkscape" xmlns:cc="http://creativecommons.org/ns#" xmlns:dc="http://purl.org/dc/elements/1.1/" xmlns:sodipodi="http://sodipodi.sourceforge.net/DTD/sodipodi-0.dtd" xmlns:svg="http://www.w3.org/2000/svg" inkscape:version="0.91 r13725" sodipodi:docname="VIOR.svg"
	 xmlns="http://www.w3.org/2000/svg" xmlns:xlink="http://www.w3.org/1999/xlink" x="0px" y="0px" width="32px" height="32px"
	 viewBox="-0.5 -0.5 32 32" enable-background="new -0.5 -0.5 32 32" xml:space="preserve">
<sodipodi:namedview  pagecolor="#ffffff" guidetolerance="10" showgrid="false" inkscape:cx="-60.057466" objecttolerance="10" borderopacity="1" inkscape:cy="113.3885" id="namedview4" gridtolerance="10" bordercolor="#666666" inkscape:zoom="1.0406699" inkscape:pageshadow="2" inkscape:pageopacity="0" inkscape:window-y="0" inkscape:current-layer="Layer_1" inkscape:window-width="1600" inkscape:window-maximized="0" inkscape:window-x="0" inkscape:window-height="900">
	</sodipodi:namedview>
<circle id="path4201" fill="#FFFFFF" cx="15.5" cy="15.5" r="15.5"/>
<path id="VIOR" inkscape:connector-curvature="0" fill="#00A7E1" d="M15.5-0.5c-8.836,0-16,7.164-16,16c0,8.836,7.164,16,16,16
	c8.836,0,16-7.164,16-16C31.5,6.664,24.336-0.5,15.5-0.5z M4.815,15.518c0-5.901,4.784-10.685,10.685-10.685
	c1.006,0,1.979,0.139,2.9,0.399c2.693,1.116,4.591,3.752,4.591,6.818c0,0.879-0.157,1.722-0.442,2.505
	c-1.461-2.321-4.059-3.866-7.021-3.866c-5.018,0-8.272,4.274-8.272,8.198c0,1.987,0.714,3.809,1.9,5.228
	C6.523,22.17,4.815,19.043,4.815,15.518z M18.873,11.717L15.5,19.914l-3.373-8.197h1.766l1.607,4.287l1.607-4.287H18.873z
	 M15.5,26.203c-0.623,0-1.233-0.055-1.827-0.156c-3.222-0.818-5.609-3.719-5.609-7.159c0-0.878,0.157-1.722,0.443-2.503
	c1.461,2.319,4.058,3.864,7.021,3.864c4.365,0,8.271-3.669,8.271-8.198c0-1.827-0.604-3.513-1.624-4.876
	c2.444,1.958,4.009,4.967,4.009,8.343C26.185,21.419,21.4,26.203,15.5,26.203z"/>
</svg>
