<?xml version="1.0" encoding="utf-8"?>
<!-- Generator: Adobe Illustrator 16.0.0, SVG Export Plug-In . SVG Version: 6.00 Build 0)  -->
<!DOCTYPE svg PUBLIC "-//W3C//DTD SVG 1.1//EN" "http://www.w3.org/Graphics/SVG/1.1/DTD/svg11.dtd">
<svg version="1.1"
	 id="Layer_1" xmlns:rdf="http://www.w3.org/1999/02/22-rdf-syntax-ns#" xmlns:inkscape="http://www.inkscape.org/namespaces/inkscape" xmlns:cc="http://creativecommons.org/ns#" xmlns:dc="http://purl.org/dc/elements/1.1/" xmlns:sodipodi="http://sodipodi.sourceforge.net/DTD/sodipodi-0.dtd" xmlns:svg="http://www.w3.org/2000/svg" inkscape:version="0.91 r13725" sodipodi:docname="VPN.svg"
	 xmlns="http://www.w3.org/2000/svg" xmlns:xlink="http://www.w3.org/1999/xlink" x="0px" y="0px" width="32px" height="32px"
	 viewBox="-0.5 -0.5 32 32" enable-background="new -0.5 -0.5 32 32" xml:space="preserve">
<sodipodi:namedview  pagecolor="#ffffff" guidetolerance="10" showgrid="false" inkscape:cx="-60.057466" objecttolerance="10" borderopacity="1" inkscape:cy="113.3885" id="namedview4" gridtolerance="10" bordercolor="#666666" inkscape:zoom="1.0406699" inkscape:pageshadow="2" inkscape:pageopacity="0" inkscape:window-y="0" inkscape:current-layer="Layer_1" inkscape:window-width="1600" inkscape:window-maximized="0" inkscape:window-x="0" inkscape:window-height="900">
	</sodipodi:namedview>
<circle id="path4201" fill="#FFFFFF" cx="15.5" cy="15.5" r="15.5"/>
<path id="VPN" inkscape:connector-curvature="0" fill="#52A100" d="M15.5-0.5c-8.836,0-16,7.164-16,16c0,8.836,7.164,16,16,16
	c8.836,0,16-7.164,16-16C31.5,6.664,24.336-0.5,15.5-0.5z M13.505,8.037c0-0.072,0.059-0.13,0.131-0.13h1.67
	c0.072,0,0.131,0.058,0.131,0.13v1.67c0,0.072-0.059,0.131-0.131,0.131h-1.67c-0.072,0-0.131-0.059-0.131-0.131V8.037z
	 M13.505,10.708c0-0.113,0.092-0.206,0.206-0.206h2.624c0.113,0,0.205,0.092,0.205,0.206v2.624c0,0.114-0.092,0.206-0.205,0.206
	H13.71c-0.114,0-0.206-0.092-0.206-0.206V10.708z M10.772,6.167c0-0.055,0.044-0.099,0.099-0.099h1.265
	c0.054,0,0.099,0.044,0.099,0.099v1.264c0,0.055-0.045,0.099-0.099,0.099h-1.265c-0.055,0-0.099-0.044-0.099-0.099V6.167z
	 M10.772,8.037c0-0.072,0.059-0.13,0.131-0.13h1.67c0.072,0,0.13,0.058,0.13,0.13v1.67c0,0.072-0.058,0.131-0.13,0.131h-1.67
	c-0.072,0-0.131-0.059-0.131-0.131V8.037z M10.772,10.645c0-0.078,0.063-0.142,0.142-0.142h1.812c0.078,0,0.142,0.063,0.142,0.142
	v1.812c0,0.079-0.063,0.142-0.142,0.142h-1.812c-0.079,0-0.142-0.063-0.142-0.142V10.645z M8.734,6.394
	c0-0.037,0.03-0.067,0.067-0.067h0.866c0.037,0,0.067,0.03,0.067,0.067v0.866c0,0.038-0.03,0.068-0.067,0.068H8.801
	c-0.037,0-0.067-0.03-0.067-0.068V6.394z M8.734,8.01c0-0.057,0.046-0.104,0.104-0.104h1.325c0.058,0,0.104,0.046,0.104,0.104v1.325
	c0,0.058-0.046,0.104-0.104,0.104H8.837c-0.058,0-0.104-0.046-0.104-0.104V8.01z M7.294,5.291c0-0.038,0.03-0.068,0.068-0.068h0.866
	c0.037,0,0.067,0.03,0.067,0.068v0.865c0,0.038-0.03,0.068-0.067,0.068H7.362c-0.038,0-0.068-0.031-0.068-0.068V5.291z
	 M9.021,14.596l4.38,4.38v-4.38h3.149v8.802h-3.003l-8.551-8.802H9.021z M15.34,25.734c-4.781,0-8.656-1.205-8.656-2.691
	c0-0.814,1.168-1.545,3.01-2.038c-1.033,0.376-1.654,0.856-1.654,1.382c0,1.203,3.268,2.18,7.3,2.18s7.3-0.977,7.3-2.18
	c0-0.525-0.621-1.006-1.654-1.382c1.842,0.493,3.01,1.224,3.01,2.038C23.996,24.529,20.121,25.734,15.34,25.734z M22.578,18.355
	c-1.58,0-4.834,0-4.834,0v-2.784c0,0,3.02,0,3.989,0c1.179,0,1.638-0.704,1.638-1.376c0-0.673-0.396-1.361-1.549-1.361
	c-1.174,0-4.078,0-4.078,0v-2.236c0,0,3.911,0,4.834,0c1.271,0,3.426,0.782,3.426,3.645S24.414,18.355,22.578,18.355z"/>
</svg>
