<?xml version="1.0" encoding="utf-8"?>
<!-- Generator: Adobe Illustrator 16.0.0, SVG Export Plug-In . SVG Version: 6.00 Build 0)  -->
<!DOCTYPE svg PUBLIC "-//W3C//DTD SVG 1.1//EN" "http://www.w3.org/Graphics/SVG/1.1/DTD/svg11.dtd">
<svg version="1.1" id="Layer_1" xmlns="http://www.w3.org/2000/svg" xmlns:xlink="http://www.w3.org/1999/xlink" x="0px" y="0px"
	 width="32px" height="32px" viewBox="-0.5 -0.5 32 32" enable-background="new -0.5 -0.5 32 32" xml:space="preserve">
<g>
	<circle fill="#0052AE" cx="15.5" cy="15.5" r="16"/>
	<g>
		<g>
			<g>
				<defs>
					<circle id="SVGID_1_" cx="15.5" cy="15.5" r="16"/>
				</defs>
				<clipPath id="SVGID_2_">
					<use xlink:href="#SVGID_1_"  overflow="visible"/>
				</clipPath>
				<path clip-path="url(#SVGID_2_)" fill="#FFFFFF" d="M7.6,17L3.9,27.1c-1.5-1.6-2.7-3.399-3.5-5.5L2.1,17
					c0.2-0.5,0.6-0.8,1.1-0.8h3.9C7.5,16.2,7.8,16.6,7.6,17z M15.5,12.8h-3.9c-0.5,0-1,0.3-1.1,0.8L5.1,28.2c1.4,1.1,2.9,2,4.6,2.7
					L16.1,13.6C16.2,13.2,15.9,12.8,15.5,12.8z M24,9.1h-3.9c-0.5,0-1,0.3-1.1,0.8l-8,21.4c1.4,0.4,2.8,0.601,4.3,0.601
					c0.3,0,0.7,0,1-0.102l8.2-22C24.7,9.5,24.4,9.1,24,9.1z"/>
			</g>
		</g>
	</g>
</g>
</svg>
