<?xml version="1.0" encoding="utf-8"?>
<!-- Generator: Adobe Illustrator 16.0.0, SVG Export Plug-In . SVG Version: 6.00 Build 0)  -->
<!DOCTYPE svg PUBLIC "-//W3C//DTD SVG 1.1//EN" "http://www.w3.org/Graphics/SVG/1.1/DTD/svg11.dtd">
<svg version="1.1"
	 id="Layer_1" xmlns:rdf="http://www.w3.org/1999/02/22-rdf-syntax-ns#" xmlns:inkscape="http://www.inkscape.org/namespaces/inkscape" xmlns:cc="http://creativecommons.org/ns#" xmlns:dc="http://purl.org/dc/elements/1.1/" xmlns:sodipodi="http://sodipodi.sourceforge.net/DTD/sodipodi-0.dtd" xmlns:svg="http://www.w3.org/2000/svg" inkscape:version="0.91 r13725" sodipodi:docname="XCP.svg"
	 xmlns="http://www.w3.org/2000/svg" xmlns:xlink="http://www.w3.org/1999/xlink" x="0px" y="0px" width="32px" height="32px"
	 viewBox="-0.5 -0.5 32 32" enable-background="new -0.5 -0.5 32 32" xml:space="preserve">
<sodipodi:namedview  pagecolor="#ffffff" guidetolerance="10" showgrid="false" inkscape:cx="-60.057466" objecttolerance="10" borderopacity="1" inkscape:cy="113.3885" id="namedview4" gridtolerance="10" bordercolor="#666666" inkscape:zoom="1.0406699" inkscape:pageshadow="2" inkscape:pageopacity="0" inkscape:window-y="0" inkscape:current-layer="Layer_1" inkscape:window-width="1600" inkscape:window-maximized="0" inkscape:window-x="0" inkscape:window-height="900">
	</sodipodi:namedview>
<circle id="path10179" fill="#FFFFFF" cx="15.5" cy="15.5" r="15.5"/>
<path id="XCP_alt" inkscape:connector-curvature="0" fill="#EC1550" d="M15.5-0.5c-8.836,0-16,7.164-16,16c0,8.836,7.164,16,16,16
	c8.836,0,16-7.164,16-16C31.5,6.664,24.336-0.5,15.5-0.5z M25.558,17.345L22.6,20.303h-2.811c-0.318,0.001-0.576,0.258-0.576,0.576
	l-0.002,0.002l-0.002,1.687c-0.002,0.185-0.15,0.333-0.334,0.333H16.73l0,0c-0.185,0-0.334-0.15-0.334-0.335v-0.001v-4.102
	l1.756-1.757h0.002c0.061-0.058,0.143-0.095,0.232-0.095c0.094,0,0.178,0.039,0.238,0.101h0.001l0.776,0.775h2.03l1.31-1.31v-1.719
	l-1.349-1.349h-1.807l-7.183,7.183H8.217l-2.982-2.982v-4.023l2.986-2.986h4.083l1.77,1.77v0c0.059,0.061,0.095,0.143,0.095,0.233
	c0,0.092-0.038,0.176-0.098,0.237v0.001l-1.501,1.498c-0.062,0.07-0.151,0.115-0.251,0.115c-0.096,0-0.181-0.041-0.242-0.104
	l-0.938-0.935h-1.75L8.05,14.453v1.691l1.333,1.333h1.855l7.183-7.183h4.139l2.998,2.998V17.345L25.558,17.345z"/>
</svg>
