<?xml version="1.0" encoding="utf-8"?>
<!-- Generator: Adobe Illustrator 16.0.0, SVG Export Plug-In . SVG Version: 6.00 Build 0)  -->
<!DOCTYPE svg PUBLIC "-//W3C//DTD SVG 1.1//EN" "http://www.w3.org/Graphics/SVG/1.1/DTD/svg11.dtd">
<svg version="1.1"
	 id="Layer_1" xmlns:rdf="http://www.w3.org/1999/02/22-rdf-syntax-ns#" xmlns:inkscape="http://www.inkscape.org/namespaces/inkscape" xmlns:cc="http://creativecommons.org/ns#" xmlns:dc="http://purl.org/dc/elements/1.1/" xmlns:sodipodi="http://sodipodi.sourceforge.net/DTD/sodipodi-0.dtd" xmlns:svg="http://www.w3.org/2000/svg" inkscape:version="0.91 r13725" sodipodi:docname="XMR.svg"
	 xmlns="http://www.w3.org/2000/svg" xmlns:xlink="http://www.w3.org/1999/xlink" x="0px" y="0px" width="32px" height="32px"
	 viewBox="-0.5 -0.5 32 32" enable-background="new -0.5 -0.5 32 32" xml:space="preserve">
<sodipodi:namedview  pagecolor="#ffffff" guidetolerance="10" showgrid="false" inkscape:cx="16.865611" objecttolerance="10" borderopacity="1" inkscape:cy="-1.996119" id="namedview8" gridtolerance="10" bordercolor="#666666" inkscape:zoom="4.16" inkscape:pageshadow="2" inkscape:pageopacity="0" inkscape:window-y="0" inkscape:current-layer="Layer_1" inkscape:window-width="1600" inkscape:window-maximized="0" inkscape:window-x="0" inkscape:window-height="900">
	</sodipodi:namedview>
<circle id="path4140" fill="#FFFFFF" cx="15.5" cy="15.5" r="15.95"/>
<g id="XMR_2_" transform="matrix(0.14115945,0,0,0.14116007,-0.01171623,-0.01199861)">
	<path id="path4" inkscape:connector-curvature="0" fill="#FF6600" d="M36.179,145.476V50.328l73.744,73.744l73.672-73.671v95.076
		h33.934c3.701-11.194,5.708-23.148,5.708-35.587c0-62.599-50.745-113.347-113.347-113.347C47.289-3.457-3.459,47.291-3.459,109.889
		c0,12.439,2.006,24.393,5.707,35.587H36.179L36.179,145.476z"/>
	<path id="path6" inkscape:connector-curvature="0" fill="#FF6600" d="M158.993,168.534v-60.153l-49.489,49.492l-49.15-49.143
		v59.804H12.875c19.866,32.785,55.878,54.702,97.014,54.702s77.151-21.917,97.014-54.702H158.993L158.993,168.534z"/>
</g>
</svg>
