<?xml version="1.0" encoding="utf-8"?>
<!-- Generator: Adobe Illustrator 16.0.0, SVG Export Plug-In . SVG Version: 6.00 Build 0)  -->
<!DOCTYPE svg PUBLIC "-//W3C//DTD SVG 1.1//EN" "http://www.w3.org/Graphics/SVG/1.1/DTD/svg11.dtd">
<svg version="1.1" id="Layer_1" xmlns="http://www.w3.org/2000/svg" xmlns:xlink="http://www.w3.org/1999/xlink" x="0px" y="0px"
	 width="32px" height="32px" viewBox="-0.5 -0.5 32 32" enable-background="new -0.5 -0.5 32 32" xml:space="preserve">
<g>
	<g>
		<circle fill="#F3AE50" cx="15.5" cy="15.5" r="16"/>
	</g>
	<path fill="#FFFFFF" d="M22.8,7.5c-0.899,0-1.8,0-2.7,0c-0.199,0-0.199,0-0.199,0.2c0,2.2,0,4.3,0,6.5c0,0.6-0.102,1.2-0.301,1.8
		c-0.399,1-1.301,1.4-2.199,1.5c-0.2,0-0.2-0.1-0.2-0.2c0-0.8,0-1.5,0-2.3c0-2.4,0-4.8,0-7.2C17.1,7.6,17,7.5,16.8,7.5
		c-0.399,0-0.9,0-1.3,0s-0.9,0-1.3,0c-0.2,0-0.3,0.1-0.3,0.3c0,2.4,0,4.8,0,7.2c0,0.8,0,1.5,0,2.3c0,0.101,0,0.2-0.2,0.2
		c-0.9-0.1-1.8-0.5-2.2-1.5c-0.2-0.6-0.3-1.2-0.3-1.8c0-2.2,0-4.3,0-6.5c0-0.2,0-0.2-0.2-0.2c-0.9,0-1.8,0-2.7,0
		c-0.2,0-0.2,0.1-0.2,0.3c0,2.1,0,4.3,0,6.4c0,0.5,0,1.1,0.1,1.6c0.3,1.8,1.3,3.101,3.1,3.8c0.8,0.301,1.6,0.5,2.5,0.601
		c0.2,0,0.2,0.1,0.2,0.2c0,0.199,0,0.5,0,0.699s0,0.199-0.2,0.199c-0.5,0-1,0-1.6,0c-0.2,0-0.3,0.102-0.3,0.301
		c0,0.301,0,0.601,0,0.899c0,0.2,0,0.3,0.2,0.2c0.5,0,1.1,0,1.6,0c0.2,0,0.2,0,0.2,0.199c0,0.399,0,0.801,0,1.199
		c0,0.2,0,0.2,0.2,0.2c0.5,0,1,0,1.4,0s1,0,1.4,0c0.199,0,0.199,0,0.199-0.2c0-0.398,0-0.8,0-1.199c0-0.199,0-0.199,0.199-0.199
		c0.5,0,1.102,0,1.602,0c0.199,0.1,0.199,0,0.199-0.2c0-0.3,0-0.601,0-0.899c0-0.199-0.101-0.301-0.301-0.301c-0.6,0-1.1,0-1.6,0
		c-0.2,0-0.2,0-0.2-0.199s0-0.5,0-0.699c0-0.102,0-0.2,0.2-0.2c0.898-0.101,1.699-0.3,2.5-0.601c1.8-0.699,2.8-2,3.1-3.801
		C22.9,15.3,22.9,14.7,22.9,14.2c0-2.1,0-4.3,0-6.4C22.9,7.6,22.9,7.5,22.8,7.5z"/>
</g>
</svg>
