<?xml version="1.0" encoding="utf-8"?>
<!-- Generator: Adobe Illustrator 16.0.0, SVG Export Plug-In . SVG Version: 6.00 Build 0)  -->
<!DOCTYPE svg PUBLIC "-//W3C//DTD SVG 1.1//EN" "http://www.w3.org/Graphics/SVG/1.1/DTD/svg11.dtd">
<svg version="1.1" id="Layer_1" xmlns="http://www.w3.org/2000/svg" xmlns:xlink="http://www.w3.org/1999/xlink" x="0px" y="0px"
	 width="32px" height="32px" viewBox="-0.5 -0.5 32 32" enable-background="new -0.5 -0.5 32 32" xml:space="preserve">
<g>
	<g>
		<circle fill="#FFFFFF" cx="15.5" cy="15.5" r="15.9"/>
	</g>
	<g>
		<g>
			<path fill="#4495D4" d="M15.5,31.5c-1.9,0-3.8-0.3-5.6-1c0-1.3,0-2.5,0-3.8c0-0.601,0-1.101,0-1.7c1.2,0.7,2.5,1.2,3.8,1.4
				c0.6,0.1,1.2,0.1,1.8,0.1c0.4,0,0.9,0,1.3-0.1c1.9-0.2,3.7-1,5.3-2.102c1.301-1,2.4-2.199,3.2-3.699c0.7-1.301,1.101-2.601,1.2-4
				s0-2.8-0.4-4.1c-0.6-2-1.6-3.7-3.1-5.1c-1.1-1.1-2.5-1.9-4.1-2.4c-1.101-0.4-2.2-0.5-3.3-0.5c0,0,0,0-0.1,0
				c-1.1,0-2.1,0.2-3.2,0.5c-1.1,0.3-2.2,0.8-3.2,1.5C8,7.3,7,8.3,6.2,9.5c-0.8,1.2-1.3,2.6-1.6,4c-0.1,0.8-0.2,1.5-0.2,2.2
				c0,2.899,0,5.899,0,8.8c0,0.9,0,1.7,0,2.6c-1.5-1.398-2.6-3-3.5-4.898C0,20.1-0.5,17.8-0.5,15.5c0-2.2,0.4-4.3,1.3-6.2
				c0.8-1.9,2-3.6,3.4-5.1c1.5-1.5,3.2-2.6,5.1-3.4c1.9-0.9,4-1.3,6.2-1.3s4.3,0.4,6.2,1.3c1.899,0.8,3.6,2,5.1,3.4
				c1.5,1.5,2.601,3.2,3.4,5.1c0.8,2,1.3,4.1,1.3,6.2c0,2.1-0.4,4.3-1.3,6.2c-0.8,1.899-2,3.6-3.4,5.1c-1.5,1.5-3.2,2.601-5.1,3.4
				C19.8,31.1,17.7,31.5,15.5,31.5z"/>
		</g>
		<g>
			<path fill="#4495D4" d="M8.3,29.8C7.5,29.4,6.7,28.9,6,28.4l0,0C6,27.1,6,25.799,6,24.6v-0.801c0-0.5,0-1,0-1.5
				c0-1.1,0-2.199,0-3.199C6,18.9,6,18.6,6,18.4c0-1.2,0-2.4,0-3.602c0-0.9,0.2-1.8,0.6-2.8c0.7-1.7,1.8-3.1,3.2-4.1
				c1.2-0.9,2.5-1.5,4-1.7C14.4,6.1,15,6,15.5,6c1,0,1.9,0.2,2.8,0.4c2.4,0.8,4.3,2.3,5.601,4.6c0.899,1.6,1.199,3.3,1.101,5.1
				c-0.2,2.4-1.101,4.5-2.8,6.2c-0.801,0.8-1.7,1.4-2.602,1.8C18.4,24.6,17.2,24.9,16,25c-0.2,0-0.3,0-0.5,0c-2.1,0-4-0.6-5.7-1.9
				C9.6,23,9.5,22.8,9.3,22.7c-0.1-0.101-0.2-0.2-0.4-0.3C8.8,22.3,8.8,22.3,8.7,22.2l-0.5-0.4V22.9V24.3c0,1.7,0,3.5,0,5.2
				C8.3,29.6,8.3,29.7,8.3,29.8C8.3,29.7,8.3,29.8,8.3,29.8z M15.6,22c1.7,0,3.3-0.7,4.6-1.9c1.2-1.199,1.899-2.8,1.899-4.6
				S21.4,12.1,20.2,10.9C19,9.7,17.4,9,15.6,9l0,0c-1.7,0-3.4,0.7-4.6,1.9c-1.2,1.2-1.9,2.8-1.9,4.5c0,1.8,0.7,3.4,1.9,4.6
				C12.2,21.3,13.8,22,15.6,22L15.6,22z"/>
		</g>
	</g>
</g>
</svg>
