<?xml version="1.0" encoding="utf-8"?>
<!-- Generator: Adobe Illustrator 16.0.0, SVG Export Plug-In . SVG Version: 6.00 Build 0)  -->
<!DOCTYPE svg PUBLIC "-//W3C//DTD SVG 1.1//EN" "http://www.w3.org/Graphics/SVG/1.1/DTD/svg11.dtd">
<svg version="1.1"
	 id="Layer_1" xmlns:rdf="http://www.w3.org/1999/02/22-rdf-syntax-ns#" xmlns:inkscape="http://www.inkscape.org/namespaces/inkscape" xmlns:cc="http://creativecommons.org/ns#" xmlns:dc="http://purl.org/dc/elements/1.1/" xmlns:sodipodi="http://sodipodi.sourceforge.net/DTD/sodipodi-0.dtd" xmlns:svg="http://www.w3.org/2000/svg" inkscape:version="0.91 r13725" sodipodi:docname="XRP.svg"
	 xmlns="http://www.w3.org/2000/svg" xmlns:xlink="http://www.w3.org/1999/xlink" x="0px" y="0px" width="32px" height="32px"
	 viewBox="-0.5 -0.5 32 32" enable-background="new -0.5 -0.5 32 32" xml:space="preserve">
<sodipodi:namedview  pagecolor="#ffffff" guidetolerance="10" showgrid="false" inkscape:cx="-60.057466" objecttolerance="10" borderopacity="1" inkscape:cy="113.3885" id="namedview6" gridtolerance="10" bordercolor="#666666" inkscape:zoom="1.0406699" inkscape:pageshadow="2" inkscape:pageopacity="0" inkscape:window-y="0" inkscape:current-layer="Layer_1" inkscape:window-width="1600" inkscape:window-maximized="0" inkscape:window-x="0" inkscape:window-height="900">
	</sodipodi:namedview>
<circle id="path4742" fill="#FFFFFF" cx="15.5" cy="15.5" r="15.5"/>
<g id="XRP_alt" transform="matrix(0.14122174,0,0,0.14122174,-0.02584358,-0.02583358)">
	<path id="path4" inkscape:connector-curvature="0" fill="#2468A6" d="M109.939-3.358C47.368-3.358-3.358,47.368-3.358,109.939
		c0,62.568,50.726,113.297,113.297,113.297c62.568,0,113.297-50.729,113.297-113.297C223.236,47.368,172.507-3.358,109.939-3.358z
		 M157.363,160.419c-7.371,12.655-23.912,17.122-36.947,9.972c-13.035-7.15-17.633-23.207-10.265-35.862
		c3.067-5.269,1.151-11.963-4.28-14.944c-5.356-2.939-12.133-1.169-15.262,3.942h-0.003v-0.021
		c-0.041,0.076-0.083,0.152-0.128,0.235c-7.365,12.655-23.902,17.115-36.937,9.965c-13.038-7.143-17.637-23.207-10.272-35.858
		C50.635,85.19,67.173,80.73,80.211,87.88c4.356,2.389,7.766,5.778,10.106,9.698v-0.014h0.003
		c3.247,5.031,10.055,6.652,15.341,3.603c5.363-3.095,7.123-9.826,3.935-15.03c-7.652-12.496-3.42-28.646,9.449-36.073
		c12.869-7.43,29.507-3.323,37.162,9.173c7.655,12.492,3.423,28.642-9.453,36.073c-4.301,2.483-9.031,3.668-13.692,3.693
		l0.007,0.003v0.003c-6.175,0.207-11.085,5.162-11.002,11.192c0.069,6.113,5.235,11.009,11.527,10.94l-0.035,0.014
		c4.592-0.035,9.252,1.051,13.526,3.402C160.129,131.708,164.721,147.765,157.363,160.419z"/>
</g>
</svg>
