<?xml version="1.0" encoding="utf-8"?>
<!-- Generator: Adobe Illustrator 16.0.0, SVG Export Plug-In . SVG Version: 6.00 Build 0)  -->
<!DOCTYPE svg PUBLIC "-//W3C//DTD SVG 1.1//EN" "http://www.w3.org/Graphics/SVG/1.1/DTD/svg11.dtd">
<svg version="1.1"
	 id="Layer_1" xmlns:rdf="http://www.w3.org/1999/02/22-rdf-syntax-ns#" xmlns:inkscape="http://www.inkscape.org/namespaces/inkscape" xmlns:cc="http://creativecommons.org/ns#" xmlns:dc="http://purl.org/dc/elements/1.1/" xmlns:sodipodi="http://sodipodi.sourceforge.net/DTD/sodipodi-0.dtd" xmlns:svg="http://www.w3.org/2000/svg" inkscape:version="0.91 r13725" sodipodi:docname="YBC.svg"
	 xmlns="http://www.w3.org/2000/svg" xmlns:xlink="http://www.w3.org/1999/xlink" x="0px" y="0px" width="32px" height="32px"
	 viewBox="-0.5 -0.5 32 32" enable-background="new -0.5 -0.5 32 32" xml:space="preserve">
<sodipodi:namedview  pagecolor="#ffffff" guidetolerance="10" showgrid="false" inkscape:cx="-60.057466" objecttolerance="10" borderopacity="1" inkscape:cy="113.3885" id="namedview4" gridtolerance="10" bordercolor="#666666" inkscape:zoom="1.0406699" inkscape:pageshadow="2" inkscape:pageopacity="0" inkscape:window-y="36" inkscape:current-layer="Layer_1" inkscape:window-width="1518" inkscape:window-maximized="0" inkscape:window-x="36" inkscape:window-height="818">
	</sodipodi:namedview>
<circle id="path4155" fill="#FFFFFF" cx="15.5" cy="15.5" r="15.5"/>
<path id="YBC_alt" inkscape:connector-curvature="0" fill="#F3AE50" d="M15.5-0.5c-8.836,0-16,7.164-16,16c0,8.836,7.164,16,16,16
	c8.836,0,16-7.164,16-16C31.5,6.664,24.336-0.5,15.5-0.5z M17.99,25.426c-0.797,0.2-1.631,0.307-2.49,0.307
	c-5.651,0-10.232-4.582-10.232-10.232c0-4.246,2.586-7.888,6.269-9.436v11.883l1.52,1.516h4.934V25.426z M19.463,24.936V13.053
	l-1.52-1.516h-4.934V5.574c0.797-0.199,1.631-0.306,2.491-0.306c5.65,0,10.232,4.581,10.232,10.232
	C25.732,19.746,23.146,23.388,19.463,24.936z"/>
</svg>
