<?xml version="1.0" encoding="utf-8"?>
<!-- Generator: Adobe Illustrator 16.0.0, SVG Export Plug-In . SVG Version: 6.00 Build 0)  -->
<!DOCTYPE svg PUBLIC "-//W3C//DTD SVG 1.1//EN" "http://www.w3.org/Graphics/SVG/1.1/DTD/svg11.dtd">
<svg version="1.1" id="Layer_1" xmlns="http://www.w3.org/2000/svg" xmlns:xlink="http://www.w3.org/1999/xlink" x="0px" y="0px"
	 width="32px" height="32px" viewBox="-0.5 -0.5 32 32" enable-background="new -0.5 -0.5 32 32" xml:space="preserve">
<g>
	<circle fill="#46A6AE" cx="15.5" cy="15.5" r="16"/>
</g>
<g>
	<path fill="#FFFFFF" d="M12.418,12.601c-0.1-0.101-0.2-0.101-0.299-0.101c-1.3,0-2.6,0-3.9,0c-0.2,0-0.2,0-0.2-0.2
		c0.2-0.699,0.4-1.399,0.5-2.1c0-0.2,0.1-0.2,0.3-0.2c1.6,0,3.3,0,4.9,0c0.3,0,0.3,0,0.4-0.3c0.4-1.5,0.7-3.1,1.1-4.6
		c0-0.101,0.1-0.2,0.2-0.2c0.9,0,1.8,0,2.701,0c0.199,0,0.199,0.1,0.1,0.2c-0.3,1.8-0.8,3.5-1.2,5.3c-0.1,0.5-0.198,1-0.398,1.5
		c0,0.1-0.102,0.2-0.2,0.3c-2,1.8-3.9,3.7-5.8,5.601c-0.1,0.101-0.2,0.3-0.4,0.398c0,0-0.1,0.102,0,0.102h0.1h0.1
		c1.9,0,3.8,0,5.701,0c0.2,0,0.3-0.102,0.3-0.2c0.4-1.9,0.9-3.7,1.3-5.5c0.102-0.5,0.2-1,0.4-1.5c0-0.101,0.1-0.2,0.2-0.2
		c1.398-0.4,2.898-0.8,4.398-0.8c0.7,0,1.301,0.1,1.9,0.199c0.1,0,0.2,0.101,0.2,0.2c-0.2,0.8-0.4,1.5-0.5,2.3
		c0,0.2-0.101,0.2-0.302,0.2c-0.6-0.2-1.1-0.2-1.698-0.2c-0.4,0-0.802,0.101-1.2,0.101c-0.102,0-0.2,0.1-0.2,0.2
		c-0.2,0.699-0.3,1.399-0.5,2.199c-0.4,1.801-0.9,3.7-1.3,5.501C19.121,21,19.02,21,18.821,21c-1.302,0-2.602,0-3.901,0
		c-0.2,0-0.3,0-0.3,0.199c-0.4,1.602-0.7,3.102-1.1,4.701c0,0.1-0.1,0.199-0.2,0.199c-0.9,0-1.7,0-2.6,0c-0.2,0-0.2,0-0.2-0.199
		c0.3-1.201,0.6-2.4,0.9-3.601c0.1-0.301,0.2-0.7,0.2-1c0.1-0.2,0.1-0.2-0.2-0.2c-1.6,0-3.3,0-4.9,0c0,0-0.1,0-0.2,0
		c-0.1,0-0.2,0-0.1-0.199c0.2-0.601,0.3-1.301,0.5-1.9c0-0.1,0.1-0.199,0.1-0.301c0.2-0.299,0.4-0.6,0.7-0.799
		c0.6-0.601,1.2-1.301,1.7-1.901c1-1.1,2-2.1,3.1-3.1C12.318,12.7,12.418,12.7,12.418,12.601z"/>
</g>
<circle fill="none" cx="15.5" cy="15.5" r="16"/>
</svg>
