<svg version="1.1" xmlns="http://www.w3.org/2000/svg" xmlns:xlink="http://www.w3.org/1999/xlink" width="16" height="17" viewBox="0 0 16 17"><path id="icon-ff" d="M10.638,15.844 C11.469,15.549 12.205,15.146 12.848,14.634 C13.491,14.122 14.054,13.539 14.536,12.884 C15.018,12.229 15.385,11.521 15.638,10.759 C15.891,9.997 16.012,9.238 16.000,8.482 C15.976,6.607 15.527,5.067 14.652,3.862 C13.777,2.656 12.551,1.824 10.973,1.366 C11.789,2.027 12.412,2.872 12.844,3.902 C13.275,4.932 13.446,5.952 13.357,6.964 C13.196,6.542 12.967,6.207 12.670,5.960 C12.372,5.713 11.964,5.476 11.446,5.250 C11.714,5.476 11.948,5.848 12.147,6.366 C12.347,6.884 12.458,7.445 12.482,8.049 C12.506,8.653 12.390,9.226 12.134,9.768 C11.973,10.083 11.734,10.393 11.415,10.696 C11.097,11.000 10.716,11.260 10.272,11.478 C9.829,11.695 9.369,11.850 8.893,11.942 C8.417,12.034 7.915,12.016 7.388,11.888 C6.862,11.760 6.378,11.515 5.938,11.152 C6.682,11.217 7.305,11.129 7.808,10.888 C8.311,10.647 8.741,10.244 9.098,9.679 C9.253,9.696 9.391,9.693 9.513,9.670 C9.635,9.646 9.729,9.615 9.795,9.576 C9.860,9.537 9.914,9.491 9.955,9.438 C9.997,9.384 10.022,9.347 10.031,9.326 C10.040,9.305 10.048,9.289 10.054,9.277 C10.107,9.062 10.049,8.869 9.879,8.696 C9.710,8.524 9.443,8.426 9.080,8.402 C8.860,8.390 8.641,8.442 8.424,8.558 C8.207,8.674 7.958,8.808 7.679,8.960 C7.399,9.112 7.107,9.214 6.804,9.268 C6.559,9.310 6.318,9.290 6.080,9.210 C5.842,9.129 5.647,9.006 5.496,8.839 C5.344,8.673 5.237,8.475 5.174,8.246 C5.112,8.016 5.134,7.774 5.241,7.518 C5.241,7.518 6.482,8.116 6.482,8.116 C6.482,8.116 6.348,6.429 6.348,6.429 C6.682,6.369 6.982,6.268 7.250,6.125 C7.518,5.982 7.686,5.877 7.754,5.808 C7.823,5.740 7.872,5.685 7.902,5.643 C8.051,5.435 8.141,5.210 8.174,4.969 C8.207,4.728 8.179,4.592 8.089,4.563 C8.042,4.557 7.891,4.548 7.638,4.536 C7.385,4.524 7.183,4.512 7.031,4.500 C6.879,4.488 6.692,4.466 6.469,4.433 C6.246,4.400 6.059,4.360 5.911,4.312 C5.869,3.955 6.043,3.469 6.433,2.853 C6.823,2.237 7.179,1.795 7.500,1.527 C6.809,1.539 6.112,1.714 5.406,2.054 C4.701,2.393 4.223,2.804 3.973,3.286 C3.896,3.185 3.687,3.138 3.348,3.147 C3.009,3.156 2.807,3.202 2.741,3.286 C2.741,3.286 2.839,0.777 2.839,0.777 C2.226,1.330 1.693,2.052 1.241,2.942 C0.789,3.832 0.458,4.760 0.250,5.728 C0.042,6.695 -0.036,7.685 0.018,8.696 C0.071,9.708 0.271,10.604 0.616,11.384 C1.259,12.860 2.240,14.046 3.558,14.942 C4.876,15.838 6.378,16.286 8.063,16.286 C8.949,16.286 9.808,16.138 10.638,15.844 z" fill="#999999" /></svg>