<svg version="1.1" xmlns="http://www.w3.org/2000/svg" xmlns:xlink="http://www.w3.org/1999/xlink" width="16" height="17" viewBox="0 0 16 17"><path id="icon-ie" d="M15.098,5.170 C15.545,4.158 15.768,3.307 15.768,2.616 C15.768,2.223 15.696,1.881 15.554,1.589 C15.411,1.298 15.213,1.070 14.960,0.906 C14.707,0.743 14.426,0.622 14.116,0.545 C13.807,0.467 13.461,0.429 13.080,0.429 C12.021,0.429 10.732,0.777 9.214,1.473 C9.125,1.467 8.991,1.464 8.812,1.464 C7.140,1.464 5.647,1.987 4.335,3.031 C3.022,4.076 2.179,5.414 1.804,7.045 C3.250,5.408 4.521,4.354 5.616,3.884 C3.973,5.348 2.559,7.152 1.375,9.295 C0.827,10.301 0.503,10.982 0.402,11.339 C0.134,12.292 -0.000,13.110 -0.000,13.795 C-0.000,15.360 0.705,16.143 2.116,16.143 C3.104,16.143 4.277,15.798 5.634,15.107 C6.640,15.601 7.699,15.848 8.812,15.848 C9.813,15.848 10.768,15.650 11.679,15.254 C12.589,14.859 13.385,14.298 14.067,13.571 C14.748,12.845 15.256,12.009 15.589,11.062 C15.589,11.062 11.813,11.062 11.813,11.062 C11.515,11.562 11.109,11.951 10.594,12.228 C10.079,12.504 9.527,12.643 8.938,12.643 C8.057,12.643 7.290,12.350 6.638,11.763 C5.987,11.177 5.661,10.449 5.661,9.580 C5.661,9.580 15.938,9.580 15.938,9.580 C15.979,9.295 16.000,8.985 16.000,8.652 C16.000,7.414 15.699,6.253 15.098,5.170 C15.098,5.170 15.098,5.170 15.098,5.170 zM14.920,4.866 C14.509,4.205 14.001,3.624 13.397,3.121 C12.793,2.618 12.131,2.226 11.411,1.946 C12.280,1.530 13.036,1.321 13.679,1.321 C14.179,1.321 14.586,1.467 14.902,1.759 C15.217,2.051 15.375,2.443 15.375,2.937 C15.375,3.420 15.223,4.062 14.920,4.866 C14.920,4.866 14.920,4.866 14.920,4.866 zM2.018,11.018 C2.292,11.816 2.701,12.545 3.246,13.205 C3.790,13.866 4.426,14.411 5.152,14.839 C4.253,15.333 3.461,15.580 2.777,15.580 C2.265,15.580 1.865,15.442 1.576,15.165 C1.287,14.888 1.143,14.494 1.143,13.982 C1.143,13.226 1.434,12.238 2.018,11.018 C2.018,11.018 2.018,11.018 2.018,11.018 zM6.647,5.500 C7.287,4.935 8.036,4.652 8.893,4.652 C9.744,4.652 10.491,4.935 11.134,5.500 C11.777,6.066 12.113,6.771 12.143,7.616 C12.143,7.616 5.643,7.616 5.643,7.616 C5.673,6.771 6.007,6.066 6.647,5.500 z" fill="#999999" /></svg>