<svg version="1.1" xmlns="http://www.w3.org/2000/svg" xmlns:xlink="http://www.w3.org/1999/xlink" width="16" height="17" viewBox="0 0 16 17"><g id="icon-chrome"><path id="icon-chrome" d="M4.554,1.067 C3.464,1.582 2.539,2.312 1.777,3.259 C1.777,3.259 4.241,7.045 4.241,7.045 C4.545,6.176 5.095,5.493 5.893,4.996 C6.690,4.499 7.565,4.277 8.518,4.330 C8.518,4.330 15.143,4.679 15.143,4.679 C14.429,3.262 13.381,2.155 12.000,1.357 C10.744,0.631 9.402,0.274 7.973,0.286 C6.783,0.292 5.643,0.552 4.554,1.067 zM0.000,8.286 C0.000,9.595 0.296,10.820 0.888,11.960 C1.481,13.100 2.292,14.040 3.321,14.781 C4.351,15.522 5.497,15.991 6.759,16.187 C6.759,16.187 8.812,12.161 8.812,12.161 C7.896,12.333 7.024,12.199 6.196,11.759 C5.369,11.318 4.741,10.673 4.313,9.821 C4.313,9.821 1.304,3.902 1.304,3.902 C0.434,5.235 0.000,6.696 0.000,8.286 C0.000,8.286 0.000,8.286 0.000,8.286 zM10.955,5.643 C11.557,6.345 11.873,7.171 11.906,8.121 C11.939,9.070 11.693,9.935 11.170,10.714 C11.170,10.714 7.554,16.277 7.554,16.277 C9.149,16.360 10.631,16.006 12.000,15.214 C12.851,14.720 13.583,14.097 14.196,13.344 C14.809,12.591 15.265,11.781 15.563,10.915 C15.860,10.049 16.004,9.138 15.996,8.183 C15.987,7.228 15.809,6.304 15.464,5.411 C15.464,5.411 10.955,5.643 10.955,5.643 zM5.304,8.286 C5.304,9.030 5.567,9.665 6.094,10.192 C6.621,10.719 7.256,10.982 8.000,10.982 C8.744,10.982 9.379,10.719 9.906,10.192 C10.433,9.665 10.696,9.030 10.696,8.286 C10.696,7.542 10.433,6.906 9.906,6.379 C9.379,5.853 8.744,5.589 8.000,5.589 C7.256,5.589 6.621,5.853 6.094,6.379 C5.567,6.906 5.304,7.542 5.304,8.286 z" fill="#999999" /></g></svg>