<svg version="1.1" xmlns="http://www.w3.org/2000/svg" xmlns:xlink="http://www.w3.org/1999/xlink" width="16" height="17" viewBox="0 0 16 17"><path id="icon-safari" d="M8.304,7.888 C8.190,7.790 8.059,7.741 7.911,7.741 C7.762,7.741 7.637,7.798 7.536,7.911 C7.434,8.024 7.384,8.158 7.384,8.312 C7.384,8.461 7.440,8.585 7.554,8.683 C7.667,8.781 7.801,8.830 7.955,8.830 C8.104,8.830 8.228,8.774 8.326,8.661 C8.424,8.548 8.473,8.414 8.473,8.259 C8.473,8.110 8.417,7.987 8.304,7.888 zM8.161,9.228 C7.881,9.499 7.533,9.829 7.116,10.219 C6.699,10.609 6.295,10.987 5.902,11.353 C5.509,11.719 5.134,12.066 4.777,12.393 C4.420,12.720 4.220,12.905 4.179,12.946 C4.179,12.946 7.295,7.768 7.295,7.768 C7.313,7.732 7.463,7.579 7.746,7.308 C8.028,7.037 8.376,6.708 8.790,6.321 C9.204,5.935 9.610,5.557 10.009,5.188 C10.408,4.818 10.781,4.472 11.129,4.147 C11.478,3.823 11.679,3.637 11.732,3.589 C11.732,3.589 8.607,8.777 8.607,8.777 C8.589,8.807 8.440,8.957 8.161,9.228 zM14.259,7.036 C14.259,7.036 13.750,7.152 13.750,7.152 C13.726,7.158 13.698,7.152 13.665,7.134 C13.632,7.116 13.616,7.092 13.616,7.062 C13.616,6.979 13.646,6.932 13.705,6.920 C13.705,6.920 14.205,6.812 14.205,6.812 C14.021,6.039 13.701,5.321 13.246,4.661 C12.790,4.000 12.232,3.446 11.571,3.000 C11.351,3.381 11.208,3.571 11.143,3.571 C11.071,3.571 11.036,3.533 11.036,3.455 C11.036,3.402 11.152,3.208 11.384,2.875 C10.342,2.226 9.214,1.902 8.000,1.902 C7.625,1.902 7.226,1.941 6.804,2.018 C6.804,2.018 6.938,2.607 6.938,2.607 C6.943,2.637 6.938,2.668 6.920,2.701 C6.902,2.734 6.878,2.750 6.848,2.750 C6.771,2.750 6.726,2.720 6.714,2.661 C6.714,2.661 6.580,2.062 6.580,2.062 C5.795,2.241 5.068,2.560 4.402,3.018 C3.735,3.476 3.173,4.039 2.714,4.705 C2.714,4.705 2.893,4.813 2.893,4.813 C3.012,4.884 3.109,4.948 3.183,5.004 C3.257,5.061 3.295,5.107 3.295,5.143 C3.295,5.214 3.256,5.250 3.179,5.250 C3.155,5.250 3.103,5.226 3.022,5.179 C2.942,5.131 2.853,5.074 2.754,5.009 C2.656,4.943 2.601,4.908 2.589,4.902 C1.940,5.932 1.616,7.060 1.616,8.286 C1.616,8.685 1.658,9.098 1.741,9.527 C1.741,9.527 2.348,9.393 2.348,9.393 C2.378,9.387 2.409,9.393 2.442,9.411 C2.475,9.429 2.491,9.452 2.491,9.482 C2.491,9.554 2.461,9.598 2.402,9.616 C2.402,9.616 1.786,9.750 1.786,9.750 C1.970,10.536 2.298,11.263 2.768,11.933 C3.238,12.603 3.809,13.161 4.482,13.607 C4.494,13.589 4.534,13.521 4.603,13.402 C4.671,13.283 4.738,13.180 4.804,13.094 C4.869,13.008 4.920,12.964 4.955,12.964 C5.033,12.964 5.071,13.003 5.071,13.080 C5.071,13.104 5.043,13.161 4.987,13.250 C4.930,13.339 4.866,13.439 4.795,13.549 C4.723,13.659 4.684,13.720 4.679,13.732 C5.708,14.357 6.815,14.670 8.000,14.670 C8.440,14.670 8.875,14.625 9.304,14.536 C9.304,14.536 9.161,13.929 9.161,13.929 C9.155,13.905 9.161,13.877 9.179,13.844 C9.196,13.811 9.220,13.795 9.250,13.795 C9.333,13.795 9.378,13.824 9.384,13.884 C9.384,13.884 9.527,14.482 9.527,14.482 C10.307,14.292 11.025,13.963 11.683,13.496 C12.341,13.028 12.890,12.461 13.330,11.795 C12.979,11.592 12.804,11.461 12.804,11.402 C12.804,11.324 12.842,11.286 12.920,11.286 C12.943,11.286 12.992,11.308 13.067,11.353 C13.141,11.397 13.220,11.446 13.304,11.500 C13.387,11.554 13.438,11.586 13.455,11.598 C14.074,10.586 14.384,9.482 14.384,8.286 C14.384,7.881 14.342,7.464 14.259,7.036 C14.259,7.036 14.259,7.036 14.259,7.036 zM13.054,13.339 C12.417,13.976 11.658,14.484 10.777,14.862 C9.896,15.240 8.970,15.429 8.000,15.429 C7.030,15.429 6.104,15.240 5.223,14.862 C4.342,14.484 3.583,13.976 2.946,13.339 C2.309,12.702 1.802,11.943 1.424,11.062 C1.046,10.182 0.857,9.256 0.857,8.286 C0.857,7.316 1.046,6.390 1.424,5.509 C1.802,4.628 2.309,3.869 2.946,3.232 C3.583,2.595 4.342,2.088 5.223,1.710 C6.104,1.332 7.030,1.143 8.000,1.143 C8.970,1.143 9.896,1.332 10.777,1.710 C11.658,2.088 12.417,2.595 13.054,3.232 C13.690,3.869 14.198,4.628 14.576,5.509 C14.954,6.390 15.143,7.316 15.143,8.286 C15.143,9.256 14.954,10.182 14.576,11.062 C14.198,11.943 13.690,12.702 13.054,13.339 zM13.661,2.625 C12.946,1.911 12.095,1.342 11.107,0.920 C10.119,0.497 9.083,0.286 8.000,0.286 C6.917,0.286 5.881,0.497 4.893,0.920 C3.905,1.342 3.054,1.911 2.339,2.625 C1.625,3.339 1.057,4.191 0.634,5.179 C0.211,6.167 -0.000,7.202 -0.000,8.286 C-0.000,9.369 0.211,10.405 0.634,11.393 C1.057,12.381 1.625,13.232 2.339,13.946 C3.054,14.661 3.905,15.229 4.893,15.652 C5.881,16.074 6.917,16.286 8.000,16.286 C9.083,16.286 10.119,16.074 11.107,15.652 C12.095,15.229 12.946,14.661 13.661,13.946 C14.375,13.232 14.943,12.381 15.366,11.393 C15.789,10.405 16.000,9.369 16.000,8.286 C16.000,7.202 15.789,6.167 15.366,5.179 C14.943,4.191 14.375,3.339 13.661,2.625 z" fill="#999999" /></svg>